<svg width="1679" height="547" viewBox="0 0 1679 547" fill="none" xmlns="http://www.w3.org/2000/svg">
<path d="M436.617 335.484H589.827C590.697 335.484 591.397 334.784 591.397 333.924V320.514C591.397 319.654 590.697 318.954 589.827 318.954H474.197V217.754H544.927C545.797 217.754 546.497 217.054 546.497 216.194V202.764C546.497 201.904 545.797 201.204 544.927 201.204H474.197V103.504H589.827C590.697 103.504 591.397 102.804 591.397 101.944V88.5342C591.397 87.6742 590.697 86.9742 589.827 86.9742H436.617C435.747 86.9742 435.047 87.6742 435.047 88.5342V333.904C435.047 334.784 435.747 335.484 436.617 335.484Z" fill="white"/>
<path d="M699.798 222.564C696.007 221.564 692.188 220.644 688.388 219.684C679.658 217.544 670.617 215.324 661.977 212.514C649.387 208.384 643.048 200.924 642.618 189.744C642.178 178.324 649.398 167.904 661.018 163.154C682.298 154.564 702.478 157.824 721.088 172.974C722.928 174.464 724.738 175.984 726.548 177.484L729.438 179.884C730.098 180.434 731.078 180.434 731.748 179.894L737.498 175.134C737.888 174.804 738.138 174.344 738.148 173.844C738.178 173.324 737.958 172.824 737.588 172.474C728.878 164.214 721.178 159.284 716.198 156.574C716.178 156.574 715.998 156.484 715.998 156.464C712.468 154.574 710.308 153.784 710.198 153.754C710.178 153.744 710.168 153.724 710.138 153.724C701.838 150.334 692.448 148.534 682.958 148.534C663.968 148.534 646.838 155.424 635.988 167.424C623.408 181.334 618.598 198.694 622.768 215.034C626.858 231.104 639.118 243.834 656.388 250.014C663.698 252.634 671.288 254.864 678.598 257.004C688.998 260.074 699.728 263.244 709.758 267.514C718.298 271.154 724.268 277.544 726.578 285.584C728.878 293.554 727.238 302.044 721.988 309.494C716.308 317.574 706.997 324.504 698.298 327.154C682.358 332.034 667.227 331.514 653.477 325.464C653.447 325.434 653.378 325.424 653.318 325.404L652.167 324.834C645.237 321.464 639.138 316.914 635.238 313.734C633.378 312.204 631.608 310.614 629.958 309.074C628.608 307.814 627.308 306.584 626.218 305.484C625.858 305.124 625.368 304.914 624.848 304.944C624.328 304.974 623.858 305.224 623.528 305.614L623.107 306.144C622.937 306.244 622.767 306.384 622.667 306.524C621.897 307.504 621.118 308.484 620.338 309.444C620.258 309.544 620.188 309.634 620.148 309.724L618.968 311.154C618.378 311.874 618.448 312.934 619.128 313.574C623.568 317.724 628.138 321.494 633.088 325.014C636.238 327.484 639.668 329.714 643.868 331.984C645.118 332.694 646.258 333.304 647.198 333.774C648.608 334.504 649.487 334.934 649.917 335.114C649.927 335.124 650.128 335.204 650.158 335.214C650.188 335.214 650.188 335.214 650.188 335.214C650.208 335.234 650.248 335.264 650.288 335.284C650.348 335.304 650.388 335.324 650.458 335.334C659.458 339.084 669.248 340.974 679.578 340.974C682.698 340.974 685.948 340.794 689.198 340.444C721.928 336.954 745.558 312.724 747.988 280.164C750.228 250.434 734.467 231.574 699.798 222.564Z" fill="white"/>
<path d="M1274.2 97.6842H1273.82C1267.64 97.7742 1261.55 100.444 1257.09 105.014C1252.63 109.584 1250.21 115.454 1250.34 121.564C1250.55 134.234 1261.27 144.534 1274.21 144.534H1274.63C1288.09 144.294 1298.08 134.094 1297.87 120.774C1297.62 107.824 1287.24 97.6842 1274.2 97.6842Z" fill="white"/>
<path d="M1292.18 162.814H1256.76C1255.77 162.814 1254.96 163.594 1254.96 164.544V333.764C1254.96 334.714 1255.76 335.484 1256.75 335.484H1292.21C1293.19 335.484 1294 334.714 1294 333.764V164.564C1294 163.604 1293.18 162.814 1292.18 162.814Z" fill="white"/>
<path d="M1221.38 162.854H1167.73V101.004C1167.73 100.024 1166.9 99.2242 1165.9 99.2242C1165.46 99.2242 1165.01 99.4043 1164.67 99.7043L1127.97 133.474C1127.77 133.934 1127.59 134.344 1127.38 134.804V162.854H1100.09C1099.11 162.854 1098.28 163.644 1098.28 164.644V170.444C1098.28 171.434 1099.11 172.234 1100.09 172.234H1127.97V181.284C1127.97 195.724 1127.98 210.154 1127.98 224.584C1128 250.354 1128.01 276.114 1127.98 301.874C1127.97 316.684 1132.79 326.834 1142.78 332.864C1152.47 338.694 1162.67 341.674 1173.14 341.674C1179.81 341.674 1186.69 340.454 1193.58 338.044C1193.63 338.044 1193.67 338.024 1193.73 338.004C1197.71 336.734 1210.56 331.504 1211.12 331.304C1211.57 331.114 1211.92 330.764 1212.11 330.344C1212.29 329.894 1212.29 329.394 1212.11 328.964L1209.66 323.204C1209.47 322.744 1209.1 322.404 1208.66 322.224C1208.2 322.064 1207.71 322.064 1207.25 322.254C1203.84 323.744 1199.97 325.154 1195.75 326.434C1195.67 326.454 1195.59 326.474 1195.51 326.474C1195.34 326.544 1195.19 326.604 1195.02 326.664C1194.84 326.704 1194.65 326.774 1194.54 326.804C1188.6 328.544 1184.17 329.494 1183.76 329.574C1182.06 329.854 1180.53 329.994 1179.18 329.994C1171.88 329.994 1168.17 326.464 1168.12 307.174C1168.07 265.634 1168.09 213.734 1168.12 172.244H1221.37C1222.36 172.244 1223.15 171.444 1223.15 170.454V164.654C1223.16 163.654 1222.37 162.854 1221.38 162.854Z" fill="white"/>
<path d="M894.198 162.854H840.548V101.004C840.548 100.024 839.718 99.2242 838.718 99.2242C838.278 99.2242 837.828 99.4043 837.488 99.7043L800.788 133.474C800.588 133.934 800.408 134.344 800.198 134.804V162.854H772.908C771.928 162.854 771.098 163.644 771.098 164.644V170.444C771.098 171.434 771.928 172.234 772.908 172.234H800.788V181.284C800.788 195.724 800.798 210.154 800.798 224.584C800.818 250.354 800.828 276.114 800.798 301.874C800.788 316.684 805.608 326.834 815.598 332.864C825.288 338.694 835.488 341.674 845.958 341.674C852.628 341.674 859.508 340.454 866.398 338.044C866.448 338.044 866.488 338.024 866.548 338.004C870.528 336.734 883.388 331.504 883.938 331.304C884.388 331.114 884.738 330.764 884.928 330.344C885.108 329.894 885.108 329.394 884.928 328.964L882.478 323.204C882.288 322.744 881.918 322.404 881.478 322.224C881.018 322.064 880.528 322.064 880.068 322.254C876.658 323.744 872.788 325.154 868.568 326.434C868.488 326.454 868.408 326.474 868.328 326.474C868.158 326.544 868.008 326.604 867.838 326.664C867.658 326.704 867.468 326.774 867.358 326.804C861.418 328.544 856.988 329.494 856.578 329.574C854.878 329.854 853.348 329.994 851.998 329.994C844.698 329.994 840.988 326.464 840.938 307.174C840.888 265.634 840.908 213.734 840.938 172.244H894.188C895.178 172.244 895.968 171.444 895.968 170.454V164.654C895.988 163.654 895.198 162.854 894.198 162.854Z" fill="white"/>
<path d="M1040.68 160.734C1016.55 145.284 990.347 143.864 965.187 156.614C936.597 171.124 917.597 200.484 914.357 235.094C911.017 270.864 924.867 304.344 951.407 324.674C965.427 335.404 982.147 341.064 999.767 341.064C1022.72 341.064 1044.49 331.384 1059.57 314.464C1059.68 314.414 1059.78 314.324 1059.87 314.224C1060.15 313.934 1066.78 306.794 1074.56 292.774C1075.03 291.944 1074.77 290.904 1073.95 290.384L1069.12 287.344C1068.32 286.854 1067.23 287.054 1066.69 287.814L1060.36 296.604C1058.92 298.484 1057.49 300.344 1056.02 302.174C1039.6 322.334 1019.93 331.614 995.657 330.464C980.927 329.764 970.837 322.954 965.637 310.204C956.357 287.394 956.787 263.624 957.277 238.464C957.337 235.314 957.407 232.164 957.437 228.964H1074.26C1074.77 228.964 1075.23 228.784 1075.57 228.414C1075.91 228.064 1076.11 227.574 1076.08 227.104C1074.54 196.704 1062.94 174.994 1040.68 160.734ZM957.907 218.614C958.297 203.754 960.007 188.254 968.227 174.514C974.557 163.894 984.737 158.514 998.457 158.514C999.677 158.514 1000.95 158.554 1002.21 158.634C1015.84 159.574 1025.35 167.324 1028.95 180.374C1031.35 188.964 1032.96 197.874 1034.67 207.274C1035.32 210.964 1036.01 214.734 1036.75 218.614H957.907Z" fill="white"/>
<path d="M1501.98 332.054L1421.21 229.224L1422.93 227.394L1486.79 165.884C1487.3 165.374 1487.48 164.614 1487.21 163.934C1486.95 163.254 1486.3 162.804 1485.59 162.804H1473.86C1473.42 162.804 1472.99 162.964 1472.66 163.274L1470.82 165.024C1470.76 165.084 1470.7 165.124 1470.63 165.184C1461.97 173.394 1453.28 181.634 1444.58 189.904L1380.28 250.944V101.014C1380.28 100.034 1379.5 99.2343 1378.54 99.2343H1378.13C1377.71 99.2343 1377.28 99.4142 1376.96 99.7142L1342.94 131.954C1342.75 132.394 1342.59 132.774 1342.41 133.204V333.704C1342.41 334.684 1343.19 335.474 1344.14 335.474H1378.55C1379.5 335.474 1380.28 334.674 1380.28 333.704V268.334L1392.82 256.314L1448.48 327.694C1448.9 328.164 1449.31 328.684 1449.73 329.254C1450.72 330.524 1451.77 331.844 1452.75 332.804L1454.47 334.844C1454.79 335.234 1455.28 335.474 1455.79 335.474H1501.22C1501.99 335.474 1502.7 334.984 1502.9 334.224C1503.13 333.374 1501.98 332.054 1501.98 332.054Z" fill="white"/>
<path d="M1676.79 190.914C1676.79 190.764 1676.76 190.614 1676.71 190.344L1676.7 190.064C1676.7 189.864 1676.64 189.674 1676.59 189.504C1675.28 179.574 1665.34 168.354 1656.52 162.014C1644.52 153.364 1627.36 148.624 1608.16 148.624C1594.33 148.624 1580.37 151.204 1568.74 155.924C1568.56 155.964 1568.4 156.004 1568.23 156.074C1567.99 156.184 1567.77 156.294 1567.55 156.384L1567.15 156.584C1563.65 158.074 1560.32 159.824 1557.23 161.744C1557.05 161.814 1556.86 161.914 1556.69 162.044L1555.86 162.664C1555.69 162.764 1555.56 162.844 1555.46 162.914L1555.05 163.174C1554.78 163.354 1554.51 163.514 1554.27 163.684C1554.24 163.714 1554.2 163.734 1554.14 163.784C1547.83 167.924 1543.79 171.434 1543.63 171.564C1542.9 172.204 1542.81 173.324 1543.47 174.064L1548.01 179.264C1548.33 179.624 1548.77 179.874 1549.28 179.884C1549.75 179.914 1550.23 179.754 1550.59 179.414C1564.29 166.954 1581.07 160.314 1601.89 159.164C1602.92 159.114 1603.96 159.084 1604.98 159.084C1623.79 159.084 1636.66 169.084 1638.57 185.224C1638.74 186.824 1638.85 188.504 1638.94 190.114L1639.04 191.894V227.454L1639 229.184C1639 230.124 1638.95 231.074 1638.95 232.014C1638.12 232.074 1637.32 232.124 1636.54 232.174C1634.25 232.334 1632.18 232.494 1630.12 232.574C1604.22 233.534 1579.03 235.294 1554.95 246.074C1530.03 257.224 1519.59 276.824 1523.9 304.314C1527.19 325.374 1542.51 337.704 1569.46 340.914C1574.49 341.514 1579.35 341.834 1583.91 341.834C1606.22 341.834 1624.3 334.554 1639.04 319.584V333.654C1639.04 334.644 1639.86 335.454 1640.86 335.454H1675.91C1676.9 335.454 1677.7 334.654 1677.7 333.674C1677.7 321.164 1677.78 308.674 1677.86 296.204C1678.07 261.674 1678.28 225.954 1676.79 190.914ZM1639.06 296.494C1639.03 296.864 1639 297.214 1638.98 297.604C1638.95 297.914 1638.95 298.264 1638.91 298.614C1637.36 312.994 1617.17 329.734 1593.45 329.734C1587.22 329.734 1581.68 328.294 1577.46 325.624C1576.27 324.894 1575.09 323.924 1573.95 322.814C1564.95 313.924 1561.43 297.574 1565.01 281.104C1568.23 266.344 1576.38 255.214 1586.8 251.344C1598.13 247.164 1610.31 245.174 1623.22 243.114C1628.38 242.264 1633.67 241.414 1639.04 240.404L1639.06 296.494Z" fill="white"/>
<path d="M966.577 424.584H951.607C951.017 424.584 950.547 425.024 950.547 425.574V456.714L951.157 468.324C944.047 463.254 937.397 460.164 927.837 460.164C902.447 460.164 888.737 482.594 888.737 503.704C888.737 530.364 903.037 546.904 926.037 546.904C937.517 546.904 946.997 540.524 952.197 536.094L953.257 544.044C953.317 544.544 953.777 544.914 954.327 544.914H966.577C967.167 544.914 967.647 544.474 967.647 543.924V425.564C967.637 425.014 967.157 424.584 966.577 424.584ZM950.537 522.924C943.527 530.104 936.767 533.454 929.257 533.454C914.607 533.454 906.187 522.554 906.187 503.534C906.187 486.174 916.347 473.604 930.337 473.604C937.587 473.604 943.827 476.054 950.527 481.514V522.924H950.537Z" fill="white"/>
<path d="M1039.82 461.884C1036.74 460.654 1033.92 460.154 1030.03 460.154C1020.64 460.154 1011.81 465.624 1005.48 475.254L1004.42 463.054C1004.39 462.544 1003.92 462.144 1003.37 462.144H991.097C990.507 462.144 990.037 462.584 990.037 463.134V543.914C990.037 544.464 990.507 544.904 991.097 544.904H1005.88C1006.47 544.904 1006.95 544.464 1006.95 543.914V492.244C1014.04 476.174 1024.04 474.424 1028.02 474.424C1031.55 474.424 1033.44 474.904 1036.19 475.704C1036.47 475.784 1036.77 475.744 1037.05 475.614C1037.29 475.464 1037.48 475.244 1037.54 474.964L1040.44 463.004C1040.55 462.554 1040.28 462.084 1039.82 461.884Z" fill="white"/>
<path d="M1060.11 523.984C1053.35 523.984 1048.23 528.984 1048.23 535.604C1048.23 541.944 1053.46 546.894 1060.11 546.894C1066.68 546.894 1071.84 541.944 1071.84 535.604C1071.84 528.974 1066.78 523.984 1060.11 523.984Z" fill="white"/>
<path d="M1196.31 433.894H1179.36C1178.88 433.894 1178.49 434.164 1178.33 434.564L1138.36 543.614C1138.24 543.914 1138.29 544.254 1138.5 544.504C1138.7 544.764 1139.02 544.914 1139.38 544.914H1154.68C1155.15 544.914 1155.56 544.644 1155.7 544.224L1166.83 511.654H1208.31L1219.24 544.204C1219.38 544.624 1219.79 544.904 1220.27 544.904H1236.3C1236.64 544.904 1236.97 544.754 1237.18 544.494C1237.38 544.244 1237.43 543.904 1237.32 543.604L1197.33 434.554C1197.19 434.164 1196.77 433.894 1196.31 433.894ZM1203.85 498.544H1171.26L1176.43 483.234C1180.34 472.264 1183.95 460.964 1187.49 448.744C1191.53 462.174 1195.01 472.894 1198.7 483.214L1203.85 498.544Z" fill="white"/>
<path d="M1366.52 425.334C1363.81 424.304 1358.26 422.604 1351.52 422.604C1334.33 422.604 1324.87 432.444 1324.87 450.344V462.224L1313.96 462.984C1313.41 463.014 1312.98 463.444 1312.98 463.964V474.274C1312.98 474.824 1313.45 475.264 1314.06 475.264H1324.88V543.924C1324.88 544.474 1325.36 544.914 1325.95 544.914H1340.72C1341.32 544.914 1341.8 544.474 1341.8 543.924V475.264H1359.28C1359.88 475.264 1360.35 474.824 1360.35 474.274V463.144C1360.35 462.594 1359.87 462.154 1359.28 462.154H1341.8V450.334C1341.8 440.484 1345.46 435.694 1352.99 435.694C1356.13 435.694 1359.4 436.364 1362.45 437.614C1362.71 437.724 1363.05 437.724 1363.33 437.594C1363.63 437.474 1363.83 437.264 1363.92 436.974L1367.17 426.504C1367.3 426.024 1367.03 425.514 1366.52 425.334Z" fill="white"/>
<path d="M1301.93 425.334C1299.21 424.304 1293.67 422.604 1286.93 422.604C1269.73 422.604 1260.27 432.444 1260.27 450.344V462.224L1249.36 462.984C1248.81 463.014 1248.37 463.444 1248.37 463.964V474.274C1248.37 474.824 1248.84 475.264 1249.45 475.264H1260.27V543.924C1260.27 544.474 1260.75 544.914 1261.34 544.914H1276.12C1276.71 544.914 1277.19 544.474 1277.19 543.924V475.264H1294.68C1295.27 475.264 1295.75 474.824 1295.75 474.274V463.144C1295.75 462.594 1295.27 462.154 1294.68 462.154H1277.19V450.334C1277.19 440.484 1280.85 435.694 1288.38 435.694C1291.54 435.694 1294.8 436.364 1297.85 437.614C1298.12 437.724 1298.45 437.724 1298.75 437.594C1299.04 437.474 1299.23 437.264 1299.33 436.974L1302.57 426.504C1302.7 426.024 1302.43 425.514 1301.93 425.334Z" fill="white"/>
<path d="M1413.5 460.154C1402.14 460.154 1390.36 463.724 1378.49 470.774C1378.03 471.064 1377.86 471.634 1378.14 472.104L1383.91 481.564C1384.06 481.814 1384.32 481.984 1384.59 482.044C1384.88 482.124 1385.21 482.064 1385.45 481.894C1394.37 476.274 1402.95 473.434 1410.98 473.434C1421.96 473.434 1427.66 479.624 1427.91 491.864C1390.29 495.834 1374.22 505.164 1374.22 522.984C1374.22 537.294 1384.93 546.904 1400.9 546.904C1410.22 546.904 1419.35 543.374 1429.56 535.824L1430.64 544.044C1430.69 544.544 1431.14 544.914 1431.7 544.914H1443.96C1444.54 544.914 1445.03 544.474 1445.03 543.924V494.374C1445.02 471.994 1434.12 460.154 1413.5 460.154ZM1427.93 523.694C1420.38 529.854 1413.61 533.954 1405.21 533.954C1400.88 533.954 1390.78 532.774 1390.78 521.964C1390.78 511.674 1401.9 505.904 1427.93 502.814V523.694Z" fill="white"/>
<path d="M1511.91 460.154C1499.33 460.154 1490.18 466.504 1482.89 473.074L1481.81 463.034C1481.74 462.544 1481.3 462.154 1480.74 462.154H1468.5C1467.9 462.154 1467.42 462.594 1467.42 463.144V543.924C1467.42 544.474 1467.91 544.914 1468.5 544.914H1483.27C1483.86 544.914 1484.35 544.474 1484.35 543.924V485.834C1493.11 477.774 1498.83 473.944 1507.23 473.944C1518.11 473.944 1522.74 480.104 1522.74 494.574V543.934C1522.74 544.484 1523.21 544.924 1523.81 544.924H1538.58C1539.19 544.924 1539.65 544.484 1539.65 543.934V492.744C1539.64 471.114 1530.31 460.154 1511.91 460.154Z" fill="white"/>
<path d="M1634.73 424.584H1619.77C1619.17 424.584 1618.7 425.024 1618.7 425.574V456.714L1619.31 468.324C1612.22 463.254 1605.56 460.164 1596.01 460.164C1570.6 460.164 1556.9 482.594 1556.9 503.704C1556.9 530.364 1571.2 546.904 1594.19 546.904C1605.69 546.904 1615.17 540.524 1620.36 536.094L1621.43 544.044C1621.5 544.544 1621.96 544.914 1622.48 544.914H1634.74C1635.35 544.914 1635.82 544.474 1635.82 543.924V425.564C1635.81 425.014 1635.34 424.584 1634.73 424.584ZM1618.7 522.924C1611.7 530.104 1604.93 533.454 1597.44 533.454C1582.76 533.454 1574.36 522.554 1574.36 503.534C1574.36 486.174 1584.53 473.604 1598.52 473.604C1605.77 473.604 1612.01 476.054 1618.71 481.514V522.924H1618.7Z" fill="white"/>
<path d="M1674.04 462.154H1659.27C1658.67 462.154 1658.19 462.594 1658.19 463.144V543.924C1658.19 544.474 1658.68 544.914 1659.27 544.914H1674.04C1674.65 544.914 1675.12 544.474 1675.12 543.924V463.144C1675.12 462.594 1674.65 462.154 1674.04 462.154Z" fill="white"/>
<path d="M1666.66 447.504C1673.12 447.504 1678.01 443.284 1678.01 437.694C1678.01 432.024 1673.23 427.884 1666.66 427.884C1660.08 427.884 1655.31 432.014 1655.31 437.694C1655.31 443.284 1660.2 447.504 1666.66 447.504Z" fill="white"/>
<path d="M334.557 188.354C334.327 187.494 334.117 186.654 333.877 185.794C332.907 182.614 331.937 179.444 330.797 176.354H330.817C330.817 176.354 330.777 176.274 330.707 176.144C325.097 160.914 317.527 146.714 308.377 133.824C307.527 132.594 306.677 131.414 305.847 130.304C305.847 130.304 303.747 127.104 301.687 124.754C301.257 124.264 300.827 123.794 300.417 123.414C300.407 123.384 300.367 123.344 300.337 123.314V123.344C300.117 123.134 299.897 122.964 299.697 122.814C299.497 122.604 299.247 122.474 298.947 122.414C298.857 122.384 298.787 122.364 298.697 122.354C298.647 122.354 298.617 122.324 298.557 122.324C297.677 122.324 296.967 123.034 296.967 123.894C296.967 124.174 297.047 124.424 297.187 124.634C297.287 124.974 297.417 125.454 297.567 125.984C298.767 130.244 355.267 348.554 185.567 374.974C185.557 374.974 185.517 374.974 185.527 374.974C187.147 374.024 289.697 313.434 261.207 155.594C260.787 153.254 260.267 150.914 259.697 148.604C256.787 136.794 246.907 96.1943 239.297 59.9543C237.527 49.4943 236.207 40.2743 235.227 32.6343C234.577 27.5743 234.197 22.4943 234.047 17.3943C233.927 13.7143 233.427 10.7743 232.707 8.42429V8.39429L232.697 8.40427C227.697 -7.41573 210.887 3.95429 210.887 3.95429L195.177 14.7043C180.797 23.5443 165.037 32.2743 148.967 41.3643C122.617 55.3143 50.9274 95.3643 22.7074 150.164C7.60741 179.484 -12.5326 233.014 10.2774 305.514C10.2774 305.514 49.2874 422.604 158.707 422.604C182.497 422.604 277.497 425.934 326.187 321.674C326.187 321.664 354.847 262.574 334.557 188.354ZM164.617 358.784C156.217 368.514 134.687 390.664 109.057 395.704C109.037 395.704 109.027 395.694 109.037 395.674C112.547 391.624 117.067 385.744 122.327 377.464C122.707 376.864 123.097 376.264 123.447 375.674C123.557 375.494 123.667 375.304 123.787 375.124C134.757 356.614 132.377 342.604 128.377 334.054C124.437 326.834 118.817 321.074 114.767 317.484C114.747 317.464 114.727 317.434 114.697 317.404C113.887 316.664 112.977 315.924 112.037 315.184C110.587 314.024 109.677 313.404 109.677 313.404V313.424C108.457 312.554 107.187 311.694 105.897 310.864C95.3974 303.494 85.4574 299.714 85.3874 299.694C78.8774 296.304 72.3274 292.964 65.9474 289.334C58.1274 284.874 50.9374 279.594 47.0674 270.994C41.6374 258.924 44.7574 249.224 56.2374 242.304C58.1974 241.114 60.2174 239.784 61.5974 238.044C62.6574 236.734 63.6774 234.264 63.1274 232.974C58.0774 221.234 61.4574 215.694 74.1674 215.824C73.3174 213.694 72.3074 211.714 71.7274 209.634C70.2674 204.494 73.1474 200.624 78.4574 200.314C89.4274 199.704 93.5074 194.224 90.7674 183.594C89.7174 179.504 88.1674 175.554 87.1274 171.484C85.5074 164.924 88.4974 161.044 95.2474 160.684C101.907 160.324 108.597 160.284 115.237 159.844C115.267 159.844 115.297 159.844 115.337 159.844C148.357 159.004 150.587 149.234 161.367 130.924C169.047 117.874 180.157 108.004 185.897 103.424C187.677 102.004 190.337 102.794 191.007 104.954C191.487 106.494 191.967 108.094 192.467 109.754C195.567 120.224 198.877 132.754 201.747 146.724C208.927 181.464 213.467 225.014 206.007 267.734C204.697 275.234 202.987 282.714 200.897 290.104C199.697 294.264 198.397 298.414 196.917 302.504C196.587 303.444 196.257 304.394 195.897 305.354C195.357 306.824 194.777 308.284 194.177 309.754C190.837 318.074 186.837 326.184 182.167 334.084L182.217 334.064C182.207 334.064 176.407 344.824 164.617 358.784Z" fill="white"/>
</svg>
