<svg width="2118" height="140" viewBox="0 0 2118 140" fill="none" xmlns="http://www.w3.org/2000/svg">
<path d="M0.393982 120V2.02568H40.2208C59.2975 2.02568 74.0233 7.10165 84.3984 17.2536C94.7734 27.2939 99.961 41.8525 99.961 60.9292C99.961 80.0059 94.7734 94.6202 84.3984 104.772C74.0233 114.924 59.2975 120 40.2208 120H0.393982ZM14.1158 108.286H39.2167C70.0072 108.286 85.4024 92.5006 85.4024 60.9292C85.4024 29.4694 70.0072 13.7394 39.2167 13.7394H14.1158V108.286ZM174.124 121.506C163.191 121.506 153.653 119.052 145.509 114.143C137.476 109.123 131.229 102.095 126.767 93.0583C122.416 84.022 120.24 73.3123 120.24 60.9292C120.24 48.5461 122.416 37.8363 126.767 28.8C131.117 19.7637 137.309 12.7912 145.341 7.88257C153.485 2.97394 163.079 0.519627 174.124 0.519627C185.28 0.519627 194.874 2.97394 202.906 7.88257C211.05 12.7912 217.297 19.7637 221.648 28.8C226.11 37.7248 228.342 48.3787 228.342 60.7618C228.342 73.145 226.11 83.9105 221.648 93.0583C217.186 102.095 210.883 109.123 202.739 114.143C194.706 119.052 185.168 121.506 174.124 121.506ZM174.124 109.29C186.73 109.29 196.491 105.051 203.408 96.5725C210.325 88.0939 213.783 76.2128 213.783 60.9292C213.783 45.6455 210.325 33.8202 203.408 25.4532C196.491 16.9747 186.73 12.7354 174.124 12.7354C161.741 12.7354 152.091 16.9747 145.174 25.4532C138.257 33.8202 134.799 45.6455 134.799 60.9292C134.799 76.1013 138.257 87.9824 145.174 96.5725C152.091 105.051 161.741 109.29 174.124 109.29ZM252.874 120V2.02568H263.584L334.703 96.9072V2.02568H347.421V120H337.046L265.759 24.7839V120H252.874ZM405.694 120V13.9068H362.855V2.02568H462.422V13.9068H419.583V120H405.694ZM552.183 120L510.85 2.02568H525.241L558.542 99.9193L592.679 2.02568H603.723L637.526 100.756L671.496 2.02568H685.218L643.885 120H631.669L598.034 22.9431L564.064 120H552.183ZM751.477 121.506C740.545 121.506 731.006 119.052 722.862 114.143C714.83 109.123 708.583 102.095 704.12 93.0583C699.77 84.022 697.594 73.3123 697.594 60.9292C697.594 48.5461 699.77 37.8363 704.12 28.8C708.471 19.7637 714.663 12.7912 722.695 7.88257C730.839 2.97394 740.433 0.519627 751.477 0.519627C762.633 0.519627 772.228 2.97394 780.26 7.88257C788.404 12.7912 794.651 19.7637 799.002 28.8C803.464 37.7248 805.695 48.3787 805.695 60.7618C805.695 73.145 803.464 83.9105 799.002 93.0583C794.54 102.095 788.236 109.123 780.093 114.143C772.06 119.052 762.522 121.506 751.477 121.506ZM751.477 109.29C764.084 109.29 773.845 105.051 780.762 96.5725C787.679 88.0939 791.137 76.2128 791.137 60.9292C791.137 45.6455 787.679 33.8202 780.762 25.4532C773.845 16.9747 764.084 12.7354 751.477 12.7354C739.094 12.7354 729.444 16.9747 722.528 25.4532C715.611 33.8202 712.153 45.6455 712.153 60.9292C712.153 76.1013 715.611 87.9824 722.528 96.5725C729.444 105.051 739.094 109.29 751.477 109.29ZM830.228 120V2.02568H876.915C889.633 2.02568 899.339 4.98201 906.032 10.8947C912.838 16.8073 916.24 25.2301 916.24 36.1629C916.24 44.8646 913.842 52.0044 909.045 57.5824C904.359 63.1604 897.666 66.7861 888.964 68.4594C894.096 70.2444 898.502 74.5952 902.184 81.5119L922.934 120H907.873L887.458 82.1813C884.892 77.4958 881.936 74.3163 878.589 72.6429C875.242 70.9695 870.835 70.1328 865.369 70.1328H843.95V120H830.228ZM843.95 59.2558H874.907C893.426 59.2558 902.686 51.5582 902.686 36.1629C902.686 20.9908 893.426 13.4048 874.907 13.4048H843.95V59.2558ZM942.169 120V2.02568H988.856C1001.57 2.02568 1011.28 4.98201 1017.97 10.8947C1024.78 16.8073 1028.18 25.2301 1028.18 36.1629C1028.18 44.8646 1025.78 52.0044 1020.99 57.5824C1016.3 63.1604 1009.61 66.7861 1000.9 68.4594C1006.04 70.2444 1010.44 74.5952 1014.12 81.5119L1034.87 120H1019.81L999.399 82.1813C996.833 77.4958 993.877 74.3163 990.53 72.6429C987.183 70.9695 982.776 70.1328 977.31 70.1328H955.89V120H942.169ZM955.89 59.2558H986.848C1005.37 59.2558 1014.63 51.5582 1014.63 36.1629C1014.63 20.9908 1005.37 13.4048 986.848 13.4048H955.89V59.2558ZM1081.58 120V64.1086L1036.4 2.02568H1052.46L1088.77 52.0602L1124.92 2.02568H1140.48L1095.3 64.4433V120H1081.58ZM1145.04 139.077L1138.68 134.224C1141.14 131.658 1142.86 129.204 1143.87 126.861C1144.98 124.63 1145.71 122.343 1146.04 120H1138.01V102.931H1155.08V114.98C1155.08 119.554 1154.36 123.793 1152.91 127.698C1151.45 131.602 1148.83 135.395 1145.04 139.077ZM1223.08 120V2.02568H1270.27C1282.43 2.02568 1291.8 4.7589 1298.39 10.2253C1305.08 15.5802 1308.43 23.1105 1308.43 32.8161C1308.43 39.2866 1306.75 44.8088 1303.41 49.3827C1300.06 53.9567 1295.43 57.3035 1289.52 59.4231C1296.32 61.2081 1301.62 64.4991 1305.41 69.2961C1309.32 74.0932 1311.27 80.1732 1311.27 87.5361C1311.27 98.0228 1307.87 106.055 1301.06 111.633C1294.26 117.211 1284.66 120 1272.28 120H1223.08ZM1236.47 54.7376H1268.26C1286 54.7376 1294.87 47.8209 1294.87 33.9875C1294.87 20.0426 1286 13.0701 1268.26 13.0701H1236.47V54.7376ZM1236.47 108.956H1270.94C1288.79 108.956 1297.72 101.76 1297.72 87.3688C1297.72 72.9776 1288.79 65.782 1270.94 65.782H1236.47V108.956ZM1336.17 120V2.02568H1410.63V13.5721H1349.56V54.4029H1407.12V65.9494H1349.56V108.454H1410.63V120H1336.17ZM1476.71 120V2.02568H1523.9C1536.06 2.02568 1545.43 4.7589 1552.01 10.2253C1558.7 15.5802 1562.05 23.1105 1562.05 32.8161C1562.05 39.2866 1560.38 44.8088 1557.03 49.3827C1553.68 53.9567 1549.05 57.3035 1543.14 59.4231C1549.95 61.2081 1555.25 64.4991 1559.04 69.2961C1562.94 74.0932 1564.89 80.1732 1564.89 87.5361C1564.89 98.0228 1561.49 106.055 1554.69 111.633C1547.88 117.211 1538.29 120 1525.9 120H1476.71ZM1490.09 54.7376H1521.89C1539.63 54.7376 1548.5 47.8209 1548.5 33.9875C1548.5 20.0426 1539.63 13.0701 1521.89 13.0701H1490.09V54.7376ZM1490.09 108.956H1524.57C1542.42 108.956 1551.34 101.76 1551.34 87.3688C1551.34 72.9776 1542.42 65.782 1524.57 65.782H1490.09V108.956ZM1589.79 120V2.02568H1664.26V13.5721H1603.18V54.4029H1660.74V65.9494H1603.18V108.454H1664.26V120H1589.79ZM1673.69 120L1725.73 2.02568H1737.44L1789.48 120H1775.26L1762.21 89.8789H1700.79L1687.91 120H1673.69ZM1731.42 18.0903L1705.81 78.3325H1757.35L1731.75 18.0903H1731.42ZM1852.68 121.506C1837.17 121.506 1825.4 117.434 1817.37 109.29C1809.34 101.035 1805.32 89.0422 1805.32 73.3123V2.02568H1819.04V72.6429C1819.04 97.0745 1830.25 109.29 1852.68 109.29C1874.88 109.29 1885.98 97.0745 1885.98 72.6429V2.02568H1899.7V73.3123C1899.7 89.0422 1895.68 101.035 1887.65 109.29C1879.73 117.434 1868.07 121.506 1852.68 121.506ZM1956.85 120V13.9068H1914.01V2.02568H2013.58V13.9068H1970.74V120H1956.85ZM2058.49 120V64.1086L2013.3 2.02568H2029.37L2065.68 52.0602L2101.83 2.02568H2117.39L2072.21 64.4433V120H2058.49Z" fill="white"/>
</svg>
