<svg width="24" height="24" viewBox="0 0 24 24" fill="none" xmlns="http://www.w3.org/2000/svg">
<path d="M14.7234 4.25781H9.27617C7.94491 4.25781 6.66868 4.78645 5.72757 5.72757C4.78645 6.6687 4.25781 7.94486 4.25781 9.27617V14.7215C4.25721 16.0528 4.78584 17.3296 5.72697 18.2714C6.66809 19.2131 7.94488 19.7417 9.27618 19.7417H14.7234C16.0547 19.7417 17.3315 19.2131 18.2726 18.2714C19.2137 17.3296 19.7424 16.0528 19.7418 14.7215V9.27617C19.7418 7.94491 19.2131 6.66868 18.272 5.72757C17.3309 4.78645 16.0547 4.25781 14.7234 4.25781L14.7234 4.25781ZM7.35462 9.26715C7.35462 8.90364 7.49857 8.55586 7.75562 8.29881C8.01206 8.04236 8.36045 7.89841 8.72336 7.89841H12.125C12.4885 7.89841 12.8363 8.04236 13.0934 8.29881C13.3498 8.55587 13.4938 8.90364 13.4938 9.26715C13.4938 10.0226 12.8811 10.6359 12.125 10.6359H8.72816C8.36404 10.6371 8.01505 10.4932 7.7574 10.2367C7.49913 9.97964 7.35457 9.63065 7.35457 9.26715H7.35462ZM15.0699 16.1648H8.35193C7.59528 16.1648 6.98197 15.5521 6.98197 14.7954C6.98197 14.0393 7.59527 13.426 8.35193 13.426H15.0716C15.8283 13.426 16.441 14.0399 16.4404 14.796C16.4398 15.5526 15.8265 16.1654 15.0698 16.1647L15.0699 16.1648Z" fill="#8E8E8E"/>
</svg>
