<svg width="16" height="16" viewBox="0 0 16 16" fill="none" xmlns="http://www.w3.org/2000/svg">
<path d="M11.5334 4.20084C11.2734 3.94084 10.8534 3.94084 10.5934 4.20084L6.83342 7.96084L7.77342 8.90084L11.5334 5.13417C11.7868 4.88084 11.7868 4.45417 11.5334 4.20084ZM14.3601 4.19417L7.77342 10.7808L5.45342 8.46751C5.19342 8.20751 4.77342 8.20751 4.51342 8.46751C4.25342 8.72751 4.25342 9.14751 4.51342 9.40751L7.30009 12.1942C7.56009 12.4542 7.98009 12.4542 8.24009 12.1942L15.3001 5.14084C15.5601 4.88084 15.5601 4.46084 15.3001 4.20084H15.2934C15.0401 3.93417 14.6201 3.93417 14.3601 4.19417ZM0.746758 9.41417L3.53342 12.2008C3.79342 12.4608 4.21342 12.4608 4.47342 12.2008L4.94009 11.7342L1.68676 8.46751C1.42676 8.20751 1.00676 8.20751 0.746758 8.46751C0.486758 8.72751 0.486758 9.15417 0.746758 9.41417Z" fill="#15CF74"/>
</svg>
