<svg width="200" height="200" viewBox="0 0 200 200" fill="none" xmlns="http://www.w3.org/2000/svg">
<path d="M200 152.961H0V153.061H200V152.961Z" fill="#EBEBEB"/>
<path d="M94.8002 135.12H17.5642C16.9591 135.119 16.3792 134.878 15.9517 134.45C15.5243 134.021 15.2842 133.441 15.2842 132.836V24.264C15.2894 23.6624 15.5319 23.0872 15.9588 22.6633C16.3857 22.2394 16.9626 22.001 17.5642 22H94.8002C95.4059 22 95.9869 22.2406 96.4152 22.669C96.8436 23.0973 97.0842 23.6782 97.0842 24.284V132.836C97.0842 133.442 96.8436 134.023 96.4152 134.451C95.9869 134.879 95.4059 135.12 94.8002 135.12ZM17.5642 22.08C16.9856 22.0811 16.4312 22.3116 16.0224 22.7211C15.6137 23.1306 15.3842 23.6855 15.3842 24.264V132.836C15.3842 133.415 15.6137 133.969 16.0224 134.379C16.4312 134.788 16.9856 135.019 17.5642 135.02H94.8002C95.3791 135.019 95.934 134.789 96.3433 134.379C96.7527 133.97 96.9831 133.415 96.9842 132.836V24.264C96.9831 23.6851 96.7527 23.1302 96.3433 22.7208C95.934 22.3115 95.3791 22.0811 94.8002 22.08H17.5642Z" fill="#EBEBEB"/>
<path d="M181.324 135.12H104.084C103.478 135.119 102.898 134.878 102.47 134.45C102.042 134.022 101.801 133.441 101.8 132.836V24.264C101.806 23.662 102.049 23.0868 102.477 22.663C102.904 22.2392 103.482 22.001 104.084 22H181.324C181.925 22.0021 182.501 22.2409 182.927 22.6647C183.353 23.0885 183.595 23.6631 183.6 24.264V132.836C183.6 133.44 183.36 134.02 182.934 134.448C182.507 134.876 181.928 135.118 181.324 135.12ZM104.084 22.08C103.505 22.0811 102.95 22.3115 102.541 22.7208C102.131 23.1302 101.901 23.6851 101.9 24.264V132.836C101.901 133.415 102.131 133.97 102.541 134.379C102.95 134.789 103.505 135.019 104.084 135.02H181.324C181.903 135.019 182.458 134.789 182.867 134.379C183.276 133.97 183.507 133.415 183.508 132.836V24.264C183.507 23.6851 183.276 23.1302 182.867 22.7208C182.458 22.3115 181.903 22.0811 181.324 22.08H104.084Z" fill="#EBEBEB"/>
<path d="M30.9117 156.77H20.5117V156.87H30.9117V156.77Z" fill="#EBEBEB"/>
<path d="M76.0716 155.684H58.0596V155.784H76.0716V155.684Z" fill="#EBEBEB"/>
<path d="M55.6275 160.484H31.3115V160.584H55.6275V160.484Z" fill="#EBEBEB"/>
<path d="M179.488 159.812H171.796V159.912H179.488V159.812Z" fill="#EBEBEB"/>
<path d="M168.232 159.812H146.116V159.912H168.232V159.812Z" fill="#EBEBEB"/>
<path d="M132.608 158.125H102.82V158.225H132.608V158.125Z" fill="#EBEBEB"/>
<path d="M105.948 109.805H89.1279V152.961H105.948V109.805Z" fill="#F0F0F0"/>
<path d="M28.9439 152.961H89.1279V109.805H28.9439L28.9439 152.961Z" fill="#F5F5F5"/>
<path d="M32.6318 148.754H42.6758V139.966H32.6318V148.754Z" fill="white"/>
<path d="M32.6318 136.746H42.6758V127.958H32.6318V136.746Z" fill="#EBEBEB"/>
<g style="mix-blend-mode:multiply" opacity="0.7">
<path d="M105.944 115.375H28.7637V117.107H105.944V115.375Z" fill="#E6E6E6"/>
</g>
<path d="M106.876 108.969H89.1279V115.957H106.876V108.969Z" fill="#F0F0F0"/>
<path d="M28.008 115.957L89.124 115.957V108.969H28.008V115.957Z" fill="#F5F5F5"/>
<path d="M99.572 95.7773H86.5V109.077H99.572V95.7773Z" fill="#F0F0F0"/>
<path d="M40.9801 109.07H86.4961V95.7703H40.9801V109.07Z" fill="#F5F5F5"/>
<g style="mix-blend-mode:multiply" opacity="0.7">
<path d="M99.5717 97.7812H40.8477V98.8572H99.5717V97.7812Z" fill="#E6E6E6"/>
</g>
<path d="M100.292 95.125H86.5V98.233H100.292V95.125Z" fill="#F0F0F0"/>
<path d="M40.264 98.2305H86.5V95.1225H40.264V98.2305Z" fill="#F5F5F5"/>
<path d="M114.964 152.961H127.76L127.76 88.2089H114.964V152.961Z" fill="#E6E6E6"/>
<path d="M117.704 152.959H114.964V148.367H120.576L117.704 152.959Z" fill="#F0F0F0"/>
<path d="M157.652 152.961H170.448V88.2089H157.652V152.961Z" fill="#E6E6E6"/>
<path d="M114.964 152.031H160.04V88.2073H114.964V152.031Z" fill="#F0F0F0"/>
<path d="M117.092 108.543H157.916V91.039H117.092V108.543Z" fill="#E6E6E6"/>
<path d="M140.184 99.4145C140.184 99.9453 140.027 100.464 139.732 100.906C139.437 101.347 139.018 101.691 138.528 101.894C138.037 102.097 137.497 102.15 136.977 102.047C136.456 101.943 135.978 101.688 135.603 101.312C135.227 100.937 134.972 100.459 134.868 99.9381C134.764 99.4175 134.818 98.8778 135.021 98.3874C135.224 97.8969 135.568 97.4777 136.009 97.1828C136.451 96.8879 136.97 96.7305 137.5 96.7305C137.853 96.7299 138.202 96.799 138.528 96.9337C138.854 97.0684 139.15 97.2661 139.399 97.5154C139.649 97.7648 139.846 98.0609 139.981 98.3867C140.116 98.7126 140.185 99.0619 140.184 99.4145Z" fill="#FAFAFA"/>
<path d="M157.3 152.959H160.04V148.367H154.428L157.3 152.959Z" fill="#F0F0F0"/>
<path d="M157.912 111.367H117.088V149.203H157.912V111.367Z" fill="#E6E6E6"/>
<path d="M152.276 119.692C153.758 119.692 154.96 118.491 154.96 117.008C154.96 115.526 153.758 114.324 152.276 114.324C150.793 114.324 149.592 115.526 149.592 117.008C149.592 118.491 150.793 119.692 152.276 119.692Z" fill="#FAFAFA"/>
<path d="M166.1 81.0053V28.6133L34.4836 28.6133V81.0053H166.1Z" fill="#E6E6E6"/>
<path d="M165.521 81.0014V28.6094L33.9045 28.6094V81.0014H165.521Z" fill="#F0F0F0"/>
<path d="M162.172 31.9609H37.252V77.6529H162.172V31.9609Z" fill="white"/>
<path d="M51.8158 51L47.4238 58.612H56.2118L51.8158 51Z" fill="#E6E6E6"/>
<path d="M74.6194 51.2148H67.4434V58.3908H74.6194V51.2148Z" fill="#E6E6E6"/>
<path d="M90.2479 50.2148L85.4199 53.7188L87.2639 59.3948H93.2279L95.0719 53.7188L90.2479 50.2148Z" fill="#E6E6E6"/>
<path d="M112 50.4141H106.924L104.384 54.8061L106.924 59.2021H112L114.536 54.8061L112 50.4141Z" fill="#E6E6E6"/>
<path d="M128.676 49.9805L124.708 51.8925L123.728 56.1885L126.472 59.6285H130.876L133.624 56.1885L132.644 51.8925L128.676 49.9805Z" fill="#E6E6E6"/>
<path d="M149.832 50.1172H145.948L143.2 52.8652V56.7492L145.948 59.4972H149.832L152.576 56.7492V52.8652L149.832 50.1172Z" fill="#E6E6E6"/>
<path d="M99.9994 171.025C142.832 171.025 177.555 168.997 177.555 166.497C177.555 163.996 142.832 161.969 99.9994 161.969C57.1664 161.969 22.4434 163.996 22.4434 166.497C22.4434 168.997 57.1664 171.025 99.9994 171.025Z" fill="#F5F5F5"/>
<path d="M71.764 51.8049H137.624C137.953 51.8006 138.28 51.865 138.583 51.9937C138.887 52.1225 139.16 52.313 139.385 52.5529C139.611 52.7929 139.784 53.0772 139.894 53.3878C140.004 53.6983 140.048 54.0284 140.024 54.3569L134.652 140.889C134.6 141.576 134.293 142.22 133.792 142.693C133.29 143.166 132.629 143.434 131.94 143.445H66.076C65.7472 143.446 65.4219 143.379 65.12 143.248C64.8182 143.118 64.5463 142.927 64.3213 142.688C64.0963 142.448 63.9229 142.165 63.8119 141.855C63.7009 141.546 63.6546 141.217 63.676 140.889L69.044 54.3569C69.0977 53.669 69.4065 53.0261 69.9096 52.554C70.4128 52.0819 71.0741 51.8147 71.764 51.8049Z" fill="#507BB9"/>
<path opacity="0.4" d="M71.764 51.8049H137.624C137.953 51.8006 138.28 51.865 138.583 51.9937C138.887 52.1225 139.16 52.313 139.385 52.5529C139.611 52.7929 139.784 53.0772 139.894 53.3878C140.004 53.6983 140.048 54.0284 140.024 54.3569L134.652 140.889C134.6 141.576 134.293 142.22 133.792 142.693C133.29 143.166 132.629 143.434 131.94 143.445H66.076C65.7472 143.446 65.4219 143.379 65.12 143.248C64.8182 143.118 64.5463 142.927 64.3213 142.688C64.0963 142.448 63.9229 142.165 63.8119 141.855C63.7009 141.546 63.6546 141.217 63.676 140.889L69.044 54.3569C69.0977 53.669 69.4065 53.0261 69.9096 52.554C70.4128 52.0819 71.0741 51.8147 71.764 51.8049Z" fill="black"/>
<path d="M70.2523 51.8049H136.112C136.442 51.8006 136.768 51.865 137.072 51.9937C137.375 52.1225 137.648 52.313 137.874 52.5529C138.099 52.7929 138.273 53.0772 138.383 53.3878C138.493 53.6983 138.537 54.0284 138.512 54.3569L133.14 140.889C133.088 141.577 132.781 142.221 132.278 142.694C131.776 143.167 131.114 143.435 130.424 143.445H64.5643C64.2355 143.446 63.9101 143.379 63.6083 143.248C63.3065 143.118 63.0346 142.927 62.8096 142.688C62.5845 142.448 62.4112 142.165 62.3001 141.855C62.1891 141.546 62.1429 141.217 62.1643 140.889L67.5323 54.3569C67.5851 53.6687 67.8936 53.0252 68.3969 52.5529C68.9003 52.0807 69.5621 51.8138 70.2523 51.8049Z" fill="#507BB9"/>
<path opacity="0.4" d="M65.7363 138.77L129.844 139.538L135.044 55.7305H70.8883L65.7363 138.77Z" fill="black"/>
<path d="M63.8643 137.923H128.8C132.376 105.159 133.476 87.4707 133.964 54.7227H69.0283C68.5403 87.4707 67.4443 105.159 63.8643 137.923Z" fill="white"/>
<path opacity="0.3" d="M126.197 77.4999H115.017C114.904 77.5012 114.792 77.4788 114.689 77.434C114.586 77.3892 114.493 77.323 114.417 77.2399C114.34 77.1577 114.28 77.0608 114.241 76.9549C114.203 76.849 114.186 76.7364 114.193 76.6239L114.885 65.4479C114.898 65.2381 114.99 65.0412 115.143 64.8971C115.296 64.753 115.499 64.6725 115.709 64.6719H126.909C127.021 64.6722 127.133 64.6955 127.236 64.7404C127.339 64.7852 127.432 64.8506 127.509 64.9326C127.586 65.0145 127.646 65.1114 127.684 65.2172C127.723 65.323 127.739 65.4355 127.733 65.5479L127.037 76.7279C127.033 76.834 127.008 76.9384 126.964 77.0349C126.92 77.1314 126.857 77.2181 126.779 77.2899C126.7 77.3618 126.609 77.4174 126.509 77.4534C126.409 77.4895 126.303 77.5053 126.197 77.4999ZM115.897 75.8519H125.421L126.001 66.3239H116.485L115.897 75.8519Z" fill="#507BB9"/>
<path opacity="0.3" d="M125.136 94.5273H113.96C113.848 94.5269 113.737 94.5037 113.634 94.459C113.53 94.4143 113.437 94.3491 113.36 94.2673C113.283 94.1855 113.223 94.0886 113.184 93.9826C113.146 93.8766 113.129 93.7638 113.136 93.6513L113.828 82.4713C113.842 82.2619 113.934 82.0654 114.087 81.922C114.24 81.7785 114.443 81.6989 114.652 81.6993H125.832C125.945 81.6979 126.057 81.7204 126.16 81.7652C126.264 81.81 126.356 81.8761 126.432 81.9593C126.509 82.0414 126.569 82.1384 126.608 82.2443C126.646 82.3502 126.663 82.4628 126.656 82.5753L125.96 93.7513C125.948 93.9614 125.856 94.1588 125.703 94.3031C125.549 94.4474 125.347 94.5276 125.136 94.5273ZM114.836 92.8753H124.36L124.952 83.3473H115.428L114.836 92.8753Z" fill="#507BB9"/>
<path opacity="0.3" d="M124.081 111.551H112.905C112.791 111.551 112.679 111.528 112.575 111.484C112.472 111.439 112.378 111.373 112.301 111.291C112.223 111.209 112.163 111.112 112.125 111.006C112.087 110.9 112.072 110.787 112.081 110.675L112.773 99.4987C112.786 99.2889 112.878 99.092 113.031 98.9479C113.184 98.8038 113.386 98.7233 113.597 98.7227H124.777C124.889 98.723 125 98.7462 125.103 98.7909C125.206 98.8356 125.299 98.9009 125.377 98.9827C125.453 99.0652 125.512 99.1622 125.551 99.268C125.589 99.3738 125.606 99.4862 125.601 99.5987L124.905 110.799C124.887 111.005 124.792 111.196 124.639 111.335C124.487 111.475 124.287 111.551 124.081 111.551ZM113.781 109.903H123.305L123.897 100.375H114.373L113.781 109.903Z" fill="#507BB9"/>
<path opacity="0.3" d="M123.025 128.578H111.849C111.736 128.578 111.624 128.554 111.52 128.51C111.417 128.465 111.323 128.4 111.245 128.318C111.167 128.237 111.107 128.14 111.069 128.034C111.031 127.927 111.016 127.814 111.025 127.702L111.717 116.522C111.731 116.313 111.824 116.117 111.977 115.974C112.13 115.831 112.331 115.751 112.541 115.75H123.721C123.834 115.749 123.945 115.771 124.049 115.816C124.152 115.861 124.245 115.927 124.321 116.01C124.398 116.092 124.458 116.189 124.496 116.295C124.535 116.401 124.551 116.514 124.545 116.626L123.849 127.802C123.836 128.012 123.743 128.209 123.59 128.353C123.437 128.497 123.235 128.577 123.025 128.578ZM112.725 126.926H122.249L122.841 117.398H113.317L112.725 126.926Z" fill="#507BB9"/>
<path opacity="0.3" d="M79.9522 69.6241H105.268C105.645 69.6182 106.006 69.4718 106.281 69.2136C106.555 68.9554 106.723 68.6039 106.752 68.2281C106.765 68.0485 106.741 67.868 106.681 67.6982C106.621 67.5284 106.526 67.373 106.403 67.2417C106.28 67.1105 106.13 67.0063 105.965 66.9358C105.799 66.8653 105.62 66.83 105.44 66.8321H80.1282C79.7508 66.8362 79.3887 66.982 79.1138 67.2406C78.8389 67.4992 78.6713 67.8517 78.6442 68.2281C78.6309 68.4074 78.6549 68.5875 78.7148 68.757C78.7747 68.9266 78.8691 69.0818 78.992 69.213C79.1149 69.3442 79.2637 69.4485 79.429 69.5192C79.5943 69.59 79.7724 69.6257 79.9522 69.6241Z" fill="#507BB9"/>
<path opacity="0.3" d="M84.4002 75.3429H104.9C105.277 75.3371 105.638 75.1907 105.913 74.9324C106.187 74.6742 106.355 74.3227 106.384 73.9469C106.398 73.7673 106.374 73.5868 106.315 73.4168C106.255 73.2468 106.161 73.091 106.038 72.9594C105.915 72.8277 105.766 72.7231 105.6 72.6521C105.435 72.5811 105.256 72.5453 105.076 72.5469H84.5842C84.2067 72.5529 83.8451 72.6999 83.5705 72.9589C83.2959 73.218 83.1281 73.5704 83.1002 73.9469C83.087 74.1255 83.1108 74.305 83.1702 74.474C83.2296 74.6429 83.3232 74.7978 83.4453 74.9289C83.5674 75.06 83.7152 75.1644 83.8795 75.2356C84.0439 75.3069 84.2211 75.3434 84.4002 75.3429Z" fill="#507BB9"/>
<path opacity="0.3" d="M78.7161 89.5743H104.032C104.212 89.5727 104.39 89.6084 104.555 89.6791C104.721 89.7499 104.869 89.8542 104.992 89.9854C105.115 90.1166 105.21 90.2718 105.269 90.4414C105.329 90.6109 105.353 90.791 105.34 90.9703C105.311 91.3461 105.143 91.6975 104.868 91.9558C104.594 92.214 104.233 92.3604 103.856 92.3663H78.5401C78.3603 92.3679 78.1821 92.3322 78.0169 92.2614C77.8516 92.1906 77.7028 92.0864 77.5799 91.9552C77.4569 91.824 77.3626 91.6687 77.3027 91.4992C77.2428 91.3297 77.2188 91.1496 77.2321 90.9703C77.2609 90.5945 77.4291 90.243 77.7036 89.9848C77.9782 89.7265 78.3392 89.5801 78.7161 89.5743Z" fill="#507BB9"/>
<path opacity="0.3" d="M83.8843 83.8556H104.4C104.58 83.8534 104.759 83.8887 104.925 83.9592C105.091 84.0297 105.24 84.1339 105.363 84.2652C105.487 84.3964 105.581 84.5519 105.641 84.7217C105.701 84.8915 105.726 85.0719 105.712 85.2516C105.684 85.6281 105.517 85.9805 105.242 86.2396C104.967 86.4986 104.606 86.6456 104.228 86.6516H83.7123C83.5319 86.6538 83.3529 86.6184 83.1869 86.5476C83.0208 86.4769 82.8713 86.3723 82.7479 86.2406C82.6245 86.1089 82.5299 85.953 82.47 85.7827C82.4102 85.6124 82.3864 85.4315 82.4003 85.2516C82.4292 84.8758 82.5974 84.5243 82.8719 84.2661C83.1464 84.0078 83.5075 83.8614 83.8843 83.8556Z" fill="#507BB9"/>
<path opacity="0.3" d="M77.8403 103.675H103.156C103.533 103.669 103.894 103.523 104.169 103.264C104.443 103.006 104.611 102.655 104.64 102.279C104.654 102.099 104.629 101.919 104.569 101.749C104.509 101.579 104.414 101.424 104.291 101.293C104.168 101.161 104.018 101.057 103.853 100.987C103.687 100.916 103.508 100.881 103.328 100.883H78.0003C77.6234 100.889 77.2624 101.035 76.9878 101.293C76.7133 101.552 76.5451 101.903 76.5163 102.279C76.5028 102.46 76.5273 102.641 76.5882 102.812C76.649 102.982 76.7448 103.138 76.8695 103.27C76.9941 103.401 77.1449 103.505 77.3121 103.575C77.4792 103.645 77.6592 103.679 77.8403 103.675Z" fill="#507BB9"/>
<path opacity="0.3" d="M92.6161 109.394H102.8C103.177 109.388 103.538 109.241 103.812 108.983C104.087 108.725 104.255 108.373 104.284 107.998C104.297 107.818 104.273 107.637 104.213 107.467C104.153 107.297 104.058 107.142 103.935 107.01C103.812 106.878 103.663 106.774 103.497 106.703C103.331 106.632 103.152 106.596 102.972 106.598H92.8C92.4228 106.605 92.0617 106.752 91.7873 107.011C91.5129 107.27 91.3449 107.622 91.316 107.998C91.3028 108.176 91.3267 108.356 91.386 108.525C91.4454 108.694 91.5391 108.849 91.6611 108.98C91.7832 109.111 91.931 109.215 92.0953 109.286C92.2597 109.358 92.4369 109.394 92.6161 109.394Z" fill="#507BB9"/>
<path opacity="0.3" d="M82.3009 109.394H87.6729C88.0498 109.388 88.4108 109.241 88.6853 108.983C88.9599 108.725 89.128 108.374 89.1569 107.998C89.1702 107.818 89.146 107.637 89.086 107.467C89.0259 107.297 88.9312 107.142 88.8079 107.01C88.6846 106.878 88.5354 106.774 88.3696 106.703C88.2039 106.632 88.0252 106.596 87.8449 106.598H82.4729C82.0957 106.605 81.7346 106.752 81.4602 107.011C81.1857 107.27 81.0177 107.622 80.9889 107.998C80.9756 108.177 80.9998 108.358 81.0599 108.528C81.12 108.697 81.2147 108.853 81.3381 108.984C81.4614 109.115 81.6107 109.22 81.7764 109.29C81.9422 109.361 82.1208 109.396 82.3009 109.394Z" fill="#507BB9"/>
<path opacity="0.3" d="M76.8003 120.702H102.116C102.493 120.696 102.854 120.55 103.129 120.292C103.403 120.034 103.571 119.682 103.6 119.306C103.614 119.126 103.589 118.946 103.529 118.776C103.469 118.606 103.375 118.45 103.251 118.319C103.128 118.187 102.979 118.082 102.813 118.011C102.647 117.941 102.469 117.905 102.288 117.906H76.9563C76.5788 117.912 76.2172 118.059 75.9426 118.318C75.668 118.577 75.5002 118.93 75.4723 119.306C75.4589 119.487 75.4835 119.669 75.5445 119.84C75.6056 120.011 75.7018 120.167 75.8269 120.299C75.952 120.43 76.1032 120.534 76.2709 120.604C76.4385 120.673 76.6189 120.707 76.8003 120.702Z" fill="#507BB9"/>
<path opacity="0.3" d="M81.2443 126.421H101.744C102.121 126.414 102.483 126.267 102.757 126.008C103.031 125.749 103.199 125.397 103.228 125.021C103.242 124.841 103.217 124.661 103.157 124.491C103.097 124.321 103.002 124.166 102.879 124.035C102.756 123.903 102.606 123.799 102.441 123.729C102.275 123.658 102.096 123.623 101.916 123.625H81.4163C81.0394 123.631 80.6783 123.777 80.4038 124.036C80.1293 124.294 79.9611 124.645 79.9323 125.021C79.919 125.201 79.9431 125.382 80.0032 125.552C80.0633 125.722 80.1579 125.877 80.2812 126.009C80.4045 126.14 80.5538 126.245 80.7195 126.316C80.8853 126.387 81.064 126.423 81.2443 126.421Z" fill="#507BB9"/>
<path d="M120.045 74.4395C119.879 74.4407 119.717 74.3904 119.581 74.2955L115.273 71.3555C115.108 71.2255 114.999 71.0379 114.967 70.8307C114.936 70.6234 114.984 70.4119 115.102 70.2388C115.221 70.0657 115.4 69.9439 115.605 69.898C115.809 69.8521 116.024 69.8855 116.205 69.9915L119.885 72.5075C121.229 70.8875 125.061 66.5075 128.249 65.0715C128.348 65.0274 128.454 65.0032 128.563 65.0003C128.671 64.9974 128.779 65.0159 128.88 65.0547C128.981 65.0935 129.074 65.1519 129.153 65.2265C129.231 65.3011 129.294 65.3905 129.339 65.4895C129.383 65.5885 129.407 65.6952 129.41 65.8036C129.413 65.912 129.394 66.0198 129.355 66.121C129.316 66.2223 129.258 66.3148 129.184 66.3935C129.109 66.4722 129.02 66.5354 128.921 66.5795C125.441 68.1275 120.741 74.0675 120.697 74.1275C120.618 74.2252 120.519 74.304 120.406 74.358C120.293 74.412 120.17 74.4399 120.045 74.4395Z" fill="#507BB9"/>
<path d="M118.04 91.1355C117.826 91.136 117.62 91.0544 117.464 90.9075L113.716 87.3075C113.557 87.1552 113.465 86.946 113.46 86.7259C113.455 86.5057 113.538 86.2926 113.69 86.1335C113.843 85.9744 114.052 85.8822 114.272 85.8773C114.492 85.8725 114.705 85.9552 114.864 86.1075L118.064 89.1835C119.644 87.7715 124.064 84.0115 127.408 83.0995C127.513 83.0709 127.623 83.0632 127.731 83.077C127.839 83.0907 127.943 83.1256 128.038 83.1796C128.132 83.2337 128.215 83.3058 128.282 83.3919C128.349 83.478 128.398 83.5764 128.426 83.6815C128.455 83.7865 128.463 83.8962 128.449 84.0042C128.435 84.1122 128.4 84.2165 128.346 84.311C128.292 84.4055 128.22 84.4885 128.134 84.5552C128.048 84.6218 127.949 84.6709 127.844 84.6995C124.196 85.6955 118.672 90.8715 118.616 90.9235C118.539 90.995 118.448 91.0505 118.349 91.0869C118.251 91.1233 118.146 91.1398 118.04 91.1355Z" fill="#507BB9"/>
<path opacity="0.4" d="M111.028 56.6891H112.228C112.55 56.6923 112.869 56.6321 113.167 56.512C113.465 56.3919 113.737 56.2142 113.966 55.9891C114.196 55.764 114.379 55.4959 114.505 55.2001C114.631 54.9043 114.697 54.5866 114.7 54.2651V52.0331C114.7 52.0007 114.694 51.9687 114.681 51.9388C114.669 51.9089 114.65 51.8818 114.627 51.8591C114.604 51.8364 114.577 51.8185 114.547 51.8065C114.517 51.7945 114.485 51.7886 114.452 51.7891H111.06C110.987 51.7901 110.918 51.8195 110.866 51.8711C110.815 51.9226 110.785 51.9922 110.784 52.0651L110.8 56.4451C110.8 56.5071 110.824 56.5669 110.866 56.6122C110.908 56.6575 110.966 56.685 111.028 56.6891Z" fill="black"/>
<path d="M92.6198 47.7547H113.044C113.336 47.7464 113.625 47.8029 113.893 47.9203C114.16 48.0376 114.398 48.2128 114.589 48.4332C114.781 48.6536 114.921 48.9138 114.999 49.1949C115.078 49.476 115.093 49.771 115.044 50.0587L114.432 54.6067C114.332 55.2353 114.017 55.8095 113.539 56.2301C113.061 56.6508 112.452 56.8915 111.816 56.9107H91.3838C91.092 56.919 90.802 56.8625 90.5348 56.7452C90.2675 56.6278 90.0296 56.4526 89.8383 56.2322C89.6469 56.0118 89.5069 55.7516 89.4283 55.4705C89.3497 55.1894 89.3345 54.8944 89.3838 54.6067L89.9998 50.0587C90.0993 49.4294 90.4156 48.8547 90.8941 48.434C91.3725 48.0133 91.9829 47.773 92.6198 47.7547Z" fill="#507BB9"/>
<path opacity="0.6" d="M92.6198 47.7547H113.044C113.336 47.7464 113.625 47.8029 113.893 47.9203C114.16 48.0376 114.398 48.2128 114.589 48.4332C114.781 48.6536 114.921 48.9138 114.999 49.1949C115.078 49.476 115.093 49.771 115.044 50.0587L114.432 54.6067C114.332 55.2353 114.017 55.8095 113.539 56.2301C113.061 56.6508 112.452 56.8915 111.816 56.9107H91.3838C91.092 56.919 90.802 56.8625 90.5348 56.7452C90.2675 56.6278 90.0296 56.4526 89.8383 56.2322C89.6469 56.0118 89.5069 55.7516 89.4283 55.4705C89.3497 55.1894 89.3345 54.8944 89.3838 54.6067L89.9998 50.0587C90.0993 49.4294 90.4156 48.8547 90.8941 48.434C91.3725 48.0133 91.9829 47.773 92.6198 47.7547Z" fill="white"/>
<path opacity="0.5" d="M112.516 49.9567H103.316C103.231 49.9636 103.145 49.9527 103.064 49.9248C102.983 49.8969 102.909 49.8525 102.846 49.7944C102.783 49.7363 102.733 49.6659 102.699 49.5875C102.664 49.509 102.646 49.4244 102.646 49.3387C102.646 49.2531 102.664 49.1684 102.699 49.09C102.733 49.0116 102.783 48.9411 102.846 48.8831C102.909 48.825 102.983 48.7806 103.064 48.7527C103.145 48.7248 103.231 48.7139 103.316 48.7208H112.516C112.672 48.7333 112.816 48.8038 112.922 48.9183C113.028 49.0328 113.086 49.1829 113.086 49.3387C113.086 49.4946 113.028 49.6447 112.922 49.7592C112.816 49.8737 112.672 49.9442 112.516 49.9567Z" fill="white"/>
<path opacity="0.5" d="M100.256 49.9567H99.2879C99.2026 49.9636 99.1168 49.9527 99.0358 49.9248C98.9549 49.8969 98.8806 49.8525 98.8177 49.7944C98.7548 49.7363 98.7046 49.6659 98.6702 49.5875C98.6359 49.509 98.6182 49.4244 98.6182 49.3387C98.6182 49.2531 98.6359 49.1684 98.6702 49.09C98.7046 49.0116 98.7548 48.9411 98.8177 48.8831C98.8806 48.825 98.9549 48.7806 99.0358 48.7527C99.1168 48.7248 99.2026 48.7139 99.2879 48.7208H100.256C100.341 48.7139 100.427 48.7248 100.508 48.7527C100.589 48.7806 100.663 48.825 100.726 48.8831C100.789 48.9411 100.839 49.0116 100.874 49.09C100.908 49.1684 100.926 49.2531 100.926 49.3387C100.926 49.4244 100.908 49.509 100.874 49.5875C100.839 49.6659 100.789 49.7363 100.726 49.7944C100.663 49.8525 100.589 49.8969 100.508 49.9248C100.427 49.9527 100.341 49.9636 100.256 49.9567Z" fill="white"/>
</svg>
