<?xml version="1.0" encoding="utf-8"?>
<!-- Generator: Adobe Illustrator 24.2.0, SVG Export Plug-In . SVG Version: 6.00 Build 0)  -->
<svg version="1.1" id="Layer_1" xmlns="http://www.w3.org/2000/svg" xmlns:xlink="http://www.w3.org/1999/xlink" x="0px" y="0px"
	 viewBox="0 0 40 40" style="enable-background:new 0 0 40 40;" xml:space="preserve">
<style type="text/css">
	.st0{clip-path:url(#SVGID_2_);}
	.st1{clip-path:url(#SVGID_4_);fill:#8E8E8E;}
	.st2{clip-path:url(#SVGID_4_);fill:none;stroke:#8E8E8E;stroke-width:0.3;}
	.st3{clip-path:url(#SVGID_4_);fill:none;stroke:#8E8E8E;}
	.st4{clip-path:url(#SVGID_4_);fill:#8F908F;}
	.st5{clip-path:url(#SVGID_4_);fill:none;stroke:#8F908F;stroke-miterlimit:10;}
	.st6{fill:none;stroke:#527CAA;stroke-width:2;}
	.st7{clip-path:url(#SVGID_6_);fill:none;stroke:#527CAA;stroke-width:1.036;stroke-miterlimit:10;}
	.st8{clip-path:url(#SVGID_6_);fill:none;stroke:#527CAA;stroke-width:1.3814;stroke-miterlimit:10;}
	.st9{fill:none;}
	.st10{clip-path:url(#SVGID_8_);fill:#8E8E8E;}
	.st11{fill:none;stroke:#8E8E8E;stroke-miterlimit:10;}
	.st12{fill:none;stroke:#8E8E8E;stroke-width:0.7856;stroke-miterlimit:10;}
	.st13{fill:none;stroke:#8E8E8E;stroke-width:0.8594;stroke-miterlimit:10;}
	.st14{fill:#222222;}
	.st15{fill:none;stroke:#527CAA;}
	.st16{fill:#527CAA;}
	.st17{fill:none;stroke:#222222;stroke-width:1.1142;stroke-miterlimit:10;}
	.st18{clip-path:url(#SVGID_10_);fill:#527CAA;}
	.st19{fill:none;stroke:#527CAA;stroke-width:0.9215;stroke-miterlimit:10;}
	.st20{fill:none;stroke:#527CAA;stroke-width:0.724;stroke-miterlimit:10;}
	.st21{fill:none;stroke:#527CAA;stroke-width:0.7919;stroke-miterlimit:10;}
</style>
<g>
	<path class="st15" d="M8,0.5h24c4.1,0,7.5,3.4,7.5,7.5v24c0,4.1-3.4,7.5-7.5,7.5H8c-4.1,0-7.5-3.4-7.5-7.5V8C0.5,3.9,3.9,0.5,8,0.5
		z"/>
	<g>
		<path class="st16" d="M11.2,34.3c-0.5-0.1-1-0.3-1.4-0.6c-0.6-0.5-1-1.1-1-1.9c0-1.6,0-3.2,0-4.8c0-4.8,0-9.7,0-14.5
			c0-1.4,0.8-2.5,2.2-2.9c0.3-0.1,0.5-0.1,0.8-0.1c0.8,0,1.6,0,2.5,0c0-0.3,0-0.7,0-1c0-0.5,0.2-0.7,0.6-0.7c0.6,0,1.2,0,1.9,0
			c0.1,0,0.3-0.1,0.3-0.2c0.6-1.5,2.2-2.1,3.8-1.8c1,0.2,1.7,0.8,2.1,1.7c0.1,0.2,0.2,0.2,0.3,0.2c0.6,0,1.3,0,1.9,0
			c0.5,0,0.6,0.2,0.6,0.7c0,0.3,0,0.6,0,1c0.3,0,0.7,0,1,0c0.7,0,1.3,0,2,0.1c1.3,0.1,2.4,1.3,2.5,2.7c0,0.1,0,0.2,0,0.4
			c0,6.3,0,12.6,0,18.9c0,1.6-1.1,2.7-2.4,2.9c0,0-0.1,0-0.1,0C22.9,34.3,17.1,34.3,11.2,34.3z M14.2,10.8c-1,0-1.9,0-2.8,0
			c0,0-0.1,0-0.1,0c-0.7,0.2-1.1,0.8-1.1,1.6c0,6.3,0,12.5,0,18.8c0,0.1,0,0.3,0,0.4c0,0.6,0.3,1.1,1,1.3c0.2,0.1,0.5,0.1,0.8,0.1
			c5.4,0,10.9,0,16.3,0c0.2,0,0.3,0,0.5,0c0.8-0.1,1.3-0.6,1.3-1.4c0-6.4,0-12.8,0-19.2c0-0.9-0.6-1.6-1.5-1.6c-0.8,0-1.6,0-2.4,0
			c-0.1,0-0.1,0-0.1,0c0,0,0,0.1,0,0.1c0,0.4,0,0.9,0,1.3c0,0.6-0.3,0.9-0.9,0.9c-3.3,0-6.6,0-9.9,0c-0.6,0-0.9-0.3-0.9-0.9
			C14.2,11.8,14.2,11.3,14.2,10.8z M24.4,9.1C24.4,9.1,24.4,9.1,24.4,9.1c-0.6,0-1.2,0-1.8,0c-0.4,0-0.6-0.2-0.8-0.5
			c0-0.1-0.1-0.2-0.1-0.3c-0.3-1-1.4-1.5-2.4-1.2c-0.6,0.2-1,0.6-1.2,1.2C17.9,9,17.8,9.1,17,9.1c-0.5,0-1,0-1.5,0
			c0,0.9,0,1.8,0,2.7c2.9,0,5.9,0,8.8,0C24.4,10.9,24.4,10,24.4,9.1z"/>
		<path class="st16" d="M16.4,16.9c1.3,0,2.5,0,3.8,0c0.5,0,0.8,0.3,0.8,0.7c0,0.3-0.2,0.6-0.5,0.7c-0.1,0-0.2,0-0.3,0
			c-2.5,0-5,0-7.5,0c-0.5,0-0.8-0.2-0.8-0.5c-0.1-0.5,0.2-0.9,0.8-0.9c1,0,2,0,3,0C15.8,16.9,16.1,16.9,16.4,16.9z"/>
		<path class="st16" d="M16.3,27.8c1.3,0,2.5,0,3.8,0c0.3,0,0.6,0.1,0.7,0.4c0.2,0.4,0,0.9-0.4,1c-0.1,0-0.3,0-0.4,0
			c-2.4,0-4.9,0-7.3,0c-0.1,0-0.3,0-0.4,0c-0.3-0.1-0.5-0.3-0.5-0.6c0-0.3,0.2-0.6,0.5-0.7c0.1,0,0.3-0.1,0.4-0.1
			C13.9,27.8,15.1,27.8,16.3,27.8z"/>
		<path class="st16" d="M16.3,23.8c-1.3,0-2.6,0-3.8,0c-0.5,0-0.8-0.3-0.8-0.8c0-0.3,0.2-0.5,0.5-0.6c0.1,0,0.3,0,0.4,0
			c2.4,0,4.9,0,7.3,0c0.1,0,0.2,0,0.4,0c0.3,0,0.6,0.3,0.6,0.7c0,0.3-0.2,0.6-0.5,0.7c-0.1,0-0.2,0-0.3,0
			C18.8,23.8,17.6,23.8,16.3,23.8z"/>
		<path class="st16" d="M24.7,17.5c0.7-0.7,1.4-1.3,2.1-2c0.3-0.3,0.7-0.4,1-0.1c0.3,0.2,0.4,0.6,0.1,0.9c-0.1,0.1-0.1,0.1-0.2,0.2
			c-0.8,0.8-1.6,1.5-2.4,2.3c-0.5,0.5-0.8,0.5-1.2,0c-0.4-0.4-0.8-0.8-1.2-1.2c-0.1-0.2-0.3-0.4-0.3-0.6c0-0.5,0.6-0.8,1-0.5
			c0.1,0.1,0.2,0.1,0.3,0.2C24.1,16.9,24.4,17.2,24.7,17.5C24.6,17.4,24.6,17.5,24.7,17.5z"/>
		<path class="st16" d="M24.7,22.9c0.1,0,0.1-0.1,0.2-0.2c0.6-0.6,1.2-1.2,1.8-1.8c0.2-0.2,0.5-0.3,0.8-0.2c0.5,0.2,0.6,0.7,0.2,1.1
			c0,0.1-0.1,0.1-0.2,0.2c-0.8,0.8-1.6,1.5-2.4,2.3c-0.4,0.4-0.8,0.4-1.2,0c-0.4-0.4-0.8-0.9-1.2-1.3c-0.2-0.2-0.3-0.5-0.2-0.8
			c0.1-0.2,0.3-0.4,0.5-0.4c0.3,0,0.5,0.1,0.7,0.3C24.1,22.4,24.4,22.6,24.7,22.9z"/>
		<path class="st16" d="M24.7,28.4c0.7-0.6,1.4-1.3,2-1.9c0.4-0.4,0.9-0.3,1.1,0.1c0.2,0.2,0.2,0.5,0,0.7c-0.1,0.1-0.1,0.1-0.2,0.2
			c-0.8,0.8-1.6,1.5-2.4,2.3c-0.5,0.4-0.8,0.4-1.2,0c-0.4-0.4-0.8-0.8-1.2-1.2c-0.1-0.2-0.2-0.4-0.3-0.6c0-0.3,0.1-0.5,0.3-0.6
			c0.2-0.1,0.5-0.1,0.7,0c0.1,0.1,0.2,0.2,0.3,0.2C24.2,27.9,24.4,28.1,24.7,28.4z"/>
	</g>
</g>
</svg>
