<svg width="40" height="40" viewBox="0 0 40 40" fill="none" xmlns="http://www.w3.org/2000/svg">
<rect x="0.5" y="0.5" width="39" height="39" rx="7.5" stroke="#527BA9"/>
<path d="M10.6667 13.334H22.6667C23.3739 13.334 24.0522 13.6149 24.5523 14.115C25.0524 14.6151 25.3333 15.2934 25.3333 16.0007V19.334L30.6667 14.0007V27.334L25.3333 22.0007V25.334C25.3333 26.0412 25.0524 26.7195 24.5523 27.2196C24.0522 27.7197 23.3739 28.0007 22.6667 28.0007H10.6667C9.95942 28.0007 9.28115 27.7197 8.78105 27.2196C8.28095 26.7195 8 26.0412 8 25.334V16.0007C8 15.2934 8.28095 14.6151 8.78105 14.115C9.28115 13.6149 9.95942 13.334 10.6667 13.334ZM10.6667 14.6673C10.313 14.6673 9.97391 14.8078 9.72386 15.0578C9.47381 15.3079 9.33333 15.647 9.33333 16.0007V25.334C9.33333 25.6876 9.47381 26.0267 9.72386 26.2768C9.97391 26.5268 10.313 26.6673 10.6667 26.6673H22.6667C23.0203 26.6673 23.3594 26.5268 23.6095 26.2768C23.8595 26.0267 24 25.6876 24 25.334V16.0007C24 15.647 23.8595 15.3079 23.6095 15.0578C23.3594 14.8078 23.0203 14.6673 22.6667 14.6673H10.6667ZM29.3333 17.2193L25.8853 20.6673L29.3333 24.1153V17.2193Z" fill="#527BA9"/>
</svg>
