<svg width="40" height="40" viewBox="0 0 40 40" fill="none" xmlns="http://www.w3.org/2000/svg">
<rect x="0.5" y="0.5" width="39" height="39" rx="7.5" stroke="#527BA9"/>
<path d="M19.3337 14.6667C20.925 14.6667 22.4511 15.2988 23.5763 16.424C24.7015 17.5492 25.3337 19.0754 25.3337 20.6667C25.3337 22.258 24.7015 23.7841 23.5763 24.9093C22.4511 26.0345 20.925 26.6667 19.3337 26.6667C17.7424 26.6667 16.2162 26.0345 15.091 24.9093C13.9658 23.7841 13.3337 22.258 13.3337 20.6667C13.3337 19.0754 13.9658 17.5492 15.091 16.424C16.2162 15.2988 17.7424 14.6667 19.3337 14.6667ZM19.3337 16C18.096 16 16.909 16.4917 16.0338 17.3668C15.1587 18.242 14.667 19.429 14.667 20.6667C14.667 21.9043 15.1587 23.0913 16.0338 23.9665C16.909 24.8417 18.096 25.3333 19.3337 25.3333C20.5713 25.3333 21.7583 24.8417 22.6335 23.9665C23.5087 23.0913 24.0003 21.9043 24.0003 20.6667C24.0003 19.429 23.5087 18.242 22.6335 17.3668C21.7583 16.4917 20.5713 16 19.3337 16ZM10.667 10.6667H13.3337L16.0003 8H22.667L25.3337 10.6667H28.0003C29.0612 10.6667 30.0786 11.0881 30.8288 11.8382C31.5789 12.5884 32.0003 13.6058 32.0003 14.6667V26.6667C32.0003 27.7275 31.5789 28.7449 30.8288 29.4951C30.0786 30.2452 29.0612 30.6667 28.0003 30.6667H10.667C9.60613 30.6667 8.58871 30.2452 7.83857 29.4951C7.08842 28.7449 6.66699 27.7275 6.66699 26.6667V14.6667C6.66699 13.6058 7.08842 12.5884 7.83857 11.8382C8.58871 11.0881 9.60613 10.6667 10.667 10.6667ZM16.5523 9.33333L13.8857 12H10.667C9.95975 12 9.28147 12.281 8.78137 12.781C8.28128 13.2811 8.00033 13.9594 8.00033 14.6667V26.6667C8.00033 27.3739 8.28128 28.0522 8.78137 28.5523C9.28147 29.0524 9.95975 29.3333 10.667 29.3333H28.0003C28.7076 29.3333 29.3858 29.0524 29.8859 28.5523C30.386 28.0522 30.667 27.3739 30.667 26.6667V14.6667C30.667 13.9594 30.386 13.2811 29.8859 12.781C29.3858 12.281 28.7076 12 28.0003 12H24.7817L22.115 9.33333H16.5523Z" fill="#527BA9"/>
</svg>
