<svg width="32" height="32" viewBox="0 0 32 32" fill="none" xmlns="http://www.w3.org/2000/svg">
<rect x="0.5" y="0.5" width="31" height="31" rx="7.5" stroke="#527BA9"/>
<path d="M16.0186 6C21.5309 6 26 10.4691 26 15.9814C26 21.4937 21.5309 25.9628 16.0186 25.9628C14.3513 25.9628 12.7421 25.5531 11.3056 24.7824L7.3964 25.9567C7.20873 26.013 7.00934 26.0174 6.81939 25.9694C6.62943 25.9215 6.45601 25.823 6.31752 25.6844C6.17904 25.5458 6.08066 25.3723 6.03283 25.1823C5.985 24.9924 5.98951 24.793 6.04587 24.6053L7.2202 20.697C6.44157 19.2473 6.03507 17.627 6.03719 15.9814C6.03719 10.4691 10.5063 6 16.0186 6ZM16.0186 7.30192C11.2249 7.30192 7.33911 11.1877 7.33911 15.9814C7.33911 17.5177 7.73837 18.9949 8.48654 20.2977L8.62541 20.5407L7.40768 24.5941L11.4627 23.3763L11.7058 23.5152C13.0077 24.2616 14.4832 24.6609 16.0186 24.6609C20.8123 24.6609 24.6981 20.7751 24.6981 15.9814C24.6981 11.1877 20.8123 7.30192 16.0186 7.30192ZM12.7638 17.2833H16.6678C16.8328 17.2834 16.9915 17.346 17.112 17.4586C17.2325 17.5712 17.3058 17.7254 17.3171 17.8899C17.3283 18.0545 17.2767 18.2171 17.1726 18.3451C17.0685 18.473 16.9197 18.5567 16.7564 18.5792L16.6678 18.5852H12.7638C12.5989 18.5852 12.4401 18.5225 12.3196 18.4099C12.1991 18.2974 12.1258 18.1432 12.1145 17.9787C12.1033 17.8141 12.1549 17.6514 12.259 17.5235C12.3631 17.3955 12.5119 17.3119 12.6753 17.2894L12.7638 17.2833H16.6678H12.7638ZM12.7638 13.3776H19.2769C19.4418 13.3776 19.6006 13.4403 19.7211 13.5529C19.8416 13.6655 19.9149 13.8196 19.9261 13.9842C19.9374 14.1487 19.8857 14.3114 19.7816 14.4393C19.6776 14.5673 19.5288 14.6509 19.3654 14.6734L19.2769 14.6795H12.7638C12.5989 14.6794 12.4401 14.6168 12.3196 14.5042C12.1991 14.3916 12.1258 14.2374 12.1145 14.0729C12.1033 13.9083 12.1549 13.7457 12.259 13.6177C12.3631 13.4898 12.5119 13.4061 12.6753 13.3836L12.7638 13.3776H19.2769H12.7638Z" fill="#527BA9"/>
</svg>
