<svg width="200" height="200" viewBox="0 0 200 200" fill="none" xmlns="http://www.w3.org/2000/svg">
<path d="M31.9996 169.541C-3.36444 151.801 -3.36444 123.041 31.9996 105.301C67.3636 87.5611 124.672 87.5611 160.024 105.301C195.376 123.041 195.376 151.801 160.024 169.541C124.672 187.281 67.3436 187.281 31.9996 169.541Z" fill="#F5F5F5"/>
<path d="M97.3044 137.719C120.48 126.912 136.996 113.283 134.195 107.276C131.395 101.27 110.337 105.161 87.1616 115.968C63.9864 126.775 47.4698 140.404 50.2706 146.411C53.0715 152.417 74.1292 148.526 97.3044 137.719Z" fill="#E6E6E6"/>
<path d="M100.835 142.178C103.487 143.706 103.487 146.178 100.835 147.714C98.1831 149.25 93.8911 149.246 91.2351 147.714C88.5791 146.182 88.5871 143.714 91.2351 142.178C93.8831 140.642 98.1871 140.646 100.835 142.178Z" fill="#E6E6E6"/>
<path d="M62.6792 68.6502V75.1182L78.1833 66.1662V75.1182L91.5352 67.4062V60.9382L84.8592 64.7942V62.3102L115.867 44.4102V46.8942L109.187 50.7462L109.191 66.1662L115.867 62.3102V64.7942L109.187 68.6502L109.191 76.3582L107.039 77.5982V51.9902L93.6873 59.6982V68.6502L76.0313 78.8422V69.8902L62.6792 77.5982V137.774L76.0313 130.062V112.162L83.7833 107.686V101.218L70.4313 108.926V125.586L68.2792 126.83V99.9782L70.4313 98.7342V106.446L85.9352 97.4942V108.926L78.1833 113.402V128.822L84.8592 124.966V127.45L60.5312 141.498V67.4102L84.8592 53.3622V55.8462L62.6792 68.6502Z" fill="#E0E0E0"/>
<path d="M124.691 104.451L99.2873 119.119V110.171L84.8593 118.499V116.019L91.5353 112.163V87.7953L76.0313 96.7433V87.7953L68.2793 92.2673V82.0753L70.4313 80.8353V88.5433L99.2873 71.8833V64.1753L101.439 62.9353V88.5433L114.791 80.8353V73.1273L116.939 71.8833V99.9793L108.115 105.075V102.591L114.791 98.7353V83.3193L99.2873 92.2673V74.3673L78.1833 86.5513V93.0193L93.6873 84.0713V110.923L99.2873 107.687V98.7353L108.115 93.6393V96.1233L101.439 99.9793V115.395L122.543 103.211V51.9913L115.867 55.8433V53.3633L122.543 49.5073V34.0873L100.363 46.8953V44.4113L124.691 30.3633V104.451Z" fill="#E0E0E0"/>
<path d="M85.8847 53.7215L61.5527 67.7695V141.858L64.4007 143.506L88.7287 129.458V126.974L85.8767 125.326L82.0527 127.534V115.41L89.8047 110.934V99.5015L86.9527 97.8535L74.3087 105.158V100.758L71.4567 99.1095L69.3047 100.354V127.198L72.1607 128.846L74.3087 127.602V110.934L84.8007 104.874V108.046L77.0487 112.522V130.422L66.5567 136.486V79.5975L77.0567 73.5375V79.1975L79.9127 80.8455L97.5647 70.6535V61.7055L108.065 55.6455V77.9575L110.917 79.6055L113.069 78.3655V70.6575L119.745 66.7975V64.3175L116.889 62.6695L113.069 64.8775V52.7535L119.745 48.9015V46.4175L116.889 44.7695L85.8847 62.6695V65.1535L88.7367 66.8015L92.5607 64.5935V67.7655L82.0607 73.8295V68.1735L79.2007 66.5255L66.5567 73.8295V70.6575L88.7367 57.8575V55.3775L85.8847 53.7215Z" fill="#507BB9"/>
<path d="M128.573 32.3707L125.717 30.7227L101.389 44.7707V47.2547L104.241 48.9027L123.569 37.7427V49.8667L116.889 53.7227V56.2027L119.745 57.8507L123.569 55.6467V103.571L105.317 114.107V101.999L112.001 98.1307V95.6467L109.141 93.9987L100.313 99.0947V108.047L97.5647 109.647V86.0867L94.7127 84.4387L82.0607 91.7427V88.5587L100.313 78.0227V92.6267L103.165 94.2747L115.817 86.9707V99.0947L109.141 102.951V105.435L111.993 107.083L120.821 101.999V73.8907L117.965 72.2427L115.817 73.4867V81.1987L105.317 87.2587V64.9387L102.461 63.2947L100.313 64.5347V72.2427L74.3127 87.2547V82.8547L71.4567 81.1987L69.3047 82.4387V92.6307L72.1607 94.2787L77.0567 91.4507V97.1067L79.9127 98.7547L92.5607 91.4507V112.527L85.8847 116.399V118.879L88.7367 120.527L100.313 113.847V119.479L103.165 121.127L128.573 106.459V32.3707Z" fill="#507BB9"/>
<g opacity="0.1">
<path opacity="0.1" d="M88.7367 55.3707L85.8847 53.7227L61.5527 67.7707L64.4087 69.4147L88.7367 55.3707Z" fill="black"/>
<path opacity="0.1" d="M104.241 46.4187L101.389 44.7707L125.717 30.7227L128.573 32.3707L104.241 46.4187Z" fill="black"/>
<path opacity="0.1" d="M82.0606 68.1753L79.2086 66.5273L66.5566 73.8313V77.1273L82.0606 68.1753Z" fill="black"/>
<path opacity="0.1" d="M92.5605 67.7656L95.4125 69.4136L82.0605 77.1256V73.8296L92.5605 67.7656Z" fill="black"/>
<path opacity="0.1" d="M119.745 46.4175L116.889 44.7695L85.8848 62.6735L88.7368 64.3175L119.745 46.4175Z" fill="black"/>
<path opacity="0.1" d="M119.745 55.3712L126.421 51.5152L123.569 49.8672L116.889 53.7232L119.745 55.3712Z" fill="black"/>
<path opacity="0.1" d="M119.744 64.3199L116.888 62.6719L113.08 64.8599L113.068 68.1759L119.744 64.3199Z" fill="black"/>
<path opacity="0.1" d="M103.164 66.181L100.312 64.533L102.46 63.293L105.316 64.937L103.164 66.181Z" fill="black"/>
<path opacity="0.1" d="M100.313 72.2422L74.3086 87.2542V90.5502L103.165 73.8902L100.313 72.2422Z" fill="black"/>
<path opacity="0.1" d="M74.3087 82.8433L72.1607 84.0833L69.3047 82.4353L71.4567 81.1953L74.3087 82.8433Z" fill="black"/>
<path opacity="0.1" d="M72.1607 101.986L74.3087 100.742L71.4567 99.0938L69.3047 100.338L72.1607 101.986Z" fill="black"/>
<path opacity="0.1" d="M79.9126 132.07L77.0566 130.422L66.5566 136.486V139.778L79.9126 132.07Z" fill="black"/>
<path opacity="0.1" d="M88.7365 126.976L85.8846 125.328L82.0605 127.536V130.832L88.7365 126.976Z" fill="black"/>
<path opacity="0.1" d="M84.8086 108.047L87.6646 109.695L79.9126 114.171L77.0566 112.523L84.8086 108.047Z" fill="black"/>
<path opacity="0.1" d="M89.8126 99.5035L74.3086 108.455V105.159L86.9606 97.8555L89.8126 99.5035Z" fill="black"/>
<path opacity="0.1" d="M82.0605 95.0258L97.5646 86.0738L94.7126 84.4258L82.0605 91.7298V95.0258Z" fill="black"/>
<path opacity="0.1" d="M85.8848 116.375L92.5608 112.523L95.4128 114.171L88.7368 118.023L85.8848 116.375Z" fill="black"/>
<path opacity="0.1" d="M100.312 108.047L103.164 109.695L97.5645 112.927V109.631L100.312 108.047Z" fill="black"/>
<path opacity="0.1" d="M100.312 99.096L109.141 94L111.993 95.648L103.165 100.744L100.312 99.096Z" fill="black"/>
<path opacity="0.1" d="M105.316 117.402L126.42 105.218L123.568 103.57L105.316 114.106V117.402Z" fill="black"/>
<path opacity="0.1" d="M118.669 100.742L111.993 104.598L109.141 102.95L115.817 99.0938L118.669 100.742Z" fill="black"/>
<path opacity="0.1" d="M118.668 82.8433L105.316 90.5513V87.2553L115.816 81.1953L118.668 82.8433Z" fill="black"/>
</g>
<g opacity="0.2">
<path opacity="0.2" d="M64.4087 143.502V69.4135L61.5527 67.7695V141.858L64.4087 143.502Z" fill="black"/>
<path opacity="0.2" d="M104.241 48.9015V46.4175L101.389 44.7695V47.2535L104.241 48.9015Z" fill="black"/>
<path opacity="0.2" d="M95.4126 69.4133V62.9453L92.5605 64.5933V67.7653L95.4126 69.4133Z" fill="black"/>
<path opacity="0.2" d="M88.7368 66.8038V64.3198L85.8848 62.6758V65.1558L88.7368 66.8038Z" fill="black"/>
<path opacity="0.2" d="M126.42 51.5138L123.568 49.8658V37.7418L126.42 36.0938V51.5138Z" fill="black"/>
<path opacity="0.2" d="M119.745 57.8507V55.3707L116.889 53.7227V56.2027L119.745 57.8507Z" fill="black"/>
<path opacity="0.2" d="M110.916 79.6041L108.064 77.9601V55.6441L110.916 53.9961V79.6041Z" fill="black"/>
<path opacity="0.2" d="M103.164 73.8912V66.1832L100.312 64.5352V72.2432L103.164 73.8912Z" fill="black"/>
<path opacity="0.2" d="M72.1607 94.2736V84.0816L69.3047 82.4336V92.6256L72.1607 94.2736Z" fill="black"/>
<path opacity="0.2" d="M103.164 76.375L100.312 78.023V92.627L103.164 94.275V76.375Z" fill="black"/>
<path opacity="0.2" d="M79.9126 80.8504V71.8984L77.0566 73.5464V79.2024L79.9126 80.8504Z" fill="black"/>
<path opacity="0.2" d="M72.1607 128.84V101.988L69.3047 100.34V127.192L72.1607 128.84Z" fill="black"/>
<path opacity="0.2" d="M79.9126 132.071V114.171L77.0566 112.523V130.423L79.9126 132.071Z" fill="black"/>
<path opacity="0.2" d="M87.6646 109.695V103.227L84.8086 104.875V108.047L87.6646 109.695Z" fill="black"/>
<path opacity="0.2" d="M79.9126 98.7489V89.7969L77.0566 91.4449V97.1009L79.9126 98.7489Z" fill="black"/>
<path opacity="0.2" d="M92.5605 91.4449L95.4126 89.7969V114.169L92.5605 112.521V91.4449Z" fill="black"/>
<path opacity="0.2" d="M88.7368 120.507L85.8848 118.859V116.375L88.7368 118.023V120.507Z" fill="black"/>
<path opacity="0.2" d="M103.164 109.694V100.742L100.312 99.0938V108.046L103.164 109.694Z" fill="black"/>
<path opacity="0.2" d="M103.164 121.124V112.176L100.312 113.824V119.476L103.164 121.124Z" fill="black"/>
<path opacity="0.2" d="M126.42 105.216V53.9961L123.568 55.6441V103.568L126.42 105.216Z" fill="black"/>
<path opacity="0.2" d="M111.993 107.081V104.597L109.141 102.949V105.433L111.993 107.081Z" fill="black"/>
<path opacity="0.2" d="M118.668 100.74V85.3203L115.816 86.9723V99.0923L118.668 100.74Z" fill="black"/>
<path opacity="0.2" d="M118.668 82.8404V75.1324L115.816 73.4844V81.1924L118.668 82.8404Z" fill="black"/>
</g>
<path d="M66.5562 70.658V77.126L82.0602 68.174V77.126L95.4122 69.414V62.946L88.7362 66.802V64.318L119.744 46.418V48.902L113.068 52.754V68.174L119.744 64.318V66.802L113.068 70.658V78.366L110.916 79.606V53.998L97.5642 61.706V70.658L79.9122 80.85V71.898L66.5562 79.606V139.778L79.9122 132.07V114.17L87.6642 109.694V103.226L74.3082 110.934V127.594L72.1602 128.838V101.986L74.3082 100.742V108.454L89.8122 99.502V110.934L82.0602 115.41V130.83L88.7362 126.974V129.458L64.4082 143.502V69.414L88.7362 55.37V57.85L66.5562 70.658Z" fill="#507BB9"/>
<path d="M128.572 106.459L103.164 121.127V112.179L88.7362 120.507V118.023L95.4122 114.171V89.7991L79.9122 98.7511V89.7991L72.1602 94.2751V84.0831L74.3082 82.8431V90.5511L103.164 73.8911V66.1831L105.316 64.9391V90.5511L118.668 82.8431V75.1351L120.82 73.8911V101.983L111.992 107.083V104.599L118.668 100.743V85.3231L103.164 94.2751V76.3751L82.0602 88.5591V95.0271L97.5642 86.0751V112.927L103.164 109.695V100.743L111.992 95.6471V98.1311L105.316 101.987V117.403L126.42 105.219V53.9991L119.744 57.8511V55.3711L126.42 51.5151V36.0951L104.24 48.9031V46.4191L128.572 32.3711V106.459Z" fill="#507BB9"/>
<path d="M95.0091 126.398C94.8839 126.398 94.7639 126.348 94.6754 126.259C94.5868 126.171 94.5371 126.051 94.5371 125.926V123.57C94.5371 123.508 94.5493 123.446 94.573 123.389C94.5968 123.332 94.6315 123.28 94.6754 123.236C94.7192 123.192 94.7712 123.157 94.8285 123.134C94.8858 123.11 94.9471 123.098 95.0091 123.098C95.0709 123.098 95.1321 123.11 95.1891 123.134C95.2462 123.157 95.298 123.192 95.3415 123.236C95.385 123.28 95.4194 123.332 95.4426 123.389C95.4659 123.447 95.4776 123.508 95.4771 123.57V125.926C95.4776 125.987 95.4659 126.049 95.4426 126.106C95.4194 126.163 95.385 126.215 95.3415 126.259C95.298 126.303 95.2462 126.338 95.1891 126.362C95.1321 126.385 95.0709 126.398 95.0091 126.398Z" fill="#455A64"/>
<path d="M95.0088 121.323C94.8836 121.323 94.7635 121.273 94.675 121.184C94.5865 121.096 94.5368 120.976 94.5368 120.851V119.311L93.2008 120.083C93.0925 120.145 92.9639 120.162 92.8432 120.13C92.7225 120.098 92.6195 120.019 92.5568 119.911C92.5253 119.857 92.5048 119.798 92.4965 119.737C92.4881 119.675 92.492 119.613 92.508 119.553C92.524 119.493 92.5518 119.437 92.5897 119.388C92.6276 119.338 92.6749 119.297 92.7288 119.267L94.7688 118.087C94.8399 118.046 94.9205 118.024 95.0026 118.023C95.0847 118.023 95.1655 118.044 95.237 118.084C95.3085 118.125 95.3682 118.183 95.4103 118.254C95.4523 118.324 95.4752 118.405 95.4768 118.487V120.843C95.4784 120.905 95.4674 120.967 95.4446 121.025C95.4218 121.084 95.3876 121.137 95.344 121.181C95.3004 121.226 95.2482 121.262 95.1907 121.286C95.1331 121.31 95.0712 121.323 95.0088 121.323Z" fill="#455A64"/>
<path d="M88.0017 123.017C87.9202 123.016 87.8403 122.994 87.77 122.953C87.6998 122.911 87.6417 122.852 87.6017 122.781C87.5703 122.728 87.5498 122.668 87.5414 122.607C87.533 122.546 87.537 122.483 87.553 122.423C87.569 122.363 87.5967 122.307 87.6346 122.258C87.6725 122.209 87.7198 122.168 87.7737 122.137L90.2617 120.701C90.3654 120.663 90.4793 120.662 90.5835 120.699C90.6877 120.736 90.7755 120.809 90.8317 120.904C90.8879 120.999 90.9089 121.111 90.891 121.22C90.873 121.329 90.8174 121.429 90.7337 121.501L88.2417 122.937C88.1712 122.987 88.0878 123.015 88.0017 123.017Z" fill="#455A64"/>
<path d="M83.4622 125.637C83.3795 125.635 83.2985 125.613 83.2262 125.573C83.1564 125.531 83.0985 125.473 83.0578 125.403C83.0172 125.333 82.9953 125.254 82.9942 125.173V122.801C82.9882 122.735 82.9958 122.669 83.0167 122.607C83.0376 122.545 83.0712 122.488 83.1154 122.439C83.1597 122.391 83.2135 122.352 83.2736 122.325C83.3336 122.299 83.3985 122.285 83.4642 122.285C83.5298 122.285 83.5948 122.299 83.6548 122.325C83.7149 122.352 83.7687 122.391 83.8129 122.439C83.8572 122.488 83.8908 122.545 83.9117 122.607C83.9326 122.669 83.9402 122.735 83.9342 122.801V124.341L85.2702 123.569C85.3237 123.538 85.3828 123.518 85.444 123.51C85.5052 123.503 85.5673 123.507 85.6268 123.523C85.6863 123.54 85.7419 123.568 85.7906 123.606C85.8392 123.644 85.8798 123.691 85.9102 123.745C85.9415 123.798 85.962 123.857 85.9703 123.918C85.9786 123.979 85.9746 124.041 85.9586 124.101C85.9426 124.16 85.9148 124.216 85.877 124.265C85.8391 124.314 85.792 124.354 85.7382 124.385L83.6982 125.565C83.6271 125.609 83.5458 125.633 83.4622 125.637Z" fill="#455A64"/>
<path d="M83.4602 118.95C83.3361 118.95 83.217 118.901 83.1293 118.813C83.0415 118.725 82.9922 118.606 82.9922 118.482V116.126C82.9933 116.045 83.0152 115.966 83.0558 115.896C83.0965 115.826 83.1544 115.767 83.2242 115.726L85.2682 114.546C85.3716 114.51 85.4845 114.511 85.5874 114.548C85.6903 114.586 85.7769 114.659 85.8322 114.753C85.8876 114.848 85.9083 114.959 85.8908 115.067C85.8732 115.175 85.8186 115.274 85.7362 115.346L83.9322 116.398V118.482C83.9322 118.544 83.9199 118.605 83.8962 118.662C83.8724 118.719 83.8376 118.771 83.7937 118.815C83.7498 118.858 83.6978 118.893 83.6405 118.916C83.5833 118.939 83.522 118.951 83.4602 118.95Z" fill="#455A64"/>
<path d="M88.8203 113.503C88.7166 113.503 88.6159 113.469 88.5338 113.406C88.4516 113.342 88.3926 113.254 88.3657 113.154C88.3389 113.054 88.3457 112.947 88.3852 112.852C88.4247 112.756 88.4947 112.676 88.5843 112.623L90.4003 111.599V109.515C90.3943 109.45 90.4019 109.384 90.4228 109.322C90.4437 109.26 90.4773 109.202 90.5215 109.154C90.5658 109.105 90.6196 109.067 90.6797 109.04C90.7397 109.014 90.8046 109 90.8703 109C90.9359 109 91.0009 109.014 91.0609 109.04C91.121 109.067 91.1748 109.105 91.2191 109.154C91.2633 109.202 91.2969 109.26 91.3178 109.322C91.3387 109.384 91.3463 109.45 91.3403 109.515V111.871C91.3388 111.953 91.3162 112.032 91.2749 112.102C91.2335 112.173 91.1748 112.231 91.1043 112.271L89.0643 113.447C88.9898 113.488 88.9053 113.508 88.8203 113.503Z" fill="#455A64"/>
<path d="M90.8606 105.601C90.7988 105.601 90.7376 105.588 90.6806 105.565C90.6236 105.541 90.5718 105.506 90.5283 105.462C90.4848 105.418 90.4504 105.366 90.4271 105.309C90.4038 105.252 90.3921 105.19 90.3926 105.129V100.801C90.3866 100.735 90.3943 100.669 90.4151 100.607C90.436 100.545 90.4696 100.488 90.5139 100.439C90.5581 100.391 90.612 100.352 90.672 100.325C90.7321 100.299 90.797 100.285 90.8626 100.285C90.9283 100.285 90.9932 100.299 91.0532 100.325C91.1133 100.352 91.1672 100.391 91.2114 100.439C91.2556 100.488 91.2892 100.545 91.3101 100.607C91.331 100.669 91.3387 100.735 91.3326 100.801V105.157C91.3255 105.277 91.2726 105.39 91.1849 105.472C91.0971 105.555 90.9811 105.601 90.8606 105.601Z" fill="#455A64"/>
<path d="M90.8599 96.9042C90.7358 96.9042 90.6167 96.8549 90.529 96.7672C90.4412 96.6794 90.3919 96.5604 90.3919 96.4362V94.8962L89.0559 95.6642C89.0036 95.7094 88.942 95.7425 88.8755 95.7613C88.809 95.7801 88.7391 95.784 88.6709 95.7728C88.6027 95.7616 88.5378 95.7356 88.4808 95.6965C88.4238 95.6575 88.376 95.6064 88.3409 95.5469C88.3058 95.4873 88.2841 95.4208 88.2775 95.352C88.271 95.2832 88.2795 95.2138 88.3027 95.1487C88.3259 95.0836 88.3631 95.0244 88.4117 94.9752C88.4603 94.9261 88.5191 94.8882 88.5839 94.8642L90.6239 93.6882C90.6956 93.6468 90.777 93.625 90.8599 93.625C90.9427 93.625 91.0241 93.6468 91.0959 93.6882C91.1666 93.7286 91.2256 93.7867 91.267 93.8569C91.3084 93.9271 91.3308 94.0068 91.3319 94.0882V96.4442C91.3298 96.5677 91.279 96.6853 91.1906 96.7714C91.1022 96.8576 90.9833 96.9053 90.8599 96.9042Z" fill="#455A64"/>
<path d="M81.3887 100.018C81.285 100.018 81.1843 99.9836 81.1022 99.9204C81.02 99.8571 80.9609 99.7687 80.9341 99.6685C80.9072 99.5684 80.9141 99.4622 80.9536 99.3664C80.9931 99.2706 81.063 99.1904 81.1527 99.1383L84.8687 96.9943C84.9221 96.9628 84.9813 96.9423 85.0428 96.934C85.1042 96.9256 85.1667 96.9295 85.2266 96.9455C85.2866 96.9615 85.3427 96.9893 85.3918 97.0272C85.4409 97.0651 85.482 97.1124 85.5127 97.1663C85.574 97.2748 85.5904 97.403 85.5582 97.5234C85.526 97.6438 85.4479 97.7468 85.3407 97.8103L81.6207 99.9543C81.5508 99.9967 81.4704 100.019 81.3887 100.018Z" fill="#455A64"/>
<path d="M75.6283 103.343C75.5452 103.343 75.4636 103.321 75.3923 103.279C75.3218 103.238 75.263 103.18 75.2216 103.11C75.1803 103.04 75.1578 102.96 75.1562 102.879V100.523C75.1562 100.398 75.206 100.278 75.2945 100.189C75.383 100.101 75.5031 100.051 75.6283 100.051C75.7534 100.051 75.8735 100.101 75.962 100.189C76.0505 100.278 76.1003 100.398 76.1003 100.523V102.063L77.4323 101.295C77.4846 101.25 77.5461 101.216 77.6127 101.198C77.6792 101.179 77.749 101.175 77.8172 101.186C77.8854 101.197 77.9503 101.223 78.0074 101.262C78.0644 101.302 78.1122 101.353 78.1473 101.412C78.1824 101.472 78.204 101.538 78.2106 101.607C78.2172 101.676 78.2086 101.745 78.1854 101.81C78.1622 101.875 78.125 101.935 78.0765 101.984C78.0279 102.033 77.9691 102.071 77.9043 102.095L75.8643 103.271C75.7937 103.316 75.712 103.341 75.6283 103.343Z" fill="#455A64"/>
<path d="M75.6294 96.6231C75.5042 96.6231 75.3842 96.5734 75.2957 96.4849C75.2072 96.3964 75.1574 96.2763 75.1574 96.1511V94.6111L73.8254 95.3831C73.7731 95.4283 73.7115 95.4614 73.645 95.4802C73.5785 95.499 73.5087 95.5029 73.4405 95.4917C73.3723 95.4805 73.3074 95.4544 73.2503 95.4154C73.1933 95.3764 73.1455 95.3253 73.1104 95.2658C73.0753 95.2062 73.0537 95.1397 73.0471 95.0709C73.0405 95.0021 73.0491 94.9327 73.0723 94.8676C73.0954 94.8025 73.1326 94.7433 73.1812 94.6941C73.2298 94.645 73.2886 94.6071 73.3534 94.5831L75.3934 93.4031C75.4645 93.362 75.5451 93.3402 75.6273 93.3398C75.7094 93.3395 75.7902 93.3605 75.8617 93.4009C75.9332 93.4413 75.9929 93.4996 76.0349 93.5702C76.077 93.6407 76.0999 93.721 76.1014 93.8031V96.1591C76.0993 96.2829 76.0487 96.4009 75.9604 96.4877C75.8721 96.5745 75.7532 96.6231 75.6294 96.6231Z" fill="#455A64"/>
<path d="M67.7689 98.7993C67.6864 98.7994 67.6053 98.7788 67.5329 98.7394C67.4627 98.6984 67.4041 98.6401 67.3628 98.5701C67.3215 98.5001 67.2988 98.4206 67.2969 98.3394V95.9993C67.2969 95.8742 67.3466 95.7541 67.4351 95.6656C67.5236 95.5771 67.6437 95.5273 67.7689 95.5273C67.8941 95.5273 68.0141 95.5771 68.1026 95.6656C68.1911 95.7541 68.2409 95.8742 68.2409 95.9993V97.5393L69.5729 96.7673C69.6252 96.7222 69.6868 96.689 69.7533 96.6703C69.8198 96.6515 69.8896 96.6476 69.9578 96.6588C70.026 96.67 70.091 96.696 70.148 96.7351C70.205 96.7741 70.2528 96.8252 70.2879 96.8847C70.323 96.9442 70.3446 97.0108 70.3512 97.0796C70.3578 97.1484 70.3492 97.2178 70.326 97.2829C70.3029 97.348 70.2657 97.4072 70.2171 97.4564C70.1685 97.5055 70.1097 97.5434 70.0449 97.5673L68.0049 98.7674C67.93 98.7972 67.849 98.8082 67.7689 98.7993Z" fill="#455A64"/>
<path d="M67.7689 92.0506C67.6468 92.0517 67.5291 92.005 67.4409 91.9206C67.3527 91.8361 67.301 91.7206 67.2969 91.5986V87.1986C67.2969 87.0734 67.3466 86.9533 67.4351 86.8648C67.5236 86.7763 67.6437 86.7266 67.7689 86.7266C67.8941 86.7266 68.0141 86.7763 68.1026 86.8648C68.1911 86.9533 68.2409 87.0734 68.2409 87.1986V91.5986C68.2367 91.7206 68.185 91.8361 68.0968 91.9206C68.0087 92.005 67.891 92.0517 67.7689 92.0506Z" fill="#455A64"/>
<path d="M67.7689 83.2607C67.6457 83.2607 67.5275 83.2126 67.4393 83.1267C67.3511 83.0408 67.3 82.9238 67.2969 82.8007V80.4447C67.2988 80.3634 67.3215 80.284 67.3628 80.2139C67.4041 80.1439 67.4627 80.0857 67.5329 80.0447L69.5729 78.8687C69.6252 78.8235 69.6868 78.7904 69.7533 78.7716C69.8198 78.7529 69.8896 78.7489 69.9578 78.7601C70.026 78.7713 70.091 78.7974 70.148 78.8364C70.205 78.8754 70.2528 78.9265 70.2879 78.9861C70.323 79.0456 70.3446 79.1121 70.3512 79.1809C70.3578 79.2497 70.3492 79.3191 70.326 79.3842C70.3029 79.4493 70.2657 79.5085 70.2171 79.5577C70.1685 79.6069 70.1097 79.6447 70.0449 79.6687L68.2409 80.7087V82.8007C68.2377 82.9238 68.1866 83.0408 68.0985 83.1267C68.0103 83.2126 67.892 83.2607 67.7689 83.2607Z" fill="#455A64"/>
<path d="M75.6294 78.7247C75.5674 78.7247 75.5061 78.7125 75.4488 78.6888C75.3915 78.665 75.3395 78.6303 75.2957 78.5864C75.2518 78.5426 75.2171 78.4906 75.1934 78.4333C75.1696 78.3761 75.1574 78.3147 75.1574 78.2527V76.7127L73.8254 77.4807C73.7731 77.5259 73.7115 77.559 73.645 77.5778C73.5785 77.5965 73.5087 77.6004 73.4405 77.5892C73.3723 77.578 73.3074 77.552 73.2503 77.513C73.1933 77.4739 73.1455 77.4228 73.1104 77.3633C73.0753 77.3038 73.0537 77.2373 73.0471 77.1685C73.0405 77.0997 73.0491 77.0303 73.0723 76.9652C73.0954 76.9 73.1326 76.8408 73.1812 76.7917C73.2298 76.7425 73.2886 76.7046 73.3534 76.6807L75.3934 75.5047C75.4645 75.4636 75.5451 75.4418 75.6273 75.4414C75.7094 75.441 75.7902 75.4621 75.8617 75.5025C75.9332 75.5429 75.9929 75.6012 76.0349 75.6717C76.077 75.7423 76.0999 75.8226 76.1014 75.9047V78.2607C76.0993 78.3845 76.0487 78.5025 75.9604 78.5893C75.8721 78.6761 75.7532 78.7247 75.6294 78.7247Z" fill="#455A64"/>
<path d="M75.6283 85.3153C75.5458 85.3154 75.4646 85.2948 75.3923 85.2553C75.3223 85.2141 75.2639 85.1557 75.2227 85.0858C75.1814 85.0158 75.1585 84.9365 75.1562 84.8553V82.4993C75.1562 82.3742 75.206 82.2541 75.2945 82.1656C75.383 82.0771 75.5031 82.0273 75.6283 82.0273C75.7534 82.0273 75.8735 82.0771 75.962 82.1656C76.0505 82.2541 76.1003 82.3742 76.1003 82.4993V84.0393L77.4323 83.2673C77.536 83.229 77.6499 83.2284 77.7541 83.2655C77.8582 83.3025 77.9461 83.375 78.0023 83.4703C78.0585 83.5655 78.0794 83.6775 78.0615 83.7866C78.0436 83.8957 77.9879 83.9951 77.9043 84.0673L75.8643 85.2473C75.7926 85.2896 75.7114 85.313 75.6283 85.3153Z" fill="#455A64"/>
<path d="M81.4807 81.9389C81.3995 81.9366 81.3202 81.9138 81.2502 81.8725C81.1803 81.8312 81.1219 81.7729 81.0807 81.7029C81.0183 81.5947 81.0013 81.4661 81.0336 81.3453C81.0658 81.2246 81.1446 81.1216 81.2527 81.0589L85.0687 78.8549C85.1222 78.8243 85.1813 78.8045 85.2425 78.7968C85.3037 78.789 85.3658 78.7935 85.4253 78.8098C85.4848 78.8262 85.5404 78.8541 85.589 78.8921C85.6377 78.93 85.6783 78.9772 85.7087 79.0309C85.74 79.0841 85.7605 79.1429 85.7688 79.2041C85.7771 79.2652 85.7731 79.3274 85.7571 79.387C85.7411 79.4466 85.7133 79.5024 85.6755 79.5512C85.6376 79.5999 85.5904 79.6406 85.5367 79.6709L81.7247 81.8749C81.6502 81.9169 81.5662 81.939 81.4807 81.9389ZM89.1087 77.5389C89.0271 77.5382 88.9472 77.516 88.877 77.4746C88.8068 77.4331 88.7487 77.3739 88.7087 77.3029C88.6772 77.2494 88.6567 77.1903 88.6484 77.1288C88.64 77.0673 88.6439 77.0048 88.6599 76.9449C88.676 76.885 88.7037 76.8289 88.7416 76.7798C88.7795 76.7307 88.8268 76.6896 88.8807 76.6589L92.6927 74.4589C92.7964 74.4206 92.9103 74.4199 93.0145 74.457C93.1187 74.4941 93.2065 74.5666 93.2627 74.6618C93.3189 74.7571 93.3398 74.869 93.3219 74.9781C93.304 75.0873 93.2484 75.1866 93.1647 75.2589L89.3487 77.4589C89.2778 77.5071 89.1944 77.5335 89.1087 77.5349V77.5389Z" fill="#455A64"/>
<path d="M96.7326 73.1323C96.6286 73.1338 96.527 73.1006 96.4439 73.0378C96.3608 72.9751 96.301 72.8865 96.2739 72.786C96.2468 72.6855 96.254 72.5789 96.2944 72.4829C96.3347 72.387 96.4059 72.3072 96.4966 72.2563L98.3006 71.2123V69.1283C98.3006 69.0031 98.3504 68.883 98.4389 68.7945C98.5274 68.706 98.6475 68.6562 98.7726 68.6562C98.8978 68.6562 99.0179 68.706 99.1064 68.7945C99.1949 68.883 99.2446 69.0031 99.2446 69.1283V71.4843C99.2427 71.5655 99.22 71.645 99.1787 71.715C99.1374 71.785 99.0789 71.8433 99.0086 71.8843L96.9686 73.0843C96.895 73.1191 96.814 73.1356 96.7326 73.1323Z" fill="#455A64"/>
<path d="M98.7728 65.3586C98.6476 65.3586 98.5275 65.3089 98.439 65.2204C98.3505 65.1319 98.3008 65.0118 98.3008 64.8866V62.5306C98.3027 62.4493 98.3254 62.3699 98.3667 62.2999C98.408 62.2299 98.4666 62.1716 98.5368 62.1306L100.577 60.9546C100.629 60.9094 100.691 60.8763 100.757 60.8576C100.824 60.8388 100.894 60.8349 100.962 60.8461C101.03 60.8573 101.095 60.8833 101.152 60.9223C101.209 60.9614 101.257 61.0125 101.292 61.072C101.327 61.1315 101.349 61.198 101.355 61.2668C101.362 61.3356 101.353 61.405 101.33 61.4702C101.307 61.5353 101.27 61.5945 101.221 61.6436C101.172 61.6928 101.114 61.7307 101.049 61.7546L99.2448 62.7946V64.8786C99.2458 64.9413 99.2344 65.0035 99.2112 65.0617C99.1879 65.1199 99.1533 65.1729 99.1094 65.2176C99.0655 65.2623 99.0131 65.2977 98.9553 65.322C98.8975 65.3462 98.8354 65.3586 98.7728 65.3586Z" fill="#455A64"/>
<path d="M106.681 60.8003C106.557 60.8003 106.438 60.751 106.35 60.6632C106.262 60.5754 106.213 60.4564 106.213 60.3323V58.8003L104.877 59.5683C104.825 59.6142 104.763 59.6479 104.696 59.6671C104.629 59.6864 104.559 59.6906 104.49 59.6794C104.422 59.6683 104.356 59.6421 104.299 59.6028C104.241 59.5635 104.193 59.5119 104.158 59.4518C104.123 59.3918 104.102 59.3247 104.096 59.2554C104.089 59.1861 104.099 59.1163 104.123 59.051C104.147 58.9856 104.185 58.9264 104.234 58.8776C104.284 58.8287 104.343 58.7914 104.409 58.7683L106.449 57.5923C106.52 57.5522 106.6 57.5311 106.682 57.5313C106.763 57.5314 106.843 57.5526 106.914 57.5929C106.985 57.6331 107.045 57.6911 107.086 57.7611C107.128 57.8311 107.151 57.9107 107.153 57.9923V60.3483C107.149 60.4703 107.097 60.5859 107.009 60.6703C106.921 60.7547 106.803 60.8014 106.681 60.8003Z" fill="#455A64"/>
<path d="M106.681 78.4859C106.619 78.4859 106.558 78.4736 106.501 78.4499C106.444 78.4261 106.392 78.3913 106.349 78.3474C106.305 78.3035 106.271 78.2514 106.247 78.1942C106.224 78.137 106.212 78.0757 106.213 78.0139V73.5979C106.207 73.5325 106.215 73.4666 106.235 73.4044C106.256 73.3421 106.29 73.2849 106.334 73.2364C106.378 73.1879 106.432 73.1492 106.492 73.1227C106.552 73.0962 106.617 73.0825 106.683 73.0825C106.749 73.0825 106.814 73.0962 106.874 73.1227C106.934 73.1492 106.987 73.1879 107.032 73.2364C107.076 73.2849 107.11 73.3421 107.13 73.4044C107.151 73.4666 107.159 73.5325 107.153 73.5979V77.9979C107.155 78.0612 107.144 78.1243 107.122 78.1834C107.099 78.2425 107.065 78.2965 107.02 78.342C106.976 78.3876 106.924 78.4238 106.865 78.4485C106.807 78.4732 106.744 78.4859 106.681 78.4859ZM106.681 69.6379C106.557 69.6379 106.438 69.5886 106.35 69.5008C106.262 69.413 106.213 69.294 106.213 69.1699V64.7459C106.207 64.6805 106.215 64.6146 106.235 64.5524C106.256 64.4901 106.29 64.4329 106.334 64.3844C106.378 64.3359 106.432 64.2972 106.492 64.2707C106.552 64.2442 106.617 64.2305 106.683 64.2305C106.749 64.2305 106.814 64.2442 106.874 64.2707C106.934 64.2972 106.987 64.3359 107.032 64.3844C107.076 64.4329 107.11 64.4901 107.13 64.5524C107.151 64.6146 107.159 64.6805 107.153 64.7459V69.1699C107.153 69.2317 107.141 69.2929 107.117 69.3499C107.093 69.4069 107.058 69.4587 107.014 69.5022C106.971 69.5457 106.919 69.5801 106.861 69.6034C106.804 69.6267 106.743 69.6384 106.681 69.6379Z" fill="#455A64"/>
<path d="M106.681 85.2644C106.599 85.265 106.519 85.2429 106.449 85.2004C106.378 85.16 106.319 85.1019 106.278 85.0317C106.236 84.9616 106.214 84.8818 106.213 84.8004V82.4364C106.224 82.3192 106.278 82.2103 106.365 82.131C106.452 82.0518 106.565 82.0078 106.683 82.0078C106.801 82.0078 106.914 82.0518 107.001 82.131C107.088 82.2103 107.142 82.3192 107.153 82.4364V83.9964L108.489 83.2284C108.592 83.192 108.705 83.1928 108.808 83.2305C108.911 83.2683 108.998 83.3407 109.053 83.4353C109.108 83.5299 109.129 83.6409 109.111 83.7491C109.094 83.8573 109.039 83.9561 108.957 84.0284L106.917 85.2044C106.845 85.246 106.764 85.2668 106.681 85.2644Z" fill="#455A64"/>
<path d="M112.35 81.9989C112.246 81.9986 112.145 81.9642 112.063 81.901C111.981 81.8378 111.922 81.7493 111.895 81.6492C111.868 81.549 111.875 81.4429 111.915 81.347C111.954 81.2512 112.024 81.171 112.114 81.1189L113.918 80.0749V77.9989C113.928 77.8817 113.983 77.7728 114.07 77.6935C114.156 77.6143 114.27 77.5703 114.388 77.5703C114.505 77.5703 114.619 77.6143 114.706 77.6935C114.793 77.7728 114.847 77.8817 114.858 77.9989V80.3549C114.856 80.4363 114.834 80.5161 114.793 80.5862C114.751 80.6564 114.692 80.7145 114.622 80.7549L112.582 81.9549C112.51 81.9904 112.429 82.0056 112.35 81.9989Z" fill="#455A64"/>
<path d="M114.402 74.2479C114.34 74.2479 114.279 74.2357 114.222 74.2119C114.165 74.1881 114.113 74.1533 114.069 74.1094C114.026 74.0655 113.991 74.0135 113.968 73.9562C113.945 73.899 113.933 73.8377 113.934 73.7759V71.4199C113.935 71.3385 113.957 71.2587 113.998 71.1886C114.04 71.1184 114.099 71.0603 114.17 71.0199L116.21 69.8399C116.262 69.794 116.324 69.7602 116.391 69.741C116.457 69.7218 116.528 69.7176 116.596 69.7287C116.665 69.7399 116.73 69.766 116.788 69.8054C116.845 69.8447 116.893 69.8963 116.928 69.9563C116.963 70.0164 116.985 70.0835 116.991 70.1528C116.997 70.2221 116.988 70.2919 116.964 70.3572C116.94 70.4225 116.902 70.4817 116.852 70.5306C116.803 70.5795 116.743 70.6168 116.678 70.6399L114.874 71.6799V73.7639C114.875 73.8269 114.864 73.8896 114.841 73.9482C114.818 74.0069 114.784 74.0603 114.74 74.1054C114.696 74.1505 114.643 74.1864 114.585 74.2109C114.527 74.2353 114.465 74.2479 114.402 74.2479Z" fill="#455A64"/>
<path d="M120.098 68.5897C119.994 68.5912 119.892 68.558 119.809 68.4953C119.726 68.4326 119.666 68.344 119.639 68.2435C119.612 68.143 119.619 68.0363 119.66 67.9404C119.7 67.8444 119.771 67.7647 119.862 67.7137L121.67 66.6697V64.5857C121.664 64.5204 121.671 64.4544 121.692 64.3922C121.713 64.33 121.747 64.2728 121.791 64.2243C121.835 64.1758 121.889 64.137 121.949 64.1105C122.009 64.084 122.074 64.0703 122.14 64.0703C122.206 64.0703 122.27 64.084 122.33 64.1105C122.391 64.137 122.444 64.1758 122.489 64.2243C122.533 64.2728 122.566 64.33 122.587 64.3922C122.608 64.4544 122.616 64.5204 122.61 64.5857V66.9417C122.609 67.0232 122.586 67.1029 122.545 67.1731C122.504 67.2432 122.445 67.3013 122.374 67.3417L120.334 68.5417C120.26 68.577 120.179 68.5935 120.098 68.5897Z" fill="#455A64"/>
<path d="M122.137 60.8196C122.075 60.8196 122.014 60.8074 121.957 60.7836C121.9 60.7598 121.848 60.725 121.804 60.6811C121.761 60.6372 121.727 60.5852 121.703 60.5279C121.68 60.4707 121.668 60.4094 121.669 60.3476V58.7996L120.333 59.5996C120.229 59.6379 120.115 59.6386 120.011 59.6015C119.907 59.5644 119.819 59.4919 119.763 59.3967C119.707 59.3014 119.686 59.1895 119.704 59.0804C119.721 58.9713 119.777 58.8719 119.861 58.7996L121.905 57.6196C121.976 57.5795 122.056 57.5585 122.137 57.5586C122.219 57.5587 122.299 57.5799 122.37 57.6202C122.441 57.6605 122.5 57.7185 122.542 57.7885C122.584 57.8585 122.607 57.9381 122.609 58.0196V60.3756C122.602 60.4959 122.549 60.6089 122.461 60.6914C122.373 60.774 122.257 60.8198 122.137 60.8196Z" fill="#455A64"/>
<path d="M114.402 62.94C114.32 62.9406 114.239 62.9185 114.17 62.876C114.099 62.8356 114.04 62.7775 113.998 62.7073C113.957 62.6372 113.935 62.5574 113.934 62.476V60.12C113.944 60.0028 113.999 59.8939 114.086 59.8146C114.172 59.7354 114.286 59.6914 114.404 59.6914C114.521 59.6914 114.635 59.7354 114.722 59.8146C114.809 59.8939 114.863 60.0028 114.874 60.12V61.66L116.21 60.892C116.262 60.8461 116.324 60.8123 116.391 60.7931C116.457 60.7739 116.528 60.7697 116.596 60.7808C116.665 60.792 116.73 60.8181 116.788 60.8575C116.845 60.8968 116.893 60.9484 116.928 61.0084C116.963 61.0685 116.985 61.1356 116.991 61.2049C116.997 61.2742 116.988 61.344 116.964 61.4093C116.94 61.4746 116.902 61.5338 116.852 61.5827C116.803 61.6316 116.743 61.6689 116.678 61.692L114.638 62.868C114.567 62.9138 114.485 62.9388 114.402 62.94Z" fill="#455A64"/>
<path d="M114.402 56.3416C114.277 56.3416 114.158 56.2923 114.071 56.2045C113.983 56.1167 113.934 55.9977 113.934 55.8736V53.5176C113.935 53.4361 113.957 53.3564 113.998 53.2862C114.04 53.2161 114.099 53.1579 114.17 53.1176L116.21 51.9376C116.262 51.8917 116.324 51.8579 116.391 51.8387C116.457 51.8195 116.528 51.8153 116.596 51.8264C116.665 51.8375 116.73 51.8637 116.788 51.903C116.845 51.9424 116.893 51.9939 116.928 52.054C116.963 52.114 116.985 52.1811 116.991 52.2504C116.997 52.3197 116.988 52.3895 116.964 52.4549C116.94 52.5202 116.902 52.5794 116.852 52.6283C116.803 52.6771 116.743 52.7145 116.678 52.7376L114.874 53.7816V55.8656C114.875 55.928 114.863 55.9901 114.84 56.048C114.817 56.106 114.782 56.1587 114.738 56.2031C114.694 56.2475 114.642 56.2826 114.584 56.3064C114.526 56.3301 114.464 56.3421 114.402 56.3416Z" fill="#455A64"/>
<path d="M120.096 50.6913C119.992 50.691 119.891 50.6566 119.809 50.5934C119.727 50.5302 119.668 50.4417 119.641 50.3415C119.614 50.2414 119.621 50.1352 119.661 50.0394C119.7 49.9436 119.77 49.8634 119.86 49.8113L121.668 48.7713V46.6873C121.662 46.6219 121.669 46.556 121.69 46.4938C121.711 46.4315 121.745 46.3743 121.789 46.3258C121.833 46.2773 121.887 46.2386 121.947 46.2121C122.007 46.1856 122.072 46.1719 122.138 46.1719C122.203 46.1719 122.268 46.1856 122.328 46.2121C122.388 46.2386 122.442 46.2773 122.486 46.3258C122.531 46.3743 122.564 46.4315 122.585 46.4938C122.606 46.556 122.614 46.6219 122.608 46.6873V49.0433C122.607 49.1247 122.584 49.2045 122.543 49.2746C122.501 49.3448 122.442 49.4029 122.372 49.4433L120.332 50.6193C120.261 50.6645 120.179 50.6894 120.096 50.6913Z" fill="#455A64"/>
<path d="M122.137 43.0466C122.013 43.0466 121.894 42.9972 121.806 42.9095C121.718 42.8217 121.669 42.7027 121.669 42.5786V41.0386L120.333 41.8066C120.229 41.8449 120.115 41.8455 120.011 41.8084C119.907 41.7713 119.819 41.6989 119.763 41.6036C119.707 41.5084 119.686 41.3964 119.704 41.2873C119.721 41.1782 119.777 41.0788 119.861 41.0066L121.905 39.8306C121.976 39.7905 122.056 39.7694 122.137 39.7695C122.219 39.7696 122.299 39.7909 122.37 39.8311C122.441 39.8714 122.5 39.9294 122.542 39.9994C122.584 40.0694 122.607 40.149 122.609 40.2306V42.5866C122.607 42.71 122.556 42.8276 122.467 42.9137C122.379 42.9999 122.26 43.0476 122.137 43.0466Z" fill="#455A64"/>
<path d="M101.656 52.5142C101.552 52.5157 101.451 52.4825 101.368 52.4198C101.285 52.3571 101.225 52.2685 101.198 52.168C101.171 52.0675 101.178 51.9609 101.218 51.8649C101.259 51.769 101.33 51.6892 101.42 51.6382L106.032 48.9742C106.136 48.9359 106.25 48.9353 106.354 48.9723C106.458 49.0094 106.546 49.0819 106.602 49.1772C106.659 49.2724 106.68 49.3843 106.662 49.4935C106.644 49.6026 106.588 49.7019 106.504 49.7742L101.892 52.4382C101.822 52.4833 101.74 52.5095 101.656 52.5142ZM110.876 47.1982C110.773 47.1979 110.672 47.1635 110.59 47.1003C110.508 47.0371 110.449 46.9486 110.422 46.8485C110.395 46.7484 110.402 46.6422 110.441 46.5463C110.481 46.4505 110.551 46.3703 110.64 46.3182L115.252 43.6542C115.356 43.6159 115.47 43.6153 115.574 43.6523C115.678 43.6894 115.766 43.7619 115.822 43.8572C115.879 43.9524 115.9 44.0643 115.882 44.1735C115.864 44.2826 115.808 44.3819 115.724 44.4542L111.112 47.1182C111.043 47.1663 110.961 47.194 110.876 47.1982Z" fill="#455A64"/>
<path d="M95.0092 56.3548C94.9266 56.3554 94.8454 56.3348 94.7732 56.2948C94.7024 56.2545 94.6434 56.1963 94.602 56.1262C94.5606 56.056 94.5383 55.9763 94.5372 55.8948V53.5388C94.5311 53.4735 94.5388 53.4076 94.5597 53.3453C94.5805 53.2831 94.6142 53.2259 94.6584 53.1774C94.7026 53.1289 94.7565 53.0901 94.8165 53.0636C94.8766 53.0371 94.9415 53.0234 95.0072 53.0234C95.0728 53.0234 95.1377 53.0371 95.1978 53.0636C95.2578 53.0901 95.3117 53.1289 95.3559 53.1774C95.4001 53.2259 95.4338 53.2831 95.4547 53.3453C95.4755 53.4076 95.4832 53.4735 95.4772 53.5388V55.0788L96.8092 54.3068C96.9129 54.2685 97.0268 54.2679 97.131 54.305C97.2351 54.342 97.323 54.4145 97.3792 54.5098C97.4354 54.605 97.4563 54.717 97.4384 54.8261C97.4205 54.9352 97.3648 55.0346 97.2812 55.1068L95.2412 56.3068C95.1687 56.341 95.0892 56.3575 95.0092 56.3548Z" fill="#455A64"/>
<path d="M95.0091 49.6589C94.9471 49.6589 94.8858 49.6467 94.8285 49.623C94.7712 49.5993 94.7192 49.5645 94.6754 49.5207C94.6315 49.4769 94.5968 49.4248 94.573 49.3676C94.5493 49.3103 94.5371 49.2489 94.5371 49.1869V46.8309C94.5479 46.7138 94.6021 46.6049 94.6891 46.5256C94.776 46.4463 94.8894 46.4023 95.0071 46.4023C95.1248 46.4023 95.2382 46.4463 95.3252 46.5256C95.4121 46.6049 95.4663 46.7138 95.4771 46.8309V49.1989C95.475 49.3217 95.4248 49.4387 95.3372 49.5247C95.2497 49.6108 95.1319 49.659 95.0091 49.6589Z" fill="#455A64"/>
<path d="M92.7286 27.5385C90.4286 28.8705 88.5605 32.4345 88.5605 35.5025C88.5605 39.9025 91.2925 39.0705 91.2925 40.8465C91.2798 40.9732 91.3164 41.0999 91.3946 41.2004C91.4727 41.301 91.5866 41.3676 91.7125 41.3865C92.2725 41.4945 93.1845 40.9865 93.7445 40.2145C93.979 39.9202 94.1185 39.5617 94.1445 39.1865C94.1445 37.4105 96.8765 35.1025 96.8765 30.6905C96.8966 27.6225 95.0286 26.2105 92.7286 27.5385ZM95.1286 33.4225C94.9324 33.8395 94.5912 34.1708 94.1685 34.3545C94.0805 34.6985 93.9925 35.1025 93.9125 35.5545C93.6916 36.8577 93.5765 38.1767 93.5685 39.4985C93.5695 39.5633 93.5548 39.6273 93.5255 39.6852C93.4962 39.743 93.4534 39.7929 93.4005 39.8305C93.3085 39.8865 93.2326 39.8305 93.2286 39.7065C93.2415 38.3479 93.366 36.9927 93.6005 35.6545C93.6725 35.2145 93.7606 34.8065 93.8526 34.4545C93.7051 34.4693 93.5563 34.4585 93.4125 34.4225C93.1602 34.3607 92.9285 34.2338 92.7406 34.0545C92.5503 34.4546 92.3255 34.8374 92.0685 35.1985C91.9341 35.3881 91.7871 35.5685 91.6286 35.7385C91.7335 36.0417 91.8177 36.3518 91.8805 36.6665C92.1182 37.8719 92.2374 39.0978 92.2365 40.3265C92.2354 40.3906 92.2187 40.4535 92.1881 40.5099C92.1575 40.5663 92.1137 40.6145 92.0605 40.6505C91.9645 40.7025 91.8885 40.6505 91.8925 40.5145C91.8896 39.3249 91.7744 38.1383 91.5485 36.9705C91.4861 36.6561 91.3991 36.3472 91.2885 36.0465C90.8685 36.3705 90.5285 36.3985 90.3325 36.2265C90.2298 36.1012 90.1676 35.9477 90.154 35.7863C90.1405 35.6248 90.1762 35.4631 90.2565 35.3225C90.2932 35.2061 90.3538 35.0986 90.4344 35.007C90.515 34.9154 90.6138 34.8416 90.7245 34.7905C90.9965 34.7065 91.2605 34.9225 91.4885 35.3985C91.6337 35.2473 91.7674 35.0855 91.8885 34.9145C92.1351 34.5653 92.3493 34.1944 92.5286 33.8065C92.3003 33.4718 92.21 33.062 92.2766 32.6625C92.2997 32.5163 92.3529 32.3765 92.4328 32.2519C92.5126 32.1273 92.6174 32.0206 92.7406 31.9385C92.9686 31.8065 93.1405 31.8785 93.2045 32.1265C93.2442 32.6188 93.1575 33.1131 92.9526 33.5625C93.1272 33.7419 93.3491 33.8681 93.5925 33.9265C93.7231 33.9598 93.8589 33.968 93.9925 33.9505C94.1179 33.398 94.3807 32.8862 94.7565 32.4625C94.9365 32.3145 95.1045 32.3105 95.2245 32.4625C95.2909 32.6172 95.3176 32.786 95.3022 32.9536C95.2868 33.1212 95.2299 33.2824 95.1365 33.4225H95.1286Z" fill="#E0E0E0"/>
<path d="M94.2121 39.7461V41.1581C94.1793 41.5479 94.027 41.9181 93.7761 42.2181C93.2001 42.9941 92.2561 43.5381 91.6801 43.4181C91.6124 43.4079 91.5475 43.3843 91.4891 43.3486C91.4308 43.313 91.3802 43.266 91.3403 43.2104C91.3004 43.1549 91.272 43.0919 91.2569 43.0252C91.2417 42.9585 91.2401 42.8894 91.2521 42.8221V41.5621C91.265 41.6723 91.314 41.7752 91.3913 41.8548C91.4687 41.9343 91.5702 41.9861 91.6801 42.0021C92.2561 42.1141 93.2001 41.5701 93.7761 40.8021C94.0274 40.5038 94.1798 40.1348 94.2121 39.7461Z" fill="#E0E0E0"/>
<path d="M94.7993 40.1055C94.767 40.4942 94.6147 40.8632 94.3633 41.1615C93.9423 41.7552 93.3243 42.1804 92.6193 42.3615L91.8193 41.9095V43.2015C91.8059 43.3017 91.8204 43.4037 91.8614 43.4962C91.9023 43.5887 91.9681 43.668 92.0513 43.7255L93.5233 44.5735C93.5799 44.6067 93.6424 44.6284 93.7073 44.6375C94.2833 44.7495 95.2233 44.2055 95.7993 43.4375C96.0503 43.1374 96.2026 42.7673 96.2353 42.3775V40.9655L94.7993 40.1055Z" fill="#37474F"/>
<path d="M92.0726 43.7145L93.5446 44.5625C93.6011 44.5957 93.6637 44.6175 93.7286 44.6265C93.7911 44.6328 93.8541 44.6328 93.9166 44.6265L93.2966 44.0185V42.7465L92.6206 42.3465L91.8206 41.8945V43.2025C91.8115 43.3028 91.8302 43.4036 91.8747 43.4939C91.9191 43.5842 91.9876 43.6606 92.0726 43.7145Z" fill="#455A64"/>
<path d="M96.0443 27.6818C95.3123 27.2578 94.3603 27.2818 93.3163 27.8978C91.0163 29.2258 89.1523 32.7938 89.1523 35.8617C89.1523 40.2617 91.8803 39.4297 91.8803 41.2057C91.8736 41.2984 91.8919 41.3911 91.9334 41.4742C91.975 41.5573 92.0382 41.6276 92.1163 41.6777L93.5723 42.5177C93.6289 42.5516 93.6913 42.5747 93.7563 42.5857C94.3203 42.6937 95.2283 42.1857 95.7923 41.4137C96.034 41.122 96.1805 40.7632 96.2123 40.3857C96.2123 38.6097 98.9403 36.3017 98.9403 31.8898C98.9403 30.2138 98.3843 29.0298 97.5003 28.5218L96.0443 27.6818Z" fill="#455A64"/>
<path d="M96.8197 34.1121C96.5943 34.3975 96.4321 34.7274 96.3438 35.0801C96.5819 34.9541 96.7749 34.757 96.8957 34.5161C96.9277 34.4521 97.0277 34.2281 96.9437 34.1161C96.937 34.106 96.928 34.0976 96.9174 34.0917C96.9068 34.0858 96.8949 34.0825 96.8828 34.0821C96.8706 34.0817 96.8586 34.0842 96.8476 34.0894C96.8366 34.0947 96.8271 34.1025 96.8197 34.1121Z" fill="#507BB9"/>
<path d="M94.7397 33.6389C94.7033 33.6592 94.6723 33.6879 94.6493 33.7228C94.6264 33.7576 94.6121 33.7974 94.6077 33.8389C94.5753 34.0726 94.6217 34.3105 94.7397 34.5149C94.8463 34.2526 94.8915 33.9693 94.8717 33.6869C94.8557 33.6229 94.8277 33.6029 94.7397 33.6389Z" fill="#507BB9"/>
<path d="M92.6556 36.5182H92.6316C92.5844 36.554 92.5505 36.6047 92.5356 36.6622C92.5043 36.7153 92.4921 36.7775 92.5008 36.8386C92.5095 36.8996 92.5387 36.9559 92.5836 36.9982C92.6916 37.0902 92.8876 37.0862 93.1316 36.9222C92.9476 36.5942 92.7716 36.4822 92.6556 36.5182Z" fill="#507BB9"/>
<path d="M94.7734 28.7377C92.4734 30.0697 90.6094 33.6337 90.6094 36.7017C90.6094 41.1017 93.3374 40.2697 93.3374 42.0457C93.3241 42.1695 93.3579 42.2937 93.432 42.3937C93.5061 42.4938 93.6151 42.5623 93.7374 42.5857C94.3014 42.6937 95.2094 42.1857 95.7734 41.4137C96.015 41.1219 96.1616 40.7632 96.1934 40.3857C96.1934 38.6097 98.9214 36.3017 98.9214 31.8897C98.9414 28.8217 97.0774 27.4097 94.7734 28.7377ZM97.1734 34.6217C96.9761 35.0378 96.6352 35.3688 96.2134 35.5537C96.1214 35.8977 96.0334 36.3017 95.9574 36.7537C95.734 38.0566 95.619 39.3758 95.6134 40.6977C95.6117 40.7624 95.5953 40.8259 95.5655 40.8834C95.5358 40.941 95.4933 40.991 95.4414 41.0297C95.3454 41.0857 95.2694 41.0297 95.2694 40.9057C95.2736 39.5423 95.3913 38.1815 95.6214 36.8377C95.6974 36.3977 95.7814 35.9857 95.8774 35.6377C95.73 35.6528 95.581 35.642 95.4374 35.6057C95.1842 35.543 94.9514 35.4163 94.7614 35.2377C94.5718 35.6382 94.3469 36.0211 94.0894 36.3817C93.9575 36.5732 93.8103 36.7538 93.6494 36.9217C93.7563 37.2246 93.8418 37.5347 93.9054 37.8497C94.1426 39.0538 94.2605 40.2784 94.2574 41.5057C94.2551 41.5697 94.2385 41.6325 94.2087 41.6892C94.1789 41.746 94.1368 41.7954 94.0854 41.8337C93.9894 41.8857 93.9134 41.8337 93.9134 41.6977C93.9127 40.508 93.7975 39.3212 93.5694 38.1537C93.508 37.8395 93.4224 37.5306 93.3134 37.2297C92.8934 37.5537 92.5534 37.5777 92.3534 37.4097C92.2513 37.284 92.1898 37.1303 92.1769 36.9689C92.1641 36.8074 92.2005 36.6459 92.2814 36.5057C92.3173 36.389 92.3777 36.2812 92.4583 36.1895C92.539 36.0978 92.6382 36.0242 92.7494 35.9737C93.0214 35.8897 93.2854 36.1057 93.5094 36.5817C93.6547 36.4307 93.7884 36.2689 93.9094 36.0977C94.1577 35.749 94.3733 35.3781 94.5534 34.9897C94.3232 34.6559 94.2327 34.2453 94.3014 33.8457C94.3229 33.6995 94.375 33.5594 94.4542 33.4347C94.5335 33.3099 94.6381 33.2033 94.7614 33.1217C94.9934 32.9897 95.1614 33.0617 95.2254 33.3097C95.2697 33.8022 95.1827 34.2977 94.9734 34.7457C95.1496 34.925 95.3728 35.0512 95.6174 35.1097C95.7479 35.1431 95.8837 35.1513 96.0174 35.1337C96.1464 34.5773 96.4163 34.0635 96.8014 33.6417C96.9814 33.4937 97.1534 33.4897 97.2694 33.6417C97.3422 33.7974 97.3742 33.969 97.3623 34.1405C97.3504 34.3119 97.295 34.4775 97.2014 34.6217H97.1734Z" fill="#507BB9"/>
<path d="M96.2556 40.9453V42.3573C96.2229 42.7471 96.0706 43.1173 95.8196 43.4173C95.2436 44.1933 94.3036 44.7373 93.7276 44.6173C93.6601 44.6066 93.5954 44.5827 93.5371 44.5469C93.4788 44.5112 93.4282 44.4643 93.388 44.4089C93.3479 44.3535 93.3191 44.2908 93.3032 44.2243C93.2874 44.1578 93.2848 44.0888 93.2956 44.0213V42.7493C93.3068 42.8625 93.3553 42.9688 93.4335 43.0513C93.5117 43.1339 93.6152 43.1881 93.7276 43.2053C94.3036 43.3173 95.2436 42.7733 95.8196 42.0053C96.0718 41.706 96.2242 41.3354 96.2556 40.9453Z" fill="#507BB9"/>
<path d="M93.5563 42.5048C93.3403 42.3808 92.1643 41.7048 92.1163 41.6768C92.0382 41.6266 91.975 41.5563 91.9334 41.4732C91.8919 41.3902 91.8736 41.2974 91.8803 41.2048C91.8803 39.4288 89.1523 40.2728 89.1523 35.8608C89.1676 34.8178 89.3526 33.7842 89.7003 32.8008C90.2043 33.0928 90.8563 33.4728 91.1563 33.6408C90.8074 34.628 90.6222 35.6657 90.6083 36.7128C90.6083 41.1128 93.3363 40.2808 93.3363 42.0568C93.3317 42.144 93.3495 42.231 93.3881 42.3094C93.4266 42.3878 93.4845 42.4551 93.5563 42.5048Z" fill="#37474F"/>
<path d="M93.7563 42.5836C93.6912 42.5726 93.6289 42.5495 93.5723 42.5156C93.6297 42.5478 93.6917 42.5707 93.7563 42.5836Z" fill="#37474F"/>
<path d="M93.5318 25.602C93.3358 25.718 93.1758 25.602 93.1758 25.334V22.602C93.1781 22.4688 93.2115 22.3379 93.2733 22.2199C93.3351 22.1018 93.4236 21.9998 93.5318 21.922C93.7278 21.81 93.8878 21.922 93.8878 22.19V24.918C93.8867 25.0521 93.8539 25.1839 93.792 25.3028C93.7301 25.4217 93.641 25.5243 93.5318 25.602Z" fill="#F0F0F0"/>
<path d="M90.3079 28.6118C90.1359 28.8398 89.9079 28.8878 89.8239 28.7198L88.7999 26.9478C88.7574 26.8269 88.7469 26.6971 88.7693 26.5709C88.7917 26.4448 88.8463 26.3266 88.9279 26.2278C89.0999 25.9998 89.3279 25.9518 89.4159 26.1198L90.4359 27.8918C90.4783 28.0126 90.4889 28.1424 90.4664 28.2686C90.444 28.3947 90.3894 28.5129 90.3079 28.6118Z" fill="#F0F0F0"/>
<path d="M87.9443 33.1224C87.8483 33.4064 87.6323 33.6064 87.4603 33.5744L85.6923 33.2344C85.5203 33.2024 85.4643 32.9464 85.5603 32.6624C85.6563 32.3784 85.8763 32.1784 86.0443 32.2104L87.8163 32.5504C88.0003 32.5824 88.0443 32.8384 87.9443 33.1224Z" fill="#F0F0F0"/>
<path d="M87.0801 37.9232C87.0783 38.0561 87.0455 38.1868 86.9844 38.3048C86.9233 38.4228 86.8356 38.525 86.7281 38.6032L84.6801 39.8032C84.4841 39.9152 84.3281 39.8032 84.3281 39.5352C84.329 39.4022 84.3614 39.2712 84.4226 39.153C84.4837 39.0348 84.572 38.9328 84.6801 38.8552L86.7281 37.6552C86.9241 37.5432 87.0801 37.6632 87.0801 37.9232Z" fill="#F0F0F0"/>
<path d="M87.9444 41.7242C87.9869 41.8451 87.9974 41.9749 87.975 42.101C87.9525 42.2272 87.8979 42.3454 87.8164 42.4442L86.0444 44.8442C85.8764 45.0722 85.6444 45.1202 85.5604 44.9522C85.5185 44.831 85.5086 44.701 85.5317 44.5749C85.5549 44.4487 85.6102 44.3307 85.6924 44.2322L87.4604 41.8322C87.6324 41.6002 87.8484 41.5522 87.9444 41.7242Z" fill="#F0F0F0"/>
<path d="M99.1209 35.2757C99.2209 34.9917 99.4369 34.7877 99.6049 34.8197L101.377 35.1637C101.545 35.1957 101.605 35.4517 101.505 35.7317C101.405 36.0117 101.193 36.2197 101.021 36.1877L99.2529 35.8477C99.0809 35.8117 99.0249 35.5557 99.1209 35.2757Z" fill="#F0F0F0"/>
<path d="M100 30.4739C100.002 30.3406 100.035 30.2095 100.097 30.0913C100.159 29.9732 100.247 29.8713 100.356 29.7939L102.4 28.5939C102.596 28.4819 102.756 28.5939 102.756 28.8619C102.753 28.9951 102.72 29.1258 102.658 29.2438C102.596 29.3618 102.508 29.4639 102.4 29.5419L100.356 30.7219C100.144 30.8539 100 30.7339 100 30.4739Z" fill="#F0F0F0"/>
<path d="M99.1204 26.671C99.0789 26.5497 99.0692 26.4198 99.0923 26.2937C99.1155 26.1676 99.1706 26.0496 99.2524 25.951L101.02 23.551C101.192 23.319 101.42 23.271 101.504 23.443C101.547 23.5638 101.557 23.6936 101.535 23.8198C101.513 23.9459 101.458 24.0641 101.376 24.163L99.6044 26.563C99.4364 26.803 99.2204 26.843 99.1204 26.671Z" fill="#F0F0F0"/>
<path d="M96.7607 24.8856C96.5887 24.8536 96.5327 24.5976 96.6287 24.3136L97.6527 21.3616C97.7487 21.0776 97.9647 20.8776 98.1367 20.9096C98.3087 20.9416 98.3647 21.1976 98.2647 21.4816L97.2447 24.4336C97.1447 24.7136 96.9287 24.9176 96.7607 24.8856Z" fill="#F0F0F0"/>
<path d="M94.051 140.462C94.1855 140.359 94.348 140.301 94.5168 140.294C94.6855 140.287 94.8524 140.331 94.995 140.422C95.1373 140.544 95.248 140.698 95.3176 140.873C95.3873 141.047 95.4138 141.235 95.395 141.422C95.3839 141.93 95.2464 142.428 94.995 142.87C94.79 143.299 94.4684 143.662 94.067 143.918C93.934 144.018 93.7732 144.074 93.6069 144.078C93.4405 144.082 93.277 144.035 93.139 143.942C92.9985 143.817 92.8891 143.662 92.8196 143.487C92.7501 143.313 92.7225 143.125 92.739 142.938C92.7519 142.432 92.8893 141.937 93.139 141.498C93.3377 141.072 93.6542 140.713 94.051 140.462Z" fill="#E0E0E0"/>
<path d="M92.6035 133.455L90.6035 134.599C90.605 133.271 90.9495 131.966 91.6035 130.811C92.2161 129.647 93.1416 128.677 94.2755 128.011C94.8104 127.646 95.4484 127.462 96.0955 127.487C96.3461 127.519 96.5854 127.61 96.794 127.752C97.0026 127.895 97.1744 128.085 97.2955 128.307C97.6118 128.86 97.767 129.49 97.7435 130.127C97.7408 130.548 97.6925 130.968 97.5995 131.379C97.4888 131.872 97.3376 132.354 97.1475 132.823C96.8884 133.404 96.5973 133.97 96.2755 134.519C95.9722 135.037 95.6972 135.571 95.4515 136.119C95.3258 136.454 95.2321 136.801 95.1715 137.155C95.084 137.684 95.0359 138.218 95.0275 138.755L92.9755 139.955V139.503C92.9759 138.599 93.1011 137.7 93.3475 136.831C93.6316 135.862 94.0347 134.932 94.5475 134.063C94.907 133.465 95.2303 132.847 95.5155 132.211C95.6267 131.915 95.6836 131.602 95.6835 131.287C95.7063 131.119 95.6807 130.949 95.6098 130.796C95.5389 130.643 95.4257 130.513 95.2835 130.423C95.0155 130.279 94.6515 130.339 94.1995 130.603C93.7153 130.89 93.3195 131.305 93.0555 131.803C92.7691 132.307 92.6137 132.875 92.6035 133.455Z" fill="#E0E0E0"/>
<path d="M96.4007 141.633C96.5352 141.531 96.6977 141.473 96.8665 141.466C97.0352 141.458 97.2021 141.503 97.3447 141.593C97.4875 141.714 97.5986 141.868 97.6683 142.042C97.738 142.215 97.7642 142.403 97.7447 142.589C97.7326 143.099 97.5952 143.598 97.3447 144.041C97.1395 144.472 96.8163 144.835 96.4127 145.089C96.2797 145.189 96.1189 145.245 95.9526 145.25C95.7862 145.254 95.6227 145.206 95.4847 145.113C95.3442 144.989 95.2348 144.833 95.1653 144.659C95.0958 144.485 95.0682 144.296 95.0847 144.109C95.0901 143.606 95.2192 143.111 95.4607 142.669C95.6681 142.241 95.9945 141.881 96.4007 141.633Z" fill="#507BB9"/>
<path d="M95.5603 145.167L94.0963 144.323L94.0163 144.271C93.8752 144.146 93.7654 143.99 93.6959 143.814C93.6264 143.639 93.5992 143.45 93.6163 143.263C93.6302 142.757 93.7675 142.263 94.0163 141.823L94.0683 141.723L95.5363 142.571L95.4803 142.671C95.2388 143.113 95.1097 143.607 95.1043 144.111C95.0853 144.296 95.1098 144.483 95.1758 144.658C95.2417 144.832 95.3474 144.988 95.4843 145.115L95.5603 145.167Z" fill="#455A64"/>
<path d="M97.2706 141.556C97.1306 141.486 96.9739 141.456 96.8179 141.469C96.6618 141.482 96.5126 141.539 96.3866 141.632C96.0201 141.86 95.7228 142.183 95.5266 142.568L94.0586 141.72C94.2471 141.36 94.522 141.052 94.8586 140.824L94.9186 140.788C95.0415 140.712 95.177 140.659 95.3186 140.632C95.4838 140.597 95.6559 140.624 95.8026 140.708L95.8986 140.764L97.2666 141.564L97.2706 141.556Z" fill="#37474F"/>
<path d="M94.9395 134.626L92.9395 135.77C92.939 134.442 93.2836 133.137 93.9395 131.982C94.5521 130.819 95.4775 129.849 96.6114 129.182C97.1449 128.817 97.7816 128.634 98.4274 128.658C98.678 128.691 98.9174 128.782 99.1259 128.924C99.3345 129.067 99.5064 129.257 99.6274 129.478C99.9451 130.031 100.102 130.661 100.079 131.298C100.077 131.72 100.028 132.14 99.9354 132.55C99.8227 133.043 99.6702 133.526 99.4794 133.994C99.2206 134.575 98.9308 135.141 98.6114 135.69C98.3074 136.209 98.031 136.743 97.7834 137.29C97.6596 137.627 97.5659 137.973 97.5034 138.326C97.4159 138.855 97.3678 139.39 97.3594 139.926L95.3075 141.126V140.678C95.3078 139.775 95.433 138.876 95.6794 138.006C95.9642 137.037 96.3673 136.106 96.8794 135.234C97.242 134.64 97.5653 134.023 97.8474 133.386C97.9586 133.091 98.0156 132.778 98.0154 132.462C98.0372 132.295 98.0112 132.126 97.9404 131.973C97.8696 131.82 97.7569 131.69 97.6154 131.598C97.3434 131.454 96.9834 131.514 96.5274 131.778C96.0432 132.066 95.6474 132.481 95.3835 132.978C95.1003 133.482 94.9477 134.049 94.9395 134.626Z" fill="#507BB9"/>
<path d="M99.0104 128.83C98.8353 128.732 98.6421 128.669 98.4424 128.646C97.7966 128.622 97.1599 128.806 96.6264 129.17C95.4925 129.837 94.5671 130.807 93.9544 131.971L93.8704 132.122L92.3984 131.29C92.4224 131.238 92.4504 131.186 92.4784 131.134C93.0921 129.971 94.0173 129.002 95.1504 128.334C95.6862 127.971 96.3236 127.788 96.9704 127.81C97.1775 127.836 97.3774 127.903 97.5584 128.006L99.0104 128.83Z" fill="#455A64"/>
<path d="M97.7195 133.68C97.5515 134.024 97.2755 134.532 96.8915 135.204C96.3793 136.076 95.9763 137.006 95.6915 137.976C95.4489 138.842 95.3238 139.737 95.3195 140.636V141.084L94.8555 140.816L93.8555 140.24V139.788C93.8559 138.885 93.981 137.986 94.2275 137.116C94.5123 136.148 94.9154 135.218 95.4275 134.348C95.8275 133.676 96.0875 133.168 96.2515 132.824L97.7195 133.68Z" fill="#455A64"/>
<path d="M93.8703 132.133C93.2686 133.251 92.9538 134.5 92.9543 135.769L91.4903 134.925C91.4859 133.655 91.8009 132.405 92.4063 131.289L93.8703 132.133Z" fill="#37474F"/>
<path d="M98.028 132.431C98.0284 132.745 97.9714 133.057 97.8599 133.351C97.8207 133.463 97.7739 133.572 97.72 133.679L96.252 132.835C96.316 132.698 96.364 132.591 96.396 132.507C96.4885 132.259 96.5425 131.999 96.556 131.734C96.7055 131.619 96.8818 131.543 97.0684 131.514C97.2551 131.484 97.4462 131.502 97.624 131.566C97.7662 131.658 97.8796 131.787 97.9511 131.94C98.0226 132.093 98.0493 132.263 98.028 132.431Z" fill="#37474F"/>
</svg>
