<svg width="24" height="24" viewBox="0 0 24 24" fill="none" xmlns="http://www.w3.org/2000/svg">
<rect width="24" height="24" rx="8" fill="#F3F4F6"/>
<path fill-rule="evenodd" clip-rule="evenodd" d="M15 6C15.8284 6 16.5 6.67157 16.5 7.5V12.069L14.9545 13.6152L14.4242 13.0848C13.8384 12.499 12.8886 12.499 12.3029 13.0848C11.7479 13.6398 11.7187 14.5214 12.2152 15.1107L12.3029 15.2062L13.8938 16.7971C14.4488 17.3521 15.3304 17.3813 15.9198 16.8848L16.0152 16.7971L16.5 16.3117V16.5C16.5 17.3284 15.8284 18 15 18H7.5C6.67157 18 6 17.3284 6 16.5V7.5C6 6.67157 6.67157 6 7.5 6H15ZM10.875 11.25H8.625C8.41789 11.25 8.25 11.4179 8.25 11.625C8.25 11.8321 8.41789 12 8.625 12H10.875C11.0821 12 11.25 11.8321 11.25 11.625C11.25 11.4179 11.0821 11.25 10.875 11.25ZM13.125 9H8.625C8.41789 9 8.25 9.16789 8.25 9.375C8.25 9.58211 8.41789 9.75 8.625 9.75H13.125C13.3321 9.75 13.5 9.58211 13.5 9.375C13.5 9.16789 13.3321 9 13.125 9Z" fill="#9CA3AF"/>
<path d="M12.75 5.25H9.75C9.33579 5.25 9 5.58579 9 6V6.75C9 7.16421 9.33579 7.5 9.75 7.5H12.75C13.1642 7.5 13.5 7.16421 13.5 6.75V6C13.5 5.58579 13.1642 5.25 12.75 5.25Z" fill="#9CA3AF"/>
<path d="M18.75 12L15 15.75L13.5 14.25" stroke="#9CA3AF" stroke-width="2" stroke-linecap="round" stroke-linejoin="round"/>
</svg>
