<svg width="24" height="24" viewBox="0 0 24 24" fill="none" xmlns="http://www.w3.org/2000/svg">
<rect width="24" height="24" rx="8" fill="#FFF7E8"/>
<path fill-rule="evenodd" clip-rule="evenodd" d="M15 6C15.8284 6 16.5 6.67157 16.5 7.5V14.1015L16.4625 14.1C16.2837 14.1 16.1167 14.15 15.9753 14.2368L15.8937 14.2932C15.657 13.95 15.261 13.725 14.8125 13.725C14.4706 13.725 14.1592 13.8558 13.9269 14.0699C13.6522 13.7227 13.2271 13.5 12.75 13.5C11.9216 13.5 11.25 14.1716 11.25 15C11.25 15.8284 11.9216 16.5 12.75 16.5C13.2074 16.5 13.617 16.2953 13.8916 15.9727C14.1286 16.206 14.4537 16.35 14.8125 16.35C15.261 16.35 15.657 16.125 15.8923 15.7817C16.0503 15.903 16.248 15.975 16.4625 15.975L16.5005 15.9742L16.5 16.5C16.5 17.3284 15.8284 18 15 18H7.5C6.67157 18 6 17.3284 6 16.5V7.5C6 6.67157 6.67157 6 7.5 6H15ZM10.875 11.25H8.625C8.41789 11.25 8.25 11.4179 8.25 11.625C8.25 11.8321 8.41789 12 8.625 12H10.875C11.0821 12 11.25 11.8321 11.25 11.625C11.25 11.4179 11.0821 11.25 10.875 11.25ZM13.125 9H8.625C8.41789 9 8.25 9.16789 8.25 9.375C8.25 9.58211 8.41789 9.75 8.625 9.75H13.125C13.3321 9.75 13.5 9.58211 13.5 9.375C13.5 9.16789 13.3321 9 13.125 9Z" fill="#CE8107"/>
<path fill-rule="evenodd" clip-rule="evenodd" d="M12.75 14.25C13.1642 14.25 13.5 14.5858 13.5 15C13.5 15.4142 13.1642 15.75 12.75 15.75C12.3358 15.75 12 15.4142 12 15C12 14.5858 12.3358 14.25 12.75 14.25ZM14.8875 14.475C15.1982 14.475 15.45 14.7268 15.45 15.0375C15.45 15.3482 15.1982 15.6 14.8875 15.6C14.5768 15.6 14.325 15.3482 14.325 15.0375C14.325 14.7268 14.5768 14.475 14.8875 14.475ZM16.5 14.7C16.7071 14.7 16.875 14.8679 16.875 15.075C16.875 15.2821 16.7071 15.45 16.5 15.45C16.2929 15.45 16.125 15.2821 16.125 15.075C16.125 14.8679 16.2929 14.7 16.5 14.7Z" fill="#CE8107"/>
<path d="M12.75 5.25H9.75C9.33579 5.25 9 5.58579 9 6V6.75C9 7.16421 9.33579 7.5 9.75 7.5H12.75C13.1642 7.5 13.5 7.16421 13.5 6.75V6C13.5 5.58579 13.1642 5.25 12.75 5.25Z" fill="#CE8107"/>
</svg>
