<svg width="24" height="24" viewBox="0 0 24 24" fill="none" xmlns="http://www.w3.org/2000/svg">
<path d="M21 2.20922C20.87 2.20922 20.74 2.25922 20.65 2.35922L19.86 3.14922C19.66 3.34922 19.35 3.34922 19.15 3.14922L18.36 2.35922C18.16 2.15922 17.85 2.15922 17.65 2.35922L16.86 3.14922C16.66 3.34922 16.35 3.34922 16.15 3.14922L15.36 2.35922C15.16 2.15922 14.85 2.15922 14.65 2.35922L13.86 3.14922C13.66 3.34922 13.35 3.34922 13.15 3.14922L12.36 2.35922C12.16 2.15922 11.85 2.15922 11.65 2.35922L10.86 3.14922C10.66 3.34922 10.35 3.34922 10.15 3.14922L9.35 2.34922C9.15 2.14922 8.84 2.14922 8.64 2.34922L7.85 3.14922C7.65 3.34922 7.34 3.34922 7.14 3.14922L6.35 2.34922C6.15 2.14922 5.84 2.14922 5.64 2.34922L4.85 3.14922C4.65 3.34922 4.34 3.34922 4.14 3.14922L3.35 2.34922C3.26 2.25922 3.13 2.20922 3 2.20922V21.7992C3.13 21.7992 3.26 21.7492 3.35 21.6492L4.14 20.8592C4.34 20.6592 4.65 20.6592 4.85 20.8592L5.64 21.6492C5.84 21.8492 6.15 21.8492 6.35 21.6492L7.14 20.8592C7.34 20.6592 7.65 20.6592 7.85 20.8592L8.64 21.6492C8.84 21.8492 9.15 21.8492 9.35 21.6492L10.14 20.8592C10.34 20.6592 10.65 20.6592 10.85 20.8592L11.64 21.6492C11.84 21.8492 12.15 21.8492 12.35 21.6492L13.14 20.8592C13.34 20.6592 13.65 20.6592 13.85 20.8592L14.64 21.6492C14.84 21.8492 15.15 21.8492 15.35 21.6492L16.14 20.8592C16.34 20.6592 16.65 20.6592 16.85 20.8592L17.64 21.6492C17.84 21.8492 18.15 21.8492 18.35 21.6492L19.14 20.8592C19.34 20.6592 19.65 20.6592 19.85 20.8592L20.64 21.6492C20.74 21.7492 20.87 21.7992 20.99 21.7992V2.20922H21ZM17 16.9992H7C6.45 16.9992 6 16.5492 6 15.9992C6 15.4492 6.45 14.9992 7 14.9992H17C17.55 14.9992 18 15.4492 18 15.9992C18 16.5492 17.55 16.9992 17 16.9992ZM17 12.9992H7C6.45 12.9992 6 12.5492 6 11.9992C6 11.4492 6.45 10.9992 7 10.9992H17C17.55 10.9992 18 11.4492 18 11.9992C18 12.5492 17.55 12.9992 17 12.9992ZM17 8.99922H7C6.45 8.99922 6 8.54922 6 7.99922C6 7.44922 6.45 6.99922 7 6.99922H17C17.55 6.99922 18 7.44922 18 7.99922C18 8.54922 17.55 8.99922 17 8.99922Z" fill="#4A4A4A"/>
</svg>
