<svg width="40" height="40" viewBox="0 0 40 40" fill="none" xmlns="http://www.w3.org/2000/svg">
<rect x="0.5" y="0.5" width="39" height="39" rx="7.5" stroke="#527BA9"/>
<path d="M25.334 28C26.0412 28 26.7195 28.281 27.2196 28.781C27.7197 29.2811 28.0006 29.9594 28.0006 30.6667C28.0006 31.3739 27.7197 32.0522 27.2196 32.5523C26.7195 33.0524 26.0412 33.3333 25.334 33.3333C24.6267 33.3333 23.9485 33.0524 23.4484 32.5523C22.9483 32.0522 22.6673 31.3739 22.6673 30.6667C22.6673 29.9594 22.9483 29.2811 23.4484 28.781C23.9485 28.281 24.6267 28 25.334 28ZM25.334 29.3333C24.9804 29.3333 24.6412 29.4738 24.3912 29.7239C24.1411 29.9739 24.0006 30.313 24.0006 30.6667C24.0006 31.0203 24.1411 31.3594 24.3912 31.6095C24.6412 31.8595 24.9804 32 25.334 32C25.6876 32 26.0267 31.8595 26.2768 31.6095C26.5268 31.3594 26.6673 31.0203 26.6673 30.6667C26.6673 30.313 26.5268 29.9739 26.2768 29.7239C26.0267 29.4738 25.6876 29.3333 25.334 29.3333ZM13.334 28C14.0412 28 14.7195 28.281 15.2196 28.781C15.7197 29.2811 16.0006 29.9594 16.0006 30.6667C16.0006 31.3739 15.7197 32.0522 15.2196 32.5523C14.7195 33.0524 14.0412 33.3333 13.334 33.3333C12.6267 33.3333 11.9485 33.0524 11.4484 32.5523C10.9483 32.0522 10.6673 31.3739 10.6673 30.6667C10.6673 29.9594 10.9483 29.2811 11.4484 28.781C11.9485 28.281 12.6267 28 13.334 28ZM13.334 29.3333C12.9804 29.3333 12.6412 29.4738 12.3912 29.7239C12.1411 29.9739 12.0006 30.313 12.0006 30.6667C12.0006 31.0203 12.1411 31.3594 12.3912 31.6095C12.6412 31.8595 12.9804 32 13.334 32C13.6876 32 14.0267 31.8595 14.2768 31.6095C14.5268 31.3594 14.6673 31.0203 14.6673 30.6667C14.6673 30.313 14.5268 29.9739 14.2768 29.7239C14.0267 29.4738 13.6876 29.3333 13.334 29.3333ZM28.0006 12H9.69798L13.094 20H24.0006C24.208 20.0003 24.4125 19.952 24.5977 19.8589C24.783 19.7658 24.9438 19.6305 25.0673 19.464L29.0673 14.1307H29.0686C29.2165 13.9325 29.3064 13.6971 29.3281 13.4508C29.3499 13.2044 29.3028 12.9569 29.192 12.7359C29.0812 12.5148 28.9111 12.3289 28.7007 12.199C28.4903 12.069 28.2479 12.0001 28.0006 12ZM24.0006 21.3333H13.1553L12.134 23.4133L12.0006 24C12.0006 24.3536 12.1411 24.6928 12.3912 24.9428C12.6412 25.1929 12.9804 25.3333 13.334 25.3333H28.0006V26.6667H13.334C12.8697 26.6669 12.4133 26.5459 12.0102 26.3156C11.607 26.0853 11.2709 25.7538 11.0352 25.3537C10.7995 24.9537 10.6723 24.4991 10.6662 24.0348C10.6602 23.5705 10.7755 23.1127 11.0007 22.7067L11.9606 20.7413L7.11798 9.33333H5.33398V8H8.00065L9.13265 10.6667H28.0006C28.5045 10.6667 28.998 10.8095 29.424 11.0785C29.85 11.3474 30.1912 11.7316 30.4078 12.1865C30.6245 12.6413 30.7079 13.1483 30.6484 13.6486C30.5888 14.1489 30.3887 14.6221 30.0713 15.0133L26.186 20.1947C25.9403 20.5464 25.6134 20.8336 25.2329 21.0319C24.8524 21.2301 24.4297 21.3335 24.0006 21.3333Z" fill="#527BA9"/>
</svg>
