<svg width="108" height="74" viewBox="0 0 108 74" fill="none" xmlns="http://www.w3.org/2000/svg">
<path d="M85.9932 39.8117C86.2258 38.7187 86.343 37.6044 86.3427 36.487C86.3427 34.4138 85.9343 32.3609 85.1409 30.4455C84.3476 28.5301 83.1847 26.7898 81.7187 25.3238C80.2528 23.8579 78.5124 22.695 76.597 21.9016C74.6817 21.1082 72.6288 20.6999 70.5556 20.6999C69.5771 20.7009 68.6006 20.7913 67.6385 20.9699C67.2362 20.8958 66.8285 20.9699 66.4103 20.9223C64.9224 17.6892 62.5329 14.9543 59.5287 13.0461C56.5245 11.1378 53.0333 10.1373 49.4744 10.1646H43.6509C41.2136 10.1528 38.7979 10.6219 36.5421 11.5451C34.2864 12.4684 32.235 13.8276 30.5054 15.5449C28.7758 17.2622 27.402 19.3039 26.4627 21.5529C25.5234 23.802 25.037 26.2143 25.0315 28.6517C25.0315 28.7893 25.0315 28.8581 25.0315 28.9958C21.1802 29.676 17.7254 31.7792 15.3526 34.888C12.9798 37.9969 11.8625 41.8842 12.2224 45.7785C12.5823 49.6727 14.3931 53.2894 17.2955 55.9107C20.1978 58.5321 23.9796 59.9665 27.8903 59.9293H85.0668C87.7345 60.0508 90.3413 59.1075 92.3136 57.307C94.2858 55.5065 95.4621 52.9962 95.5835 50.3284C95.705 47.6607 94.7617 45.0539 92.9612 43.0816C91.1607 41.1094 88.6504 39.9331 85.9827 39.8117H85.9932Z" fill="#407BFF"/>
<path opacity="0.5" d="M85.9932 39.8117C86.2258 38.7187 86.343 37.6044 86.3427 36.487C86.3427 34.4138 85.9343 32.3609 85.1409 30.4455C84.3476 28.5301 83.1847 26.7898 81.7187 25.3238C80.2528 23.8579 78.5124 22.695 76.597 21.9016C74.6817 21.1082 72.6288 20.6999 70.5556 20.6999C69.5771 20.7009 68.6006 20.7913 67.6385 20.9699C67.2362 20.8958 66.8285 20.9699 66.4103 20.9223C64.9224 17.6892 62.5329 14.9543 59.5287 13.0461C56.5245 11.1378 53.0333 10.1373 49.4744 10.1646H43.6509C41.2136 10.1528 38.7979 10.6219 36.5421 11.5451C34.2864 12.4684 32.235 13.8276 30.5054 15.5449C28.7758 17.2622 27.402 19.3039 26.4627 21.5529C25.5234 23.802 25.037 26.2143 25.0315 28.6517C25.0315 28.7893 25.0315 28.8581 25.0315 28.9958C21.1802 29.676 17.7254 31.7792 15.3526 34.888C12.9798 37.9969 11.8625 41.8842 12.2224 45.7785C12.5823 49.6727 14.3931 53.2894 17.2955 55.9107C20.1978 58.5321 23.9796 59.9665 27.8903 59.9293H85.0668C87.7345 60.0508 90.3413 59.1075 92.3136 57.307C94.2858 55.5065 95.4621 52.9962 95.5835 50.3284C95.705 47.6607 94.7617 45.0539 92.9612 43.0816C91.1607 41.1094 88.6504 39.9331 85.9827 39.8117H85.9932Z" fill="white"/>
<path opacity="0.4" d="M85.992 39.8117C86.2246 38.7187 86.3417 37.6044 86.3414 36.487C86.3414 34.4138 85.933 32.3609 85.1397 30.4455C84.3463 28.5301 83.1834 26.7898 81.7175 25.3238C80.2515 23.8579 78.5111 22.695 76.5958 21.9016C74.6804 21.1082 72.6275 20.6999 70.5543 20.6999C69.5758 20.7009 68.5994 20.7913 67.6373 20.9699C67.2349 20.8958 66.8273 20.9699 66.409 20.9223C64.9211 17.6892 62.5316 14.9543 59.5274 13.0461C56.5232 11.1378 53.0321 10.1373 49.4732 10.1646C47.0358 10.1528 44.6201 10.6219 42.3644 11.5451C40.1087 12.4684 38.0572 13.8276 36.3276 15.5449C34.598 17.2622 33.2242 19.3039 32.2849 21.5529C31.3456 23.802 30.8593 26.2143 30.8537 28.6517C30.8537 28.7893 30.8537 28.8581 30.8537 28.9958C27.0025 29.676 23.5476 31.7792 21.1749 34.888C18.8021 37.9969 17.6848 41.8842 18.0447 45.7785C18.4046 49.6727 20.2154 53.2894 23.1177 55.9107C26.0201 58.5321 29.8019 59.9665 33.7126 59.9293H85.0655C87.7333 60.0508 90.34 59.1075 92.3123 57.307C94.2846 55.5065 95.4608 52.9962 95.5823 50.3284C95.7037 47.6607 94.7604 45.0539 92.9599 43.0816C91.1594 41.1094 88.6492 39.9331 85.9814 39.8117H85.992Z" fill="white"/>
<path d="M54.4396 50.5781L49.8496 55.1628H59.0243L54.4396 50.5781Z" fill="#407BFF"/>
<path d="M62.7841 23.8256L37.5879 25.875L39.1222 44.7392L64.3184 42.6898L62.7841 23.8256Z" fill="#407BFF"/>
<path d="M61.6644 25.1506L38.9746 26.9961L40.3051 43.3538L62.9949 41.5083L61.6644 25.1506Z" fill="#407BFF"/>
<path opacity="0.5" d="M61.6644 25.1506L38.9746 26.9961L40.3051 43.3538L62.9949 41.5083L61.6644 25.1506Z" fill="white"/>
<path d="M62.8108 39.2852L62.9908 41.5087L40.3002 43.3564L39.6543 35.4046L44.0008 30.9258L51.5025 37.1358L54.9649 34.1552L62.8108 39.2852Z" fill="#407BFF"/>
<path opacity="0.3" d="M62.8108 39.2852L62.9908 41.5087L40.3002 43.3564L39.6543 35.4046L44.0008 30.9258L51.5025 37.1358L54.9649 34.1552L62.8108 39.2852Z" fill="white"/>
<path d="M58.2318 29.7546C58.261 30.1157 58.1824 30.4773 58.0061 30.7937C57.8298 31.1101 57.5636 31.3671 57.2413 31.5323C56.9189 31.6975 56.5548 31.7634 56.1949 31.7216C55.8351 31.6799 55.4958 31.5324 55.2198 31.2979C54.9437 31.0633 54.7435 30.7521 54.6443 30.4038C54.5451 30.0554 54.5514 29.6854 54.6624 29.3406C54.7734 28.9958 54.9842 28.6917 55.268 28.4667C55.5519 28.2416 55.8961 28.1058 56.2571 28.0764C56.497 28.0568 56.7384 28.0847 56.9674 28.1585C57.1965 28.2322 57.4088 28.3504 57.5922 28.5063C57.7756 28.6621 57.9265 28.8526 58.0362 29.0668C58.146 29.281 58.2124 29.5147 58.2318 29.7546Z" fill="#407BFF"/>
<path opacity="0.3" d="M58.2318 29.7546C58.261 30.1157 58.1824 30.4773 58.0061 30.7937C57.8298 31.1101 57.5636 31.3671 57.2413 31.5323C56.9189 31.6975 56.5548 31.7634 56.1949 31.7216C55.8351 31.6799 55.4958 31.5324 55.2198 31.2979C54.9437 31.0633 54.7435 30.7521 54.6443 30.4038C54.5451 30.0554 54.5514 29.6854 54.6624 29.3406C54.7734 28.9958 54.9842 28.6917 55.268 28.4667C55.5519 28.2416 55.8961 28.1058 56.2571 28.0764C56.497 28.0568 56.7384 28.0847 56.9674 28.1585C57.1965 28.2322 57.4088 28.3504 57.5922 28.5063C57.7756 28.6621 57.9265 28.8526 58.0362 29.0668C58.146 29.281 58.2124 29.5147 58.2318 29.7546Z" fill="white"/>
<rect x="51.3535" y="54" width="6.35294" height="9" fill="#407BFF"/>
</svg>
