<svg width="24" height="24" viewBox="0 0 24 24" fill="none" xmlns="http://www.w3.org/2000/svg">
<path fill-rule="evenodd" clip-rule="evenodd" d="M12 0C8.81739 0 5.76516 1.26428 3.51472 3.51472C1.26428 5.76515 0 8.81742 0 12C0 15.1826 1.26428 18.2348 3.51472 20.4853C5.76516 22.7357 8.81739 24 12 24C13.5758 24 15.1363 23.6896 16.5922 23.0866C18.0481 22.4835 19.371 21.5996 20.4853 20.4853C21.5996 19.371 22.4835 18.0481 23.0865 16.5922C23.6896 15.1363 24 13.5758 24 12C24 10.4242 23.6896 8.86369 23.0865 7.40781C22.4835 5.95188 21.5996 4.62904 20.4853 3.51472C19.371 2.40041 18.0481 1.5165 16.5922 0.913444C15.1363 0.31039 13.5758 0 12 0ZM16.498 9.37554H14.9993C14.793 9.37554 14.6243 9.20678 14.623 9.00048V7.50153C14.623 7.4017 14.6627 7.306 14.7333 7.23541C14.8038 7.16486 14.8995 7.1252 14.9993 7.1252H16.498C16.5979 7.1252 16.6935 7.16486 16.7641 7.23541C16.8347 7.306 16.8743 7.4017 16.8743 7.50153V9.00048C16.874 9.10007 16.8342 9.19547 16.7637 9.26575C16.6932 9.33607 16.5976 9.37554 16.498 9.37554ZM12.0003 14.4983C12.3287 14.4982 12.6538 14.4334 12.9572 14.3077C13.2606 14.182 13.5362 13.9977 13.7683 13.7655C14.0004 13.5332 14.1846 13.2575 14.3102 12.954C14.4358 12.6507 14.5004 12.3255 14.5003 11.9971C14.5002 11.6687 14.4354 11.3435 14.3097 11.0402C14.1839 10.7368 13.9997 10.4612 13.7674 10.2291C13.5352 9.99693 13.2594 9.81282 12.956 9.68721C12.6526 9.56163 12.3274 9.49702 11.999 9.49713C11.3358 9.49729 10.6999 9.7609 10.231 10.23C9.76218 10.699 9.49887 11.3351 9.49902 11.9983C9.49922 12.6615 9.76283 13.2975 10.2319 13.7663C10.701 14.2352 11.3371 14.4984 12.0003 14.4983ZM15.75 11.9998C15.75 12.9943 15.3549 13.948 14.6517 14.6512C13.9484 15.3545 12.9945 15.7495 12 15.7495C11.0054 15.7495 10.0516 15.3545 9.34835 14.6512C8.64508 13.948 8.25 12.9943 8.25 11.9998C8.25 11.786 8.2725 11.5773 8.31123 11.3748H7V16.3708C7 16.7182 7.28123 16.9994 7.62873 16.9994H16.3725C16.539 16.9991 16.6987 16.9327 16.8163 16.8149C16.9339 16.697 17 16.5373 17 16.3708V11.3748H15.6887C15.7275 11.5773 15.75 11.786 15.75 11.9998ZM16.8612 18.2489C17.625 18.2489 18.25 17.624 18.25 16.8602V7.1379C18.25 6.37414 17.625 5.74915 16.8612 5.74915H7.13873C6.375 5.74915 5.75 6.37414 5.75 7.1379V16.8602C5.75 17.624 6.375 18.2489 7.13873 18.2489H16.8612Z" fill="#815959"/>
</svg>
