<svg width="24" height="24" viewBox="0 0 24 24" fill="none" xmlns="http://www.w3.org/2000/svg">
<path d="M13.2108 13.2784L10.6347 16.9513L8.17642 17.9215C6.72803 16.3911 5.1812 14.5754 4.44991 12.2798L5.92178 9.75503L8.28897 8.73907C8.24683 8.97253 8.21866 9.20598 8.21866 9.4524C8.21866 11.5923 10.117 13.3433 12.4374 13.3433C12.7046 13.3433 12.9577 13.3173 13.2108 13.2784Z" fill="#527BA9"/>
<path d="M16.5864 10.1624C16.6286 9.93024 16.6563 9.69809 16.6563 9.45296C16.6563 7.3147 14.7606 5.56467 12.4427 5.56207H12.4375C12.1703 5.56207 11.9172 5.58801 11.6641 5.62692L15.4047 2.177C17.6688 2.95518 19.4828 4.62826 20.3266 6.71637L16.5859 10.1663C16.5859 10.165 16.5864 10.1637 16.5864 10.1624Z" fill="#527BA9"/>
<path d="M20.3266 6.71637L19.0471 9.02064L16.5859 10.1663C16.5859 10.165 16.5864 10.1637 16.5864 10.1624C16.6286 9.93024 16.6563 9.69809 16.6563 9.45296C16.6563 7.3147 14.7606 5.56467 12.4427 5.56207H12.4391V4.9123L13.2815 3.18431L15.4047 2.177C17.6688 2.95518 19.4828 4.62826 20.3266 6.71637Z" fill="#527BA9"/>
<path d="M20.3266 6.71637L16.5859 10.1663C16.2625 11.7357 14.9125 12.9801 13.2108 13.2784L8.17642 17.9215C8.41553 18.1679 8.62634 18.389 8.85138 18.6224C10.3983 20.2436 11.7342 21.7308 11.7342 23.1575C11.7342 23.5206 12.0436 23.8059 12.4374 23.8059C12.8312 23.8059 13.1405 23.5206 13.1405 23.1575C13.1405 21.7308 14.4764 20.2436 16.0233 18.6224C18.189 16.3787 20.8749 13.5773 20.8749 9.45295C20.8749 8.4932 20.6922 7.57236 20.3266 6.71637Z" fill="#527BA9"/>
<path d="M20.3266 6.71637L16.5859 10.1663C16.2625 11.7357 14.9125 12.9801 13.2108 13.2784C13.2109 13.2784 13.2108 13.2784 13.2108 13.2784L12.4387 13.9908V23.8057C12.8318 23.8049 13.1405 23.5201 13.1405 23.1575C13.1405 21.7308 14.4764 20.2436 16.0233 18.6224C18.189 16.3787 20.8749 13.5773 20.8749 9.45295C20.8749 8.4932 20.6922 7.57236 20.3266 6.71637Z" fill="#527BA9"/>
<path d="M12.4387 13.9908L13.2108 13.2784C12.9582 13.3172 12.7054 13.3429 12.4387 13.3431V13.9908Z" fill="#527BA9"/>
<path d="M15.4047 2.177L11.6641 5.62692C10.8063 5.78256 10.047 6.15806 9.45643 6.70287L7.28144 5.86413L6.47519 3.95328C7.99398 2.53956 10.1034 1.67065 12.4377 1.67065C13.4783 1.67065 14.4766 1.83979 15.4047 2.177Z" fill="#527BA9"/>
<path d="M12.4387 4.91083L15.4044 2.1756C14.4768 1.83853 13.4788 1.67009 12.4388 1.66992L12.4387 4.91083Z" fill="#527BA9"/>
<path d="M9.45643 6.70287C8.86586 7.24759 8.45767 7.94789 8.28897 8.73907L4.44991 12.2798C4.16866 11.4109 4 10.4763 4 9.45168C4 7.29869 4.94233 5.35396 6.47519 3.95328L9.45643 6.70287Z" fill="#527BA9"/>
</svg>
