<svg width="24" height="25" viewBox="0 0 24 25" fill="none" xmlns="http://www.w3.org/2000/svg">
<path d="M13.2111 14.1995L10.635 17.8723L8.17671 18.8425C6.72832 17.3121 5.18149 15.4964 4.4502 13.2008L5.92207 10.6761L8.28926 9.66016C8.24712 9.89361 8.21895 10.1271 8.21895 10.3735C8.21895 12.5134 10.1173 14.2643 12.4377 14.2643C12.7049 14.2643 12.958 14.2384 13.2111 14.1995Z" fill="#949494"/>
<path d="M16.5864 11.085C16.6286 10.8528 16.6563 10.6207 16.6563 10.3755C16.6563 8.23729 14.7606 6.48726 12.4427 6.48467H12.4375C12.1703 6.48467 11.9172 6.51061 11.6641 6.54952L15.4047 3.09961C17.6688 3.87778 19.4828 5.55086 20.3266 7.63896L16.5859 11.0889C16.5859 11.0876 16.5864 11.0863 16.5864 11.085Z" fill="#545454"/>
<path d="M20.3271 7.63896L19.0474 9.94322L16.5865 11.0889C16.5865 11.0876 16.587 11.0863 16.587 11.085C16.6291 10.8528 16.6568 10.6207 16.6568 10.3755C16.6568 8.23729 14.7612 6.48726 12.4432 6.48467H12.4395V5.83489L13.2818 4.10691L15.4052 3.09961C17.6693 3.87778 19.4834 5.55086 20.3271 7.63896Z" fill="#545454"/>
<path d="M20.3268 7.63867L16.5862 11.0885C16.2627 12.6579 14.9128 13.9029 13.2112 14.2013H13.2111L9.13901 17.9569L8.17676 18.8443C8.41587 19.0907 8.62676 19.3113 8.8518 19.5447C10.3987 21.166 11.7347 22.6531 11.7347 24.0798C11.7347 24.4429 12.044 24.7283 12.4378 24.7283C12.8316 24.7283 13.1409 24.4429 13.1409 24.0798C13.1409 22.6531 14.4768 21.166 16.0237 19.5448C18.1894 17.301 20.8753 14.4996 20.8753 10.3753C20.8753 9.41551 20.6925 8.49466 20.3268 7.63867Z" fill="#999999"/>
<path d="M20.3271 7.63867L16.5865 11.0885V11.0885C16.263 12.6579 14.913 13.9029 13.2114 14.2013C13.2114 14.2013 13.2114 14.2013 13.2113 14.2013L12.4395 14.9131V24.728C12.8325 24.7272 13.1411 24.4424 13.1411 24.0797C13.1411 22.6531 14.4771 21.1659 16.0239 19.5447C18.1896 17.301 20.8755 14.4996 20.8755 10.3752C20.8755 9.4155 20.6927 8.49466 20.3271 7.63867Z" fill="#999999"/>
<path d="M12.4385 14.9131L13.2105 14.2012C12.9579 14.2399 12.7052 14.2657 12.4385 14.2658V14.9131Z" fill="#949494"/>
<path d="M15.4053 3.09762L11.6646 6.54756C10.8068 6.70319 10.0474 7.07927 9.45683 7.62408L7.28183 6.78533L6.47559 4.87446C7.99438 3.46072 10.1038 2.5918 12.4381 2.5918C13.4787 2.5918 14.4771 2.7604 15.4053 3.09762Z" fill="#545454"/>
<path d="M12.4385 5.8327L15.4042 3.09748C14.4766 2.7604 13.4786 2.59197 12.4385 2.5918V5.8327H12.4385Z" fill="#545454"/>
<path d="M9.45625 7.62455C8.86567 8.16928 8.45777 8.86959 8.28907 9.66078L4.45 13.2015C4.16875 12.3326 4 11.3987 4 10.3741C4 8.22111 4.94214 6.27567 6.475 4.875L9.45625 7.62455Z" fill="#858585"/>
</svg>
