<svg width="24" height="24" viewBox="0 0 24 24" fill="none" xmlns="http://www.w3.org/2000/svg">
<path fill-rule="evenodd" clip-rule="evenodd" d="M0 12C0 5.37322 5.37322 0 12 0C18.6268 0 24 5.37322 24 12C24 18.6268 18.6268 24 12 24C5.37322 24 0 18.6268 0 12ZM17.7749 9.43166C17.7749 9.30313 17.7749 9.17189 17.7668 9.04597C18.3481 8.62546 18.8543 8.09782 19.2588 7.50319C18.7231 7.73624 18.1445 7.9023 17.5445 7.96658C18.1633 7.59964 18.6293 7.01839 18.8516 6.33004C18.2784 6.66752 17.6356 6.91927 16.9633 7.04519C16.4195 6.46664 15.6481 6.10771 14.7909 6.10771C12.9749 6.10771 11.4641 7.74426 11.8847 9.76648C10.7013 9.70743 9.5436 9.40004 8.48681 8.86429C7.43006 8.32854 6.49782 7.57641 5.75077 6.6568C5.49095 7.09606 5.34628 7.6023 5.34628 8.15675C5.34661 8.64649 5.4678 9.12863 5.69911 9.56032C5.93038 9.99205 6.26464 10.36 6.6722 10.6316C6.18738 10.6129 5.72396 10.4763 5.33024 10.254V10.2915C5.32887 10.9782 5.56529 11.6443 5.99937 12.1765C6.43345 12.7087 7.03841 13.0742 7.71149 13.211C7.24006 13.3315 6.82755 13.3315 6.36953 13.2646C6.74451 14.4431 7.84274 15.3002 9.14987 15.327C8.12932 16.1251 6.84899 16.5966 5.45612 16.5966C5.20968 16.5966 4.97932 16.5858 4.73828 16.559C6.05614 17.4028 7.6204 17.8929 9.30792 17.8929C14.7802 17.8929 17.7749 13.3637 17.7749 9.43166Z" fill="#50ABF1"/>
</svg>
