<svg width="24" height="24" viewBox="0 0 24 24" fill="none" xmlns="http://www.w3.org/2000/svg">
<path fill-rule="evenodd" clip-rule="evenodd" d="M12 0C5.3725 0 0 5.37249 0 12C0 18.6275 5.3725 24 12 24C18.6275 24 24 18.6275 24 12C24 5.37249 18.6275 0 12 0ZM14.0038 11.7904L11.1963 10.4805C10.9513 10.3667 10.75 10.4942 10.75 10.7655V13.2329C10.75 13.5041 10.9513 13.6316 11.1963 13.5179L14.0025 12.2079C14.2488 12.0929 14.2488 11.9054 14.0038 11.7904ZM5.75 11.999C5.75 16.3202 5.8575 16.8739 12 16.8739C18.1425 16.8739 18.25 16.3202 18.25 11.999C18.25 7.67792 18.1425 7.12418 12 7.12418C5.8575 7.12418 5.75 7.67792 5.75 11.999Z" fill="#CB1F24"/>
</svg>
