<svg width="32" height="32" viewBox="0 0 32 32" fill="none" xmlns="http://www.w3.org/2000/svg">
<rect x="1" y="1" width="30" height="30" rx="7" stroke="#527BA9" stroke-width="2"/>
<path d="M8.20304 16.6841C8.2035 14.8243 8.81513 13.0162 9.9438 11.538C11.0725 10.0597 12.6557 8.99338 14.4498 8.50304C16.2439 8.0127 18.1494 8.12554 19.8731 8.8242C21.5968 9.52286 23.0431 10.7686 23.9894 12.3697C24.9358 13.9709 25.3297 15.8386 25.1106 17.6856C24.8916 19.5325 24.0716 21.2562 22.7769 22.5915C21.4822 23.9268 19.7846 24.7996 17.9453 25.0756C16.127 25.3485 14.2698 25.0231 12.6532 24.1495L9.4734 25.1178C9.30289 25.1698 9.12144 25.1744 8.9485 25.1312C8.77555 25.088 8.6176 24.9985 8.49155 24.8725C8.3655 24.7464 8.27608 24.5885 8.23287 24.4155C8.18966 24.2426 8.19427 24.0612 8.24619 23.8907C8.2462 23.8907 8.24621 23.8906 8.24621 23.8906L9.21458 20.7058C8.54874 19.4704 8.20093 18.0882 8.20304 16.6841ZM8.20304 16.6841L8.35304 16.6843M8.20304 16.6841L8.35304 16.6843M8.20304 16.6841C8.20304 16.6842 8.20304 16.6842 8.20304 16.6843L8.35304 16.6843M8.20304 16.6841L8.35304 16.6843M11.1195 20.073L11.1195 20.073C10.518 19.0849 10.1903 17.9545 10.1701 16.7978C10.15 15.6412 10.4381 14.5001 11.0048 13.4916C11.5716 12.4831 12.3966 11.6437 13.3951 11.0596C14.3936 10.4754 15.5295 10.1676 16.6864 10.1677C17.6926 10.1678 18.6852 10.401 19.5863 10.849C20.4874 11.2969 21.2725 11.9475 21.88 12.7496C22.4876 13.5518 22.9012 14.4837 23.0883 15.4725C23.2754 16.4612 23.2311 17.4798 22.9586 18.4485C22.6862 19.4172 22.1932 20.3097 21.5181 21.056C20.843 21.8022 20.0043 22.382 19.0677 22.7499C18.1311 23.1178 17.122 23.2638 16.1195 23.1764C15.117 23.089 14.1484 22.7707 13.2895 22.2463C13.171 22.1737 13.0384 22.127 12.9005 22.1094C12.7625 22.0918 12.6224 22.1036 12.4893 22.1442L12.533 22.2877L12.4893 22.1442L10.6634 22.7005L11.2198 20.8715C11.2198 20.8715 11.2199 20.8714 11.2199 20.8713C11.2604 20.7388 11.2724 20.5991 11.2551 20.4615C11.2378 20.3239 11.1916 20.1915 11.1195 20.073ZM13.491 15.1557C13.3066 15.3401 13.203 15.5902 13.203 15.851C13.203 16.1118 13.3066 16.3619 13.491 16.5463C13.6755 16.7307 13.9256 16.8343 14.1864 16.8343H19.1864C19.4472 16.8343 19.6973 16.7307 19.8817 16.5463C20.0661 16.3619 20.1697 16.1118 20.1697 15.851C20.1697 15.5902 20.0661 15.3401 19.8817 15.1557C19.6973 14.9713 19.4472 14.8677 19.1864 14.8677H14.1864C13.9256 14.8677 13.6755 14.9713 13.491 15.1557ZM14.1864 18.201C13.9256 18.201 13.6755 18.3046 13.491 18.489C13.3066 18.6734 13.203 18.9235 13.203 19.1843C13.203 19.4451 13.3066 19.6952 13.491 19.8797C13.6755 20.0641 13.9256 20.1677 14.1864 20.1677H17.5197C17.7805 20.1677 18.0306 20.0641 18.215 19.8797C18.3994 19.6952 18.503 19.4451 18.503 19.1843C18.503 18.9235 18.3994 18.6734 18.215 18.489C18.0306 18.3046 17.7805 18.201 17.5197 18.201H14.1864Z" fill="#527BA9" stroke="#527BA9" stroke-width="0.3"/>
</svg>
