<svg width="17" height="17" viewBox="0 0 17 17" fill="none" xmlns="http://www.w3.org/2000/svg">
<path d="M8.50014 0C9.78378 0.000741864 11.0506 0.292198 12.2055 0.852498C13.3604 1.4128 14.3734 2.22739 15.1685 3.23514C15.9636 4.24289 16.5201 5.41763 16.7963 6.67121C17.0725 7.92478 17.0612 9.22463 16.7632 10.4732C16.4653 11.7218 15.8884 12.8867 15.0759 13.8804C14.2634 14.8742 13.2364 15.6711 12.0719 16.2112C10.9074 16.7513 9.63573 17.0207 8.35227 16.9991C7.06882 16.9775 5.80692 16.6655 4.66127 16.0865L4.5327 16.0175L0.659824 16.9844C0.585289 17.0031 0.507576 17.0054 0.432046 16.9912C0.356516 16.977 0.284969 16.9466 0.222341 16.902C0.159713 16.8575 0.107496 16.7999 0.069293 16.7332C0.0310902 16.6665 0.00781104 16.5923 0.00106244 16.5158V16.4287L0.0159379 16.3405L0.982829 12.4686L0.915891 12.3411C0.429666 11.384 0.13036 10.3429 0.0340007 9.27366L0.00743759 8.86778L0 8.50014C0 6.24577 0.895549 4.08372 2.48963 2.48963C4.08372 0.895549 6.24577 0 8.50014 0ZM9.0314 9.56266H5.84385L5.74822 9.57116C5.62573 9.59334 5.51492 9.65783 5.43513 9.75337C5.35533 9.84891 5.31162 9.96944 5.31162 10.0939C5.31162 10.2184 5.35533 10.3389 5.43513 10.4345C5.51492 10.53 5.62573 10.5945 5.74822 10.6167L5.84385 10.6252H9.0314L9.12703 10.6167C9.24952 10.5945 9.36033 10.53 9.44013 10.4345C9.51992 10.3389 9.56364 10.2184 9.56364 10.0939C9.56364 9.96944 9.51992 9.84891 9.44013 9.75337C9.36033 9.65783 9.24952 9.59334 9.12703 9.57116L9.0314 9.56266ZM11.1564 6.37511H5.84385L5.74822 6.38361C5.62573 6.40579 5.51492 6.47027 5.43513 6.56582C5.35533 6.66136 5.31162 6.78189 5.31162 6.90637C5.31162 7.03085 5.35533 7.15138 5.43513 7.24692C5.51492 7.34246 5.62573 7.40695 5.74822 7.42913L5.84385 7.43763H11.1564L11.2521 7.42913C11.3746 7.40695 11.4854 7.34246 11.5652 7.24692C11.645 7.15138 11.6887 7.03085 11.6887 6.90637C11.6887 6.78189 11.645 6.66136 11.5652 6.56582C11.4854 6.47027 11.3746 6.40579 11.2521 6.38361L11.1564 6.37511Z" fill="#527BA9"/>
</svg>
