<svg width="18" height="16" viewBox="0 0 18 16" fill="none" xmlns="http://www.w3.org/2000/svg">
<path d="M9 12C10.6569 12 12 10.6569 12 9C12 7.34315 10.6569 6 9 6C7.34315 6 6 7.34315 6 9C6 10.6569 7.34315 12 9 12Z" fill="#507BB9"/>
<path d="M16.2 1.77778H13.347L12.231 0.577778C12.0633 0.395905 11.859 0.250584 11.6312 0.151099C11.4034 0.0516136 11.1571 0.000151351 10.908 0H7.092C6.588 0 6.102 0.213333 5.76 0.577778L4.653 1.77778H1.8C0.81 1.77778 0 2.57778 0 3.55556V14.2222C0 15.2 0.81 16 1.8 16H16.2C17.19 16 18 15.2 18 14.2222V3.55556C18 2.57778 17.19 1.77778 16.2 1.77778ZM9 13.3333C6.516 13.3333 4.5 11.3422 4.5 8.88889C4.5 6.43556 6.516 4.44444 9 4.44444C11.484 4.44444 13.5 6.43556 13.5 8.88889C13.5 11.3422 11.484 13.3333 9 13.3333Z" fill="#507BB9"/>
</svg>
