<svg width="88" height="88" viewBox="0 0 88 88" fill="none" xmlns="http://www.w3.org/2000/svg">
<path fill-rule="evenodd" clip-rule="evenodd" d="M1 0C0.447715 0 0 0.447715 0 1V3C0 3.55228 0.447715 4 1 4H3C3.55228 4 4 3.55228 4 3V1C4 0.447715 3.55228 0 3 0H1ZM13 0C12.4477 0 12 0.447715 12 1V3C12 3.55228 12.4477 4 13 4H15C15.5523 4 16 3.55228 16 3V1C16 0.447715 15.5523 0 15 0H13ZM24 1C24 0.447715 24.4477 0 25 0H27C27.5523 0 28 0.447715 28 1V3C28 3.55228 27.5523 4 27 4H25C24.4477 4 24 3.55228 24 3V1ZM37 0C36.4477 0 36 0.447715 36 1V3C36 3.55228 36.4477 4 37 4H39C39.5523 4 40 3.55228 40 3V1C40 0.447715 39.5523 0 39 0H37ZM0 13C0 12.4477 0.447715 12 1 12H3C3.55228 12 4 12.4477 4 13V15C4 15.5523 3.55228 16 3 16H1C0.447715 16 0 15.5523 0 15V13ZM13 12C12.4477 12 12 12.4477 12 13V15C12 15.5523 12.4477 16 13 16H15C15.5523 16 16 15.5523 16 15V13C16 12.4477 15.5523 12 15 12H13ZM24 13C24 12.4477 24.4477 12 25 12H27C27.5523 12 28 12.4477 28 13V15C28 15.5523 27.5523 16 27 16H25C24.4477 16 24 15.5523 24 15V13ZM37 12C36.4477 12 36 12.4477 36 13V15C36 15.5523 36.4477 16 37 16H39C39.5523 16 40 15.5523 40 15V13C40 12.4477 39.5523 12 39 12H37ZM0 25C0 24.4477 0.447715 24 1 24H3C3.55228 24 4 24.4477 4 25V27C4 27.5523 3.55228 28 3 28H1C0.447715 28 0 27.5523 0 27V25ZM13 24C12.4477 24 12 24.4477 12 25V27C12 27.5523 12.4477 28 13 28H15C15.5523 28 16 27.5523 16 27V25C16 24.4477 15.5523 24 15 24H13ZM24 25C24 24.4477 24.4477 24 25 24H27C27.5523 24 28 24.4477 28 25V27C28 27.5523 27.5523 28 27 28H25C24.4477 28 24 27.5523 24 27V25ZM37 24C36.4477 24 36 24.4477 36 25V27C36 27.5523 36.4477 28 37 28H39C39.5523 28 40 27.5523 40 27V25C40 24.4477 39.5523 24 39 24H37ZM0 37C0 36.4477 0.447715 36 1 36H3C3.55228 36 4 36.4477 4 37V39C4 39.5523 3.55228 40 3 40H1C0.447715 40 0 39.5523 0 39V37ZM13 36C12.4477 36 12 36.4477 12 37V39C12 39.5523 12.4477 40 13 40H15C15.5523 40 16 39.5523 16 39V37C16 36.4477 15.5523 36 15 36H13ZM24 37C24 36.4477 24.4477 36 25 36H27C27.5523 36 28 36.4477 28 37V39C28 39.5523 27.5523 40 27 40H25C24.4477 40 24 39.5523 24 39V37ZM37 36C36.4477 36 36 36.4477 36 37V39C36 39.5523 36.4477 40 37 40H39C39.5523 40 40 39.5523 40 39V37C40 36.4477 39.5523 36 39 36H37ZM48 1C48 0.447715 48.4477 0 49 0H51C51.5523 0 52 0.447715 52 1V3C52 3.55228 51.5523 4 51 4H49C48.4477 4 48 3.55228 48 3V1ZM61 0C60.4477 0 60 0.447715 60 1V3C60 3.55228 60.4477 4 61 4H63C63.5523 4 64 3.55228 64 3V1C64 0.447715 63.5523 0 63 0H61ZM72 1C72 0.447715 72.4477 0 73 0H75C75.5523 0 76 0.447715 76 1V3C76 3.55228 75.5523 4 75 4H73C72.4477 4 72 3.55228 72 3V1ZM85 0C84.4477 0 84 0.447715 84 1V3C84 3.55228 84.4477 4 85 4H87C87.5523 4 88 3.55228 88 3V1C88 0.447715 87.5523 0 87 0H85ZM48 13C48 12.4477 48.4477 12 49 12H51C51.5523 12 52 12.4477 52 13V15C52 15.5523 51.5523 16 51 16H49C48.4477 16 48 15.5523 48 15V13ZM61 12C60.4477 12 60 12.4477 60 13V15C60 15.5523 60.4477 16 61 16H63C63.5523 16 64 15.5523 64 15V13C64 12.4477 63.5523 12 63 12H61ZM72 13C72 12.4477 72.4477 12 73 12H75C75.5523 12 76 12.4477 76 13V15C76 15.5523 75.5523 16 75 16H73C72.4477 16 72 15.5523 72 15V13ZM85 12C84.4477 12 84 12.4477 84 13V15C84 15.5523 84.4477 16 85 16H87C87.5523 16 88 15.5523 88 15V13C88 12.4477 87.5523 12 87 12H85ZM48 25C48 24.4477 48.4477 24 49 24H51C51.5523 24 52 24.4477 52 25V27C52 27.5523 51.5523 28 51 28H49C48.4477 28 48 27.5523 48 27V25ZM61 24C60.4477 24 60 24.4477 60 25V27C60 27.5523 60.4477 28 61 28H63C63.5523 28 64 27.5523 64 27V25C64 24.4477 63.5523 24 63 24H61ZM72 25C72 24.4477 72.4477 24 73 24H75C75.5523 24 76 24.4477 76 25V27C76 27.5523 75.5523 28 75 28H73C72.4477 28 72 27.5523 72 27V25ZM85 24C84.4477 24 84 24.4477 84 25V27C84 27.5523 84.4477 28 85 28H87C87.5523 28 88 27.5523 88 27V25C88 24.4477 87.5523 24 87 24H85ZM48 37C48 36.4477 48.4477 36 49 36H51C51.5523 36 52 36.4477 52 37V39C52 39.5523 51.5523 40 51 40H49C48.4477 40 48 39.5523 48 39V37ZM61 36C60.4477 36 60 36.4477 60 37V39C60 39.5523 60.4477 40 61 40H63C63.5523 40 64 39.5523 64 39V37C64 36.4477 63.5523 36 63 36H61ZM72 37C72 36.4477 72.4477 36 73 36H75C75.5523 36 76 36.4477 76 37V39C76 39.5523 75.5523 40 75 40H73C72.4477 40 72 39.5523 72 39V37ZM85 36C84.4477 36 84 36.4477 84 37V39C84 39.5523 84.4477 40 85 40H87C87.5523 40 88 39.5523 88 39V37C88 36.4477 87.5523 36 87 36H85ZM0 49C0 48.4477 0.447715 48 1 48H3C3.55228 48 4 48.4477 4 49V51C4 51.5523 3.55228 52 3 52H1C0.447715 52 0 51.5523 0 51V49ZM13 48C12.4477 48 12 48.4477 12 49V51C12 51.5523 12.4477 52 13 52H15C15.5523 52 16 51.5523 16 51V49C16 48.4477 15.5523 48 15 48H13ZM24 49C24 48.4477 24.4477 48 25 48H27C27.5523 48 28 48.4477 28 49V51C28 51.5523 27.5523 52 27 52H25C24.4477 52 24 51.5523 24 51V49ZM37 48C36.4477 48 36 48.4477 36 49V51C36 51.5523 36.4477 52 37 52H39C39.5523 52 40 51.5523 40 51V49C40 48.4477 39.5523 48 39 48H37ZM0 61C0 60.4477 0.447715 60 1 60H3C3.55228 60 4 60.4477 4 61V63C4 63.5523 3.55228 64 3 64H1C0.447715 64 0 63.5523 0 63V61ZM13 60C12.4477 60 12 60.4477 12 61V63C12 63.5523 12.4477 64 13 64H15C15.5523 64 16 63.5523 16 63V61C16 60.4477 15.5523 60 15 60H13ZM24 61C24 60.4477 24.4477 60 25 60H27C27.5523 60 28 60.4477 28 61V63C28 63.5523 27.5523 64 27 64H25C24.4477 64 24 63.5523 24 63V61ZM37 60C36.4477 60 36 60.4477 36 61V63C36 63.5523 36.4477 64 37 64H39C39.5523 64 40 63.5523 40 63V61C40 60.4477 39.5523 60 39 60H37ZM0 73C0 72.4477 0.447715 72 1 72H3C3.55228 72 4 72.4477 4 73V75C4 75.5523 3.55228 76 3 76H1C0.447715 76 0 75.5523 0 75V73ZM13 72C12.4477 72 12 72.4477 12 73V75C12 75.5523 12.4477 76 13 76H15C15.5523 76 16 75.5523 16 75V73C16 72.4477 15.5523 72 15 72H13ZM24 73C24 72.4477 24.4477 72 25 72H27C27.5523 72 28 72.4477 28 73V75C28 75.5523 27.5523 76 27 76H25C24.4477 76 24 75.5523 24 75V73ZM37 72C36.4477 72 36 72.4477 36 73V75C36 75.5523 36.4477 76 37 76H39C39.5523 76 40 75.5523 40 75V73C40 72.4477 39.5523 72 39 72H37ZM0 85C0 84.4477 0.447715 84 1 84H3C3.55228 84 4 84.4477 4 85V87C4 87.5523 3.55228 88 3 88H1C0.447715 88 0 87.5523 0 87V85ZM13 84C12.4477 84 12 84.4477 12 85V87C12 87.5523 12.4477 88 13 88H15C15.5523 88 16 87.5523 16 87V85C16 84.4477 15.5523 84 15 84H13ZM24 85C24 84.4477 24.4477 84 25 84H27C27.5523 84 28 84.4477 28 85V87C28 87.5523 27.5523 88 27 88H25C24.4477 88 24 87.5523 24 87V85ZM37 84C36.4477 84 36 84.4477 36 85V87C36 87.5523 36.4477 88 37 88H39C39.5523 88 40 87.5523 40 87V85C40 84.4477 39.5523 84 39 84H37ZM48 49C48 48.4477 48.4477 48 49 48H51C51.5523 48 52 48.4477 52 49V51C52 51.5523 51.5523 52 51 52H49C48.4477 52 48 51.5523 48 51V49ZM61 48C60.4477 48 60 48.4477 60 49V51C60 51.5523 60.4477 52 61 52H63C63.5523 52 64 51.5523 64 51V49C64 48.4477 63.5523 48 63 48H61ZM72 49C72 48.4477 72.4477 48 73 48H75C75.5523 48 76 48.4477 76 49V51C76 51.5523 75.5523 52 75 52H73C72.4477 52 72 51.5523 72 51V49ZM85 48C84.4477 48 84 48.4477 84 49V51C84 51.5523 84.4477 52 85 52H87C87.5523 52 88 51.5523 88 51V49C88 48.4477 87.5523 48 87 48H85ZM48 61C48 60.4477 48.4477 60 49 60H51C51.5523 60 52 60.4477 52 61V63C52 63.5523 51.5523 64 51 64H49C48.4477 64 48 63.5523 48 63V61ZM61 60C60.4477 60 60 60.4477 60 61V63C60 63.5523 60.4477 64 61 64H63C63.5523 64 64 63.5523 64 63V61C64 60.4477 63.5523 60 63 60H61ZM72 61C72 60.4477 72.4477 60 73 60H75C75.5523 60 76 60.4477 76 61V63C76 63.5523 75.5523 64 75 64H73C72.4477 64 72 63.5523 72 63V61ZM85 60C84.4477 60 84 60.4477 84 61V63C84 63.5523 84.4477 64 85 64H87C87.5523 64 88 63.5523 88 63V61C88 60.4477 87.5523 60 87 60H85ZM48 73C48 72.4477 48.4477 72 49 72H51C51.5523 72 52 72.4477 52 73V75C52 75.5523 51.5523 76 51 76H49C48.4477 76 48 75.5523 48 75V73ZM61 72C60.4477 72 60 72.4477 60 73V75C60 75.5523 60.4477 76 61 76H63C63.5523 76 64 75.5523 64 75V73C64 72.4477 63.5523 72 63 72H61ZM72 73C72 72.4477 72.4477 72 73 72H75C75.5523 72 76 72.4477 76 73V75C76 75.5523 75.5523 76 75 76H73C72.4477 76 72 75.5523 72 75V73ZM85 72C84.4477 72 84 72.4477 84 73V75C84 75.5523 84.4477 76 85 76H87C87.5523 76 88 75.5523 88 75V73C88 72.4477 87.5523 72 87 72H85ZM48 85C48 84.4477 48.4477 84 49 84H51C51.5523 84 52 84.4477 52 85V87C52 87.5523 51.5523 88 51 88H49C48.4477 88 48 87.5523 48 87V85ZM61 84C60.4477 84 60 84.4477 60 85V87C60 87.5523 60.4477 88 61 88H63C63.5523 88 64 87.5523 64 87V85C64 84.4477 63.5523 84 63 84H61ZM72 85C72 84.4477 72.4477 84 73 84H75C75.5523 84 76 84.4477 76 85V87C76 87.5523 75.5523 88 75 88H73C72.4477 88 72 87.5523 72 87V85ZM85 84C84.4477 84 84 84.4477 84 85V87C84 87.5523 84.4477 88 85 88H87C87.5523 88 88 87.5523 88 87V85C88 84.4477 87.5523 84 87 84H85Z" fill="#C4C4C4"/>
</svg>
