<svg width="20" height="25" viewBox="0 0 20 25" fill="none" xmlns="http://www.w3.org/2000/svg">
<path d="M17.2345 0.417969C17.5976 0.417969 17.9573 0.489482 18.2928 0.628426C18.6283 0.767369 18.9332 0.971022 19.19 1.22776C19.4468 1.48449 19.6505 1.78928 19.7895 2.12472C19.9285 2.46016 20 2.81968 20 3.18276V22.2352C20 22.5983 19.9285 22.9578 19.7895 23.2933C19.6505 23.6287 19.4468 23.9335 19.19 24.1902C18.9332 24.4469 18.6283 24.6506 18.2928 24.7895C17.9573 24.9285 17.5976 25 17.2345 25H3.09952C2.73634 25 2.37672 24.9285 2.04119 24.7895C1.70566 24.6506 1.40079 24.4469 1.14399 24.1902C0.887187 23.9335 0.683479 23.6287 0.544498 23.2933C0.405517 22.9578 0.333984 22.5983 0.333984 22.2352V3.18276C0.333898 2.48219 0.599838 1.80771 1.07806 1.29563C1.55628 0.783553 2.21112 0.472063 2.91023 0.424113L3.09952 0.417969H17.2345ZM18.1563 17.6211H2.17767V22.2352C2.17767 22.7439 2.59066 23.1568 3.09952 23.1568H17.2345C17.479 23.1568 17.7134 23.0597 17.8863 22.8869C18.0592 22.714 18.1563 22.4796 18.1563 22.2352V17.6211ZM4.94444 19.4643H15.3908C15.6243 19.4644 15.8492 19.5531 16.0198 19.7125C16.1905 19.8719 16.2943 20.0901 16.3102 20.3231C16.3261 20.556 16.253 20.7863 16.1056 20.9675C15.9582 21.1486 15.7475 21.267 15.5161 21.2989L15.3908 21.3075H4.94444C4.71098 21.3071 4.48636 21.2182 4.31593 21.0587C4.1455 20.8992 4.04195 20.6809 4.0262 20.4481C4.01044 20.2152 4.08364 19.9851 4.23103 19.8041C4.37842 19.623 4.58901 19.5047 4.82029 19.4729L4.94444 19.4643H15.3908H4.94444ZM17.2345 2.26116H3.09952L2.97415 2.26976C2.75345 2.30005 2.55119 2.40921 2.40478 2.57705C2.25836 2.74489 2.17768 2.96005 2.17767 3.18276V15.7779H5.25049V13.007C5.25049 12.2119 5.85522 11.5582 6.62957 11.4796L6.7869 11.471H13.5471C14.3423 11.471 14.9975 12.0755 15.0749 12.8509L15.0835 13.007V15.7779H18.1563V3.18276C18.1563 2.93833 18.0592 2.70392 17.8863 2.53109C17.7134 2.35826 17.479 2.26116 17.2345 2.26116ZM10.167 4.09944C10.982 4.09944 11.7635 4.42309 12.3398 4.9992C12.9161 5.57531 13.2398 6.35668 13.2398 7.17142C13.2398 7.98616 12.9161 8.76754 12.3398 9.34365C11.7635 9.91975 10.982 10.2434 10.167 10.2434C9.35203 10.2434 8.57045 9.91975 7.99418 9.34365C7.41792 8.76754 7.09418 7.98616 7.09418 7.17142C7.09418 6.35668 7.41792 5.57531 7.99418 4.9992C8.57045 4.42309 9.35203 4.09944 10.167 4.09944Z" fill="#4A4A4A"/>
</svg>
