<svg width="24" height="24" viewBox="0 0 24 24" fill="none" xmlns="http://www.w3.org/2000/svg">
<path d="M18.8894 4.99863H18.3594L19.0694 3.02863C19.3094 2.37863 18.9694 1.65863 18.3194 1.42863C17.6694 1.18863 16.9494 1.52863 16.7094 2.17863L15.6894 4.99863H5.09943C3.72943 4.99863 2.76943 6.33863 3.19943 7.62863L4.99943 12.9986L3.20943 18.3686C2.76943 19.6586 3.73943 20.9986 5.09943 20.9986H18.8794C20.2394 20.9986 21.2094 19.6586 20.7794 18.3686L18.9994 12.9986L20.7794 7.62863C21.2094 6.33863 20.2494 4.99863 18.8894 4.99863ZM14.9994 13.9986H12.9994V15.9986C12.9994 16.5486 12.5494 16.9986 11.9994 16.9986C11.4494 16.9986 10.9994 16.5486 10.9994 15.9986V13.9986H8.99943C8.44943 13.9986 7.99943 13.5486 7.99943 12.9986C7.99943 12.4486 8.44943 11.9986 8.99943 11.9986H10.9994V9.99863C10.9994 9.44863 11.4494 8.99863 11.9994 8.99863C12.5494 8.99863 12.9994 9.44863 12.9994 9.99863V11.9986H14.9994C15.5494 11.9986 15.9994 12.4486 15.9994 12.9986C15.9994 13.5486 15.5494 13.9986 14.9994 13.9986Z" fill="#4A4A4A"/>
</svg>
